<svg width="806" height="599" viewBox="0 0 806 599" fill="none" xmlns="http://www.w3.org/2000/svg">
<g clip-path="url(#clip0_605_1824)">
<path d="M801.3 418.6C798.4 403.1 783.6 316.1 769.3 274C759.9 246.3 756.2 221 752.3 209.1C740.3 173.4 719.3 143.4 719.3 143.4C719.3 143.4 709.8 130.3 709.2 127.1C708.6 123.8 704.5 118.5 704.5 118.5C704.5 118.5 687.1 112.8 642.2 112.8C597.3 112.8 588.5 117.8 588.5 117.8C588.5 117.8 586.1 120.7 582.6 122.6C579.1 124.4 570.9 124.3 570.9 124.3H537.5C537.5 124.3 536.9 124.2 536.6 124.6C536.2 125 536 126.6 536 126.6H403H269.9C269.9 126.6 269.6 124.9 269.3 124.6C268.9 124.2 268.4 124.3 268.4 124.3H235C235 124.3 226.8 124.5 223.3 122.6C219.8 120.8 217.4 117.8 217.4 117.8C217.4 117.8 208.6 112.8 163.7 112.8C118.9 112.8 101.4 118.5 101.4 118.5C101.4 118.5 97.3 123.8 96.7 127.1C96.1 130.4 86.6 143.4 86.6 143.4C86.6 143.4 65.6 173.4 53.6 209.1C49.6 221 45.9 246.3 36.6 274C22.3 316.1 7.5 403.1 4.6 418.6C0.299998 441.8 0 508.8 0 508.8C0 508.8 4.5 562.2 36.2 583.7C67.9 605.2 92.9 597.7 92.9 597.7C92.9 597.7 126 589.5 150.7 555.8C175.4 522.1 207.3 426.6 207.3 426.6C207.3 426.6 209.5 423.6 213 421.3C216.5 419 219.3 418.7 219.3 418.7L403 418.8L586.7 418.7C586.7 418.7 589.5 419 593 421.3C596.5 423.6 598.7 426.6 598.7 426.6C598.7 426.6 630.6 522 655.3 555.8C680 589.6 713.1 597.7 713.1 597.7C713.1 597.7 738.1 605.2 769.8 583.7C801.5 562.2 806 508.8 806 508.8C806 508.8 805.7 441.8 801.3 418.6Z" fill="#E31E0B"/>
<path d="M805 465C757 467 733 539.5 733 539.5L659 290" stroke="#1D1D1D" stroke-width="34"/>
<path d="M1 463C49 465 73 537.5 73 537.5L147 288" stroke="#1D1D1D" stroke-width="34"/>
<g opacity="0.06">
<path opacity="0.06" d="M36.6 276C46 248.3 49.7 223 53.6 211.1C65.6 175.4 86.6 145.4 86.6 145.4C86.6 145.4 96.1 132.3 96.7 129.1C97.3 125.8 101.4 120.5 101.4 120.5C101.4 120.5 118.8 114.8 163.7 114.8C208.5 114.8 217.4 119.8 217.4 119.8C217.4 119.8 219.8 122.7 223.3 124.6C226.8 126.4 235 126.3 235 126.3H268.4C268.4 126.3 269 126.2 269.3 126.6C269.7 127 269.9 128.6 269.9 128.6H403H536.1C536.1 128.6 536.4 126.9 536.7 126.6C537.1 126.2 537.6 126.3 537.6 126.3H571C571 126.3 579.2 126.5 582.7 124.6C586.2 122.8 588.6 119.8 588.6 119.8C588.6 119.8 597.4 114.8 642.3 114.8C687.2 114.8 704.6 120.5 704.6 120.5C704.6 120.5 708.7 125.8 709.3 129.1C709.9 132.4 719.4 145.4 719.4 145.4C719.4 145.4 740.4 175.4 752.4 211.1C756.4 223 760.1 248.3 769.4 276C783.7 318.1 798.5 405.1 801.4 420.6C805.3 441.5 806 497.9 806.1 508.9C806.1 508.8 806.1 508.8 806.1 508.8C806.1 508.8 805.8 441.9 801.4 418.7C798.5 403.2 783.7 316.2 769.4 274.1C760 246.4 756.3 221.1 752.4 209.2C740.4 173.5 719.4 143.5 719.4 143.5C719.4 143.5 709.9 130.4 709.3 127.2C708.7 123.9 704.6 118.6 704.6 118.6C704.6 118.6 687.2 112.9 642.3 112.9C597.4 112.9 588.6 117.9 588.6 117.9C588.6 117.9 586.2 120.8 582.7 122.7C579.2 124.5 571 124.4 571 124.4H537.6C537.6 124.4 537 124.3 536.7 124.7C536.3 125.1 536.1 126.7 536.1 126.7H403H269.9C269.9 126.7 269.6 125 269.3 124.7C268.9 124.3 268.4 124.4 268.4 124.4H235C235 124.4 226.8 124.6 223.3 122.7C219.8 120.9 217.4 117.9 217.4 117.9C217.4 117.9 208.6 112.9 163.7 112.9C118.9 112.9 101.4 118.6 101.4 118.6C101.4 118.6 97.3 123.9 96.7 127.2C96.1 130.5 86.6 143.5 86.6 143.5C86.6 143.5 65.6 173.5 53.6 209.2C49.6 221.1 45.9 246.4 36.6 274.1C22.3 316.2 7.5 403.2 4.6 418.7C0.299998 441.8 0 508.8 0 508.8V508.9C0.1 498 0.699997 441.5 4.7 420.6C7.6 405.2 22.3 318.1 36.6 276Z" fill="white"/>
</g>
<path d="M351.2 360C351.2 317.8 316.9 283.5 274.7 283.5C232.5 283.5 198.2 317.8 198.2 360C198.2 360.7 198.2 361.3 198.3 362C198.3 362.7 198.2 363.3 198.2 364C198.2 406.2 232.5 440.5 274.7 440.5C316.9 440.5 351.2 406.2 351.2 364C351.2 363.3 351.2 362.7 351.1 362C351.1 361.3 351.2 360.6 351.2 360Z" fill="#0F0F0F"/>
<path d="M274.7 429C315.017 429 347.7 396.317 347.7 356C347.7 315.683 315.017 283 274.7 283C234.383 283 201.7 315.683 201.7 356C201.7 396.317 234.383 429 274.7 429Z" fill="#141414"/>
<path d="M274.7 407.5C303.143 407.5 326.2 384.443 326.2 356C326.2 327.557 303.143 304.5 274.7 304.5C246.258 304.5 223.2 327.557 223.2 356C223.2 384.443 246.258 407.5 274.7 407.5Z" fill="#1D1D1D"/>
<path d="M607.8 360C607.8 317.8 573.5 283.5 531.3 283.5C489.1 283.5 454.8 317.8 454.8 360C454.8 360.7 454.8 361.3 454.9 362C454.9 362.7 454.8 363.3 454.8 364C454.8 406.2 489.1 440.5 531.3 440.5C573.5 440.5 607.8 406.2 607.8 364C607.8 363.3 607.8 362.7 607.7 362C607.8 361.3 607.8 360.6 607.8 360Z" fill="#0F0F0F"/>
<path d="M531.3 429C571.617 429 604.3 396.317 604.3 356C604.3 315.683 571.617 283 531.3 283C490.983 283 458.3 315.683 458.3 356C458.3 396.317 490.983 429 531.3 429Z" fill="#141414"/>
<path d="M531.3 407.5C559.742 407.5 582.8 384.443 582.8 356C582.8 327.557 559.742 304.5 531.3 304.5C502.857 304.5 479.8 327.557 479.8 356C479.8 384.443 502.857 407.5 531.3 407.5Z" fill="#1D1D1D"/>
<path d="M534.8 128C534.4 124.8 531.5 122.4 528.3 122.4H403H277.7C274.5 122.4 271.6 124.7 271.2 128C271.1 128.7 271.1 129.4 271.1 130.1V257.5C271.1 266.4 278.3 273.6 287.2 273.6H403H518.8C527.7 273.6 534.9 266.4 534.9 257.5V130.1C535 129.4 534.9 128.7 534.8 128Z" fill="#141414"/>
<path d="M744.1 244.8C744.1 295.5 703 336.6 652.3 336.6C601.6 336.6 560.5 295.5 560.5 244.8C560.5 194.1 601.6 153 652.3 153C703 153 744.1 194.1 744.1 244.8Z" fill="#1D1D1D" stroke="#141414" stroke-width="5"/>
<path d="M246.5 244.8C246.5 296.052 204.952 337.6 153.7 337.6C102.448 337.6 60.9004 296.052 60.9004 244.8C60.9004 193.548 102.448 152 153.7 152C204.952 152 246.5 193.548 246.5 244.8Z" fill="#1D1D1D" stroke="#141414" stroke-width="3"/>
<path d="M230.4 254.1L239.9 245.2C240.4 244.7 240.4 244 239.9 243.5L230.4 234.6C229.7 233.9 228.5 234.4 228.5 235.4V244.3V253.2C228.4 254.2 229.6 254.7 230.4 254.1Z" fill="#E31E0B"/>
<path d="M145 169.8H153.9H162.8C163.8 169.8 164.3 168.6 163.6 167.9L154.7 158.4C154.2 157.9 153.5 157.9 153 158.4L144.1 167.9C143.5 168.6 144 169.8 145 169.8Z" fill="#E31E0B"/>
<path d="M77.5 234.6L68 243.5C67.5 244 67.5 244.7 68 245.2L77.5 254.1C78.2 254.8 79.4 254.3 79.4 253.3V244.4V235.5C79.4 234.4 78.2 233.9 77.5 234.6Z" fill="#E31E0B"/>
<path d="M162.8 318.8H153.9H145C144 318.8 143.5 320 144.2 320.7L153.1 330.2C153.6 330.7 154.3 330.7 154.8 330.2L163.7 320.7C164.3 320 163.8 318.8 162.8 318.8Z" fill="#E31E0B"/>
<path opacity="0.1" d="M105.2 544.5C64.7 541.7 29.4 524.2 17.9 514C6.4 503.7 0.400002 482.4 0.400002 482.4C1.51992e-06 497.4 0 508.7 0 508.7C0 508.7 4.5 562.1 36.2 583.6C67.9 605.1 92.9 597.6 92.9 597.6C92.9 597.6 126 589.4 150.7 555.7C155.2 549.5 160 541.2 164.8 531.9C164.7 531.9 145.6 547.2 105.2 544.5Z" fill="black"/>
<path opacity="0.1" d="M700.8 544.5C741.3 541.7 776.6 524.2 788.1 514C799.6 503.8 805.6 482.5 805.6 482.5C806 497.5 806 508.8 806 508.8C806 508.8 801.5 562.2 769.8 583.7C738.1 605.2 713.1 597.7 713.1 597.7C713.1 597.7 680 589.5 655.3 555.8C650.8 549.6 646 541.3 641.2 532C641.3 531.9 660.4 547.2 700.8 544.5Z" fill="black"/>
<path d="M240.5 143.5C247.4 143.5 253 149.1 253 156V174.3C253 181.2 247.4 186.8 240.5 186.8C233.6 186.8 228 181.2 228 174.3V156C228 149.1 233.6 143.5 240.5 143.5ZM240.5 141.8C232.7 141.8 226.3 148.2 226.3 156V174.3C226.3 182.1 232.7 188.5 240.5 188.5C248.3 188.5 254.7 182.1 254.7 174.3V156C254.7 148.1 248.3 141.8 240.5 141.8Z" fill="#141414"/>
<path d="M240.5 143.5C233.6 143.5 228 149.1 228 156V174.3C228 181.2 233.6 186.8 240.5 186.8C247.4 186.8 253 181.2 253 174.3V156C253 149.1 247.4 143.5 240.5 143.5Z" fill="#1D1D1D"/>
<path d="M565.5 143.5C572.4 143.5 578 149.1 578 156V174.3C578 181.2 572.4 186.8 565.5 186.8C558.6 186.8 553 181.2 553 174.3V156C553 149.1 558.6 143.5 565.5 143.5ZM565.5 141.8C557.7 141.8 551.3 148.2 551.3 156V174.3C551.3 182.1 557.7 188.5 565.5 188.5C573.3 188.5 579.7 182.1 579.7 174.3V156C579.7 148.1 573.3 141.8 565.5 141.8Z" fill="#141414"/>
<path d="M565.5 143.5C558.6 143.5 553 149.1 553 156V174.3C553 181.2 558.6 186.8 565.5 186.8C572.4 186.8 578 181.2 578 174.3V156C578 149.1 572.4 143.5 565.5 143.5Z" fill="#1D1D1D"/>
<path d="M141.2 247.2C142.6 245.2 142.4 244.3 142.4 244.3C142.4 244.3 142.6 243.4 141.2 241.4C139.8 239.4 126.2 227.8 125.5 227.4C124.8 227 97 225.2 94.1 228.7C91.2 232.2 91.5 244.3 91.5 244.3C91.5 244.3 91.2 256.4 94.1 259.9C97 263.4 124.8 261.6 125.5 261.2C126.2 260.8 139.8 249.2 141.2 247.2Z" fill="#E31E0B"/>
<path opacity="0.25" d="M141.2 247.2C142.6 245.2 142.4 244.3 142.4 244.3C142.4 244.3 142.6 243.4 141.2 241.4C140.3 240.1 134.3 234.8 130 231.1C127.9 235 126.6 239.5 126.6 244.3C126.6 249.1 127.8 253.6 130 257.5C134.3 253.8 140.3 248.5 141.2 247.2Z" fill="black"/>
<path d="M151 231.6C153 233 153.9 232.8 153.9 232.8C153.9 232.8 154.8 233 156.8 231.6C158.8 230.2 170.4 216.6 170.8 215.9C171.2 215.2 173 187.4 169.5 184.5C166 181.6 153.9 181.9 153.9 181.9C153.9 181.9 141.8 181.6 138.3 184.5C134.8 187.4 136.6 215.2 137 215.9C137.5 216.6 149 230.2 151 231.6Z" fill="#E31E0B"/>
<path opacity="0.25" d="M151 231.6C153 233 153.9 232.8 153.9 232.8C153.9 232.8 154.8 233 156.8 231.6C158.1 230.7 163.4 224.7 167.1 220.4C163.2 218.3 158.7 217 153.9 217C149.1 217 144.6 218.2 140.7 220.4C144.5 224.7 149.7 230.7 151 231.6Z" fill="black"/>
<path d="M213.701 228.8C210.801 225.3 183 227.1 182.3 227.5C181.6 227.9 168.001 239.5 166.601 241.5C165.201 243.5 165.401 244.4 165.401 244.4C165.401 244.4 165.201 245.3 166.601 247.3C168.001 249.3 181.6 260.9 182.3 261.3C183 261.7 210.801 263.5 213.701 260C216.601 256.5 216.3 244.4 216.3 244.4C216.3 244.4 216.601 232.3 213.701 228.8Z" fill="#E31E0B"/>
<path opacity="0.25" d="M177.9 231.2C173.6 234.9 167.6 240.2 166.7 241.5C165.3 243.5 165.5 244.4 165.5 244.4C165.5 244.4 165.3 245.3 166.7 247.3C167.6 248.6 173.6 253.9 177.9 257.6C180 253.7 181.3 249.2 181.3 244.4C181.3 239.6 180 235.1 177.9 231.2Z" fill="black"/>
<path d="M156.8 257.1C154.8 255.7 153.9 255.9 153.9 255.9C153.9 255.9 153 255.7 151 257.1C149 258.5 137.4 272.1 137 272.8C136.6 273.5 134.8 301.3 138.3 304.2C141.8 307.1 153.9 306.8 153.9 306.8C153.9 306.8 166 307.1 169.5 304.2C173 301.3 171.2 273.5 170.8 272.8C170.4 272 158.8 258.5 156.8 257.1Z" fill="#E31E0B"/>
<path opacity="0.25" d="M156.8 257.1C154.8 255.7 153.9 255.9 153.9 255.9C153.9 255.9 153 255.7 151 257.1C149.7 258 144.4 264 140.7 268.3C144.6 270.4 149.1 271.7 153.9 271.7C158.7 271.7 163.2 270.5 167.1 268.3C163.4 264 158.1 258 156.8 257.1Z" fill="black"/>
<path d="M436.6 421H368.7C365.9 421 364.1 421.6 364.1 418.8C364.1 416 366.4 413.8 369.1 413.8H437C439.8 413.8 442 416.1 442 418.8C442.1 421.5 439.4 421 436.6 421Z" fill="#1D1D1D"/>
<path d="M530.4 124.3C530.4 123.3 529.6 122.4 528.5 122.4H403H277.4C276.4 122.4 275.5 123.2 275.5 124.3V130.3V253.5C275.5 262.1 282.5 269.1 291.1 269.1H403H514.9C523.5 269.1 530.5 262.1 530.5 253.5V130.4L530.4 124.3Z" fill="#1D1D1D"/>
<path d="M404.759 354.581V349.928V344.112V333.309C404.759 332.478 404.925 331.98 405.258 331.647C405.424 331.315 405.922 331.149 406.421 331.315C407.418 331.648 407.917 332.478 407.917 334.14V345.607C409.246 346.272 410.409 346.438 411.407 346.438C412.404 346.438 413.401 346.106 414.066 345.607C415.727 344.444 416.558 342.45 416.558 339.458C416.558 336.301 415.894 333.808 414.564 332.312C413.235 330.65 411.074 329.155 407.75 327.991C405.59 327.327 403.596 326.662 401.768 326.163C399.94 325.665 398.444 325.332 396.948 325V345.275V349.762V352.587V356.742V359.235L404.759 361.727V355.745V354.581Z" fill="#D9D5DA"/>
<path d="M396.283 352.919L393.458 353.916L391.963 354.581L389.304 355.08L386.811 354.747C386.312 354.415 386.146 354.083 386.478 353.75C386.645 353.584 386.811 353.584 386.977 353.418C387.143 353.252 387.476 353.252 387.642 353.085L389.47 352.421L396.283 349.928V345.441L393.458 346.272L384.318 349.596L382.656 350.26C380.163 351.257 379 352.255 379 353.252C379.166 354.581 380.662 355.744 383.487 356.409C384.65 356.742 385.814 356.908 386.977 357.074C388.14 357.24 389.304 357.24 390.633 357.24C392.295 357.24 394.123 357.074 396.117 356.742V352.919H396.283Z" fill="#D9D5DA"/>
<path d="M422.541 349.097C421.046 348.598 419.716 348.266 418.387 348.1C417.057 347.934 415.561 347.767 414.232 347.934C412.736 347.934 411.074 348.266 409.579 348.432C408.249 348.765 406.753 349.097 405.258 349.762V354.415L411.739 352.088L414.398 351.257L416.226 350.759H418.553C419.051 350.925 419.55 351.091 419.716 351.423C419.716 351.756 419.384 352.088 418.387 352.421L416.06 353.252L405.258 357.24V361.727L411.074 359.567L421.71 355.744L422.874 355.08C425.366 354.249 426.53 353.085 426.53 351.922C426.53 350.925 425.2 349.928 422.541 349.097Z" fill="#D9D5DA"/>
<path d="M697.2 109.9C697.2 109.1 696.8 108.4 696.1 108C691.6 105.1 672.7 94.3999 644.6 94.3999C617.7 94.3999 603.5 100.3 599.5 102.4C598.7 102.8 598.3 103.6 598.3 104.4C598.3 104.4 608.1 101.5 645.8 101.5C683.5 101.5 697.2 109.9 697.2 109.9Z" fill="#E31E0B"/>
<path d="M697.1 116.8V109.9C697.1 109.9 683.4 101.5 645.7 101.5C607.9 101.5 598.2 104.4 598.2 104.4V115.4C605.9 114.1 619.4 112.8 642.3 112.8C670.8 112.9 688.2 115.2 697.1 116.8Z" fill="#961407"/>
<path d="M108.8 109.9C108.8 109.1 109.2 108.4 109.9 108C114.4 105.1 133.3 94.3999 161.4 94.3999C188.3 94.3999 202.5 100.3 206.5 102.4C207.3 102.8 207.7 103.6 207.7 104.4C207.7 104.4 197.9 101.5 160.2 101.5C122.5 101.5 108.8 109.9 108.8 109.9Z" fill="#E31E0B"/>
<path d="M108.899 116.8V109.9C108.899 109.9 122.599 101.5 160.299 101.5C198.099 101.5 207.799 104.4 207.799 104.4V115.4C200.099 114.1 186.599 112.8 163.699 112.8C135.199 112.9 117.799 115.2 108.899 116.8Z" fill="#961407"/>
<path d="M697.2 90.8C697.2 90.8 664.5 87.6 646.6 87.6C628.7 87.6 598.2 90 598.2 90C598.2 90 601.3 45.3 603 38C604.6 30.7 610.7 16.7 619.9 10.1C629.1 3.5 631.8 0 642.6 0C653.4 0 668 6.4 677.2 21.4C686.5 36.4 697.2 90.8 697.2 90.8Z" fill="#E31E0B"/>
<path d="M598.7 83.2001C598.7 83.2001 624.8 78.8 647.7 78.8C670.5 78.8 695.6 83.2001 695.6 83.2001C696.6 87.9001 697.2 90.8 697.2 90.8C697.2 90.8 664.5 87.6001 646.6 87.6001C628.7 87.6001 598.2 90.0001 598.2 90.0001C598.2 90.0001 598.4 87.3001 598.7 83.2001Z" fill="#961407"/>
<path d="M648.701 65.6999C646.601 67.3999 645.501 68.2999 645.501 68.2999C644.301 69.4999 643.601 70.9999 643.501 72.7999H653.301V70.1999H647.001C647.301 69.6999 648.001 68.9999 649.101 68.2999C650.501 67.3999 651.401 66.6999 651.801 66.1999C652.701 65.1999 653.101 64.0999 653.101 62.8999C653.101 61.4999 652.601 60.3999 651.701 59.5999C650.801 58.7999 649.601 58.3999 648.201 58.3999C645.101 58.3999 643.501 60.0999 643.501 63.3999H646.201C646.201 61.5999 646.901 60.6999 648.301 60.6999C649.601 60.6999 650.301 61.3999 650.301 62.7999C650.501 63.8999 649.901 64.7999 648.701 65.6999Z" fill="#D9D5DA"/>
<path d="M631.101 67.1999H634.101C635.601 67.1999 636.401 67.7999 636.501 69.0999C636.601 70.2999 636.701 71.5999 636.801 72.8999H640.101V72.4999C639.601 72.2999 639.401 71.7999 639.401 70.9999C639.401 70.7999 639.401 70.5999 639.501 70.1999V69.4999C639.501 67.7999 638.901 66.5999 637.701 65.9999C639.101 65.4999 639.901 64.3999 639.901 62.5999C639.901 61.2999 639.501 60.2999 638.601 59.5999C637.801 58.8999 636.701 58.5999 635.401 58.5999H628.101V72.8999H631.101V67.1999ZM631.101 60.9999H634.801C636.201 60.9999 636.901 61.5999 636.901 62.8999C636.901 64.1999 636.101 64.7999 634.601 64.7999H631.101V60.9999V60.9999Z" fill="#D9D5DA"/>
<path d="M108.8 90.8C108.8 90.8 141.5 87.6 159.4 87.6C177.3 87.6 207.7 90 207.7 90C207.7 90 204.6 45.3 202.9 38C201.3 30.7 195.2 16.7 186 10.1C176.9 3.4 174.2 0 163.4 0C152.6 0 138 6.4 128.8 21.4C119.6 36.4 108.8 90.8 108.8 90.8Z" fill="#E31E0B"/>
<path d="M207.3 83.2001C207.3 83.2001 181.2 78.8 158.3 78.8C135.5 78.8 110.4 83.2001 110.4 83.2001C109.4 87.9001 108.8 90.8 108.8 90.8C108.8 90.8 141.5 87.6001 159.4 87.6001C177.3 87.6001 207.7 90.0001 207.7 90.0001C207.7 90.0001 207.6 87.3001 207.3 83.2001Z" fill="#961407"/>
<path d="M547.6 134.6C547.6 136.7 546.1 138.4 543.5 138.4C540.9 138.4 539.4 136.7 539.4 134.6C539.4 132.6 540.9 130.8 543.5 130.8C546.1 130.8 547.6 132.5 547.6 134.6ZM540.9 134.6C540.9 136 541.7 137.3 543.5 137.3C545.3 137.3 546.1 135.9 546.1 134.6C546.1 133.2 545.3 131.9 543.5 131.9C541.7 131.9 540.9 133.2 540.9 134.6Z" fill="#D9D5DA"/>
<path d="M548.9 131H552.7C555.1 131 555.6 132.3 555.6 133.2C555.6 134.1 555.1 135.4 552.7 135.4H550.4V138.2H548.9V131ZM550.4 134.4H552.6C553.3 134.4 554.1 134.1 554.1 133.2C554.1 132.3 553.4 132 552.6 132H550.4V134.4Z" fill="#D9D5DA"/>
<path d="M556.101 131H563.001V132.1H560.301V138.2H558.801V132H556.101V131V131Z" fill="#D9D5DA"/>
<path d="M564.101 131H565.601V138.2H564.101V131Z" fill="#D9D5DA"/>
<path d="M575.1 134.6C575.1 136.7 573.6 138.4 571 138.4C568.4 138.4 566.9 136.7 566.9 134.6C566.9 132.6 568.4 130.8 571 130.8C573.6 130.8 575.1 132.5 575.1 134.6ZM568.4 134.6C568.4 136 569.2 137.3 571 137.3C572.8 137.3 573.6 135.9 573.6 134.6C573.6 133.2 572.8 131.9 571 131.9C569.2 131.9 568.4 133.2 568.4 134.6Z" fill="#D9D5DA"/>
<path d="M576.5 131H578.1L582 136.3V131H583.4V138.2H581.8L577.9 132.9V138.2H576.5V131Z" fill="#D9D5DA"/>
<path d="M586.2 135.8C586.2 136.9 587.2 137.3 588.4 137.3C589.7 137.3 590.2 136.7 590.2 136.2C590.2 135.6 589.8 135.4 589.5 135.3C588.9 135.1 588.1 135 586.9 134.7C585.4 134.4 585 133.6 585 132.9C585 131.4 586.6 130.8 588.1 130.8C589.9 130.8 591.4 131.6 591.4 133.1H589.9C589.8 132.2 589.1 131.8 588.1 131.8C587.4 131.8 586.5 132 586.5 132.7C586.5 133.2 586.9 133.5 587.5 133.6C587.6 133.6 589.5 134 590 134.2C591.1 134.5 591.7 135.3 591.7 136C591.7 137.6 590 138.3 588.3 138.3C586.3 138.3 584.8 137.5 584.7 135.7H586.2V135.8Z" fill="#D9D5DA"/>
<path d="M222.2 135.8C222.2 136.9 223.2 137.3 224.4 137.3C225.7 137.3 226.2 136.7 226.2 136.2C226.2 135.6 225.8 135.4 225.5 135.3C224.9 135.1 224.1 135 222.9 134.7C221.4 134.4 221 133.6 221 132.9C221 131.4 222.6 130.8 224.1 130.8C225.9 130.8 227.4 131.6 227.4 133.1H225.9C225.8 132.2 225.1 131.8 224.1 131.8C223.4 131.8 222.5 132 222.5 132.7C222.5 133.2 222.9 133.5 223.5 133.6C223.6 133.6 225.5 134 226 134.2C227.1 134.5 227.7 135.3 227.7 136C227.7 137.6 226 138.3 224.3 138.3C222.3 138.3 220.8 137.5 220.7 135.7H222.2V135.8Z" fill="#D9D5DA"/>
<path d="M228.9 131H230.4V133.9H234.3V131H235.8V138.2H234.3V135H230.4V138.2H228.9V131Z" fill="#D9D5DA"/>
<path d="M239.9 131H241.5L244.8 138.2H243.2L242.4 136.3H239L238.2 138.2H236.7L239.9 131ZM239.4 135.3H242L240.7 132.2L239.4 135.3Z" fill="#D9D5DA"/>
<path d="M245.601 131H249.701C251.601 131 252.501 131.7 252.501 132.9C252.501 134.3 251.401 134.6 251.101 134.7C251.601 134.8 252.401 135.1 252.401 136.2C252.401 137 252.501 137.8 252.901 138.1H251.301C251.101 137.8 251.101 137.4 251.101 137C251.101 135.7 250.801 135.1 249.401 135.1H247.201V138.1H245.701V131H245.601V131ZM247.101 134.2H249.601C250.601 134.2 251.101 133.8 251.101 133.1C251.101 132.2 250.401 132 249.601 132H247.201V134.2H247.101Z" fill="#D9D5DA"/>
<path d="M254.101 131H260.301V132.1H255.601V134H259.901V135H255.601V137.1H260.301V138.2H254.101V131Z" fill="#D9D5DA"/>
<path d="M173.301 65.6999C171.201 67.3999 170.101 68.2999 170.101 68.2999C168.901 69.4999 168.201 70.9999 168.101 72.7999H177.901V70.1999H171.701C172.001 69.6999 172.701 68.9999 173.801 68.2999C175.201 67.3999 176.101 66.6999 176.501 66.1999C177.401 65.1999 177.801 64.0999 177.801 62.8999C177.801 61.4999 177.301 60.3999 176.401 59.5999C175.501 58.7999 174.301 58.3999 172.901 58.3999C169.801 58.3999 168.201 60.0999 168.201 63.3999H170.901C170.901 61.5999 171.601 60.6999 173.001 60.6999C174.301 60.6999 175.001 61.3999 175.001 62.7999C175.101 63.8999 174.501 64.7999 173.301 65.6999Z" fill="#D9D5DA"/>
<path d="M164.8 70.2H157.8V58.5H154.7V72.8H164.8V70.2Z" fill="#D9D5DA"/>
</g>
<defs>
<clipPath id="clip0_605_1824">
<rect width="806" height="598.9" fill="white"/>
</clipPath>
</defs>
</svg>
