<svg width="99" height="23" viewBox="0 0 99 23" fill="none" xmlns="http://www.w3.org/2000/svg">
<g clip-path="url(#clip0_616_352)">
<path d="M0 15.5C0 14.7 0.400006 14 1.10001 13.6C5.60001 10.7 24.4 0 52.6 0C79.5 0 93.7 5.9 97.7 8C98.5 8.4 98.9 9.2 98.9 10C98.9 10 89.1 7.10001 51.4 7.10001C13.7 7.10001 0 15.5 0 15.5Z" fill="#F4F4F4"/>
<path d="M0 22.4001V15.5001C0 15.5001 13.7 7.1001 51.4 7.1001C89.2 7.1001 98.9 10.0001 98.9 10.0001V21.0001C91.2 19.7001 77.7 18.4001 54.8 18.4001C26.3 18.4001 8.9 20.7001 0 22.4001Z" fill="#D9D5DA"/>
</g>
<defs>
<clipPath id="clip0_616_352">
<rect width="98.9" height="22.4" fill="white"/>
</clipPath>
</defs>
</svg>
