<svg width="179" height="104" viewBox="0 0 179 104" fill="none" xmlns="http://www.w3.org/2000/svg">
<g clip-path="url(#clip0_616_233)">
<path d="M124.5 20.6C125.9 18.6 125.7 17.7 125.7 17.7C125.7 17.7 125.9 16.8 124.5 14.8C123.1 12.8 109.5 1.19997 108.8 0.799968C108.1 0.399968 80.2998 -1.39998 77.3998 2.10002C74.4998 5.60002 74.7998 17.7 74.7998 17.7C74.7998 17.7 74.4998 29.8 77.3998 33.3C80.2998 36.8 108.1 35 108.8 34.6C109.5 34.2 123.1 22.6 124.5 20.6Z" fill="#E31E0B"/>
<path opacity="0.25" d="M124.499 20.6C125.899 18.6 125.699 17.7 125.699 17.7C125.699 17.7 125.899 16.8 124.499 14.8C123.599 13.5 117.599 8.2 113.299 4.5C111.199 8.4 109.899 12.9 109.899 17.7C109.899 22.5 111.099 27 113.299 30.9C117.599 27.2 123.599 21.9 124.499 20.6Z" fill="black"/>
<path d="M52.2001 49.7C54.2001 51.1 55.1001 50.9 55.1001 50.9C55.1001 50.9 56.0001 51.1 58.0001 49.7C60.0001 48.3 71.6001 34.7 72.0001 34C72.4001 33.3 74.2001 5.50006 70.7001 2.60006C67.2001 -0.299939 55.1001 2.44118e-05 55.1001 2.44118e-05C55.1001 2.44118e-05 43.0001 -0.199939 39.5001 2.60006C36.0001 5.40006 37.8001 33.3 38.2001 34C38.6001 34.7 50.2001 48.3 52.2001 49.7Z" fill="#E31E0B"/>
<path opacity="0.25" d="M52.2004 49.7001C54.2004 51.1001 55.1004 50.9001 55.1004 50.9001C55.1004 50.9001 56.0004 51.1001 58.0004 49.7001C59.3004 48.8001 64.6004 42.8001 68.3004 38.5001C64.4004 36.4001 59.9004 35.1001 55.1004 35.1001C50.3004 35.1001 45.8004 36.3001 41.9004 38.5001C45.6004 42.8001 50.9004 48.8001 52.2004 49.7001Z" fill="black"/>
<path d="M175.9 2.20009C173 -1.29991 145.2 0.500099 144.5 0.900099C143.8 1.3001 130.2 12.9001 128.8 14.9001C127.4 16.9001 127.6 17.8001 127.6 17.8001C127.6 17.8001 127.4 18.7001 128.8 20.7001C130.2 22.7001 143.8 34.3001 144.5 34.7001C145.2 35.1001 173 36.9001 175.9 33.4001C178.8 29.9001 178.5 17.8001 178.5 17.8001C178.5 17.8001 178.8 5.70009 175.9 2.20009Z" fill="#E31E0B"/>
<path opacity="0.25" d="M140.099 4.6001C135.799 8.3001 129.799 13.6001 128.899 14.9001C127.499 16.9001 127.699 17.8 127.699 17.8C127.699 17.8 127.499 18.7001 128.899 20.7001C129.799 22.0001 135.799 27.3001 140.099 31.0001C142.199 27.1001 143.499 22.6 143.499 17.8C143.499 13 142.199 8.5001 140.099 4.6001Z" fill="black"/>
<path d="M20.5998 1.20012C18.5998 -0.199878 17.6998 0.000109375 17.6998 0.000109375C17.6998 0.000109375 16.7997 -0.199878 14.7997 1.20012C12.7997 2.60012 1.19974 16.2001 0.799741 16.9001C0.399741 17.6001 -1.40024 45.4001 2.09976 48.3001C5.59976 51.2001 17.6998 50.9001 17.6998 50.9001C17.6998 50.9001 29.7997 51.2001 33.2997 48.3001C36.7997 45.4001 34.9998 17.6001 34.5998 16.9001C34.1998 16.2001 22.5998 2.60012 20.5998 1.20012Z" fill="#E31E0B"/>
<path opacity="0.25" d="M20.6 1.20012C18.6 -0.199878 17.7 0.000109375 17.7 0.000109375C17.7 0.000109375 16.8 -0.199878 14.8 1.20012C13.5 2.10012 8.2 8.10013 4.5 12.4001C8.4 14.5001 12.9 15.8001 17.7 15.8001C22.5 15.8001 27 14.6001 30.9 12.4001C27.2 8.10013 21.9 2.10012 20.6 1.20012Z" fill="black"/>
<path d="M124.5 73.6C125.9 71.6 125.7 70.7 125.7 70.7C125.7 70.7 125.9 69.8 124.5 67.8C123.1 65.8 109.5 54.2 108.8 53.8C108.1 53.4 80.2998 51.6 77.3998 55.1C74.4998 58.6 74.7998 70.7 74.7998 70.7C74.7998 70.7 74.4998 82.8 77.3998 86.3C80.2998 89.8 108.1 88 108.8 87.6C109.5 87.2 123.1 75.6 124.5 73.6Z" fill="#D9D5DA"/>
<path opacity="0.25" d="M124.499 73.6C125.899 71.6 125.699 70.7 125.699 70.7C125.699 70.7 125.899 69.8 124.499 67.8C123.599 66.5 117.599 61.2 113.299 57.5C111.199 61.4 109.899 65.9 109.899 70.7C109.899 75.5 111.099 80 113.299 83.9C117.599 80.2 123.599 74.9 124.499 73.6Z" fill="black"/>
<path d="M52.2001 102.7C54.2001 104.1 55.1001 103.9 55.1001 103.9C55.1001 103.9 56.0001 104.1 58.0001 102.7C60.0001 101.3 71.6001 87.7 72.0001 87C72.4001 86.3 74.2001 58.5001 70.7001 55.6001C67.2001 52.7001 55.1001 53 55.1001 53C55.1001 53 43.0001 52.8001 39.5001 55.6001C36.0001 58.4001 37.8001 86.3 38.2001 87C38.6001 87.7 50.2001 101.3 52.2001 102.7Z" fill="#D9D5DA"/>
<path opacity="0.25" d="M52.2004 102.7C54.2004 104.1 55.1004 103.9 55.1004 103.9C55.1004 103.9 56.0004 104.1 58.0004 102.7C59.3004 101.8 64.6004 95.8001 68.3004 91.5001C64.4004 89.4001 59.9004 88.1001 55.1004 88.1001C50.3004 88.1001 45.8004 89.3001 41.9004 91.5001C45.6004 95.8001 50.9004 101.8 52.2004 102.7Z" fill="black"/>
<path d="M175.9 55.1C173 51.6 145.2 53.4 144.5 53.8C143.8 54.2 130.2 65.8 128.8 67.8C127.4 69.8 127.6 70.7 127.6 70.7C127.6 70.7 127.4 71.6 128.8 73.6C130.2 75.6 143.8 87.2 144.5 87.6C145.2 88 173 89.8 175.9 86.3C178.8 82.8 178.5 70.7 178.5 70.7C178.5 70.7 178.8 58.6 175.9 55.1Z" fill="#D9D5DA"/>
<path opacity="0.25" d="M140.099 57.6001C135.799 61.3001 129.799 66.6001 128.899 67.9001C127.499 69.9001 127.699 70.8 127.699 70.8C127.699 70.8 127.499 71.7001 128.899 73.7001C129.799 75.0001 135.799 80.3001 140.099 84.0001C142.199 80.1001 143.499 75.6 143.499 70.8C143.499 66 142.199 61.5001 140.099 57.6001Z" fill="black"/>
<path d="M20.5998 54.2001C18.5998 52.8001 17.6998 53.0001 17.6998 53.0001C17.6998 53.0001 16.7997 52.8001 14.7997 54.2001C12.7997 55.6001 1.19974 69.2001 0.799741 69.9001C0.399741 70.6001 -1.40024 98.4001 2.09976 101.3C5.59976 104.2 17.6998 103.9 17.6998 103.9C17.6998 103.9 29.7997 104.2 33.2997 101.3C36.7997 98.4001 34.9998 70.6001 34.5998 69.9001C34.1998 69.2001 22.5998 55.6001 20.5998 54.2001Z" fill="#D9D5DA"/>
<path opacity="0.25" d="M20.6 54.2001C18.6 52.8001 17.7 53.0001 17.7 53.0001C17.7 53.0001 16.8 52.8001 14.8 54.2001C13.5 55.1001 8.2 61.1001 4.5 65.4001C8.4 67.5001 12.9 68.8001 17.7 68.8001C22.5 68.8001 27 67.6001 30.9 65.4001C27.2 61.1001 21.9 55.1001 20.6 54.2001Z" fill="black"/>
</g>
<defs>
<clipPath id="clip0_616_233">
<rect width="178.5" height="104" fill="white"/>
</clipPath>
</defs>
</svg>
