<svg width="224" height="113" viewBox="0 0 224 113" fill="none" xmlns="http://www.w3.org/2000/svg">
<g clip-path="url(#clip0_616_309)">
<path d="M83.8 111.3C69.3 111.3 57.5 99.5001 57.5 85.0001C57.5 70.5001 69.3 58.8 83.8 58.8C98.3 58.8 110 70.6 110 85.1C110 99.6 98.2 111.3 83.8 111.3Z" fill="#F44041"/>
<path d="M83.8 59.8C97.7 59.8 109.1 71.1001 109.1 85.0001C109.1 98.9001 97.8 110.3 83.8 110.3C69.8 110.3 58.5 99 58.5 85.1C58.5 71.2 69.8 59.8 83.8 59.8ZM83.8 57.8C68.8 57.8 56.5 70.0001 56.5 85.0001C56.5 100 68.7 112.3 83.8 112.3C98.9 112.3 111 100.1 111 85.1C111 70.1 98.8 57.8 83.8 57.8Z" fill="#F44041"/>
<path d="M83.8004 66.2C73.4004 66.2 64.9004 74.6999 64.9004 85.0999C64.9004 95.4999 73.4004 104 83.8004 104C94.2004 104 102.7 95.4999 102.7 85.0999C102.6 74.5999 94.2004 66.2 83.8004 66.2ZM83.8004 101.1C74.9004 101.1 67.8004 93.8999 67.8004 85.0999C67.8004 76.1999 75.0004 69.0999 83.8004 69.0999C92.6004 69.0999 99.8004 76.2999 99.8004 85.0999C99.8004 93.8999 92.6004 101.1 83.8004 101.1Z" fill="#1D1D1D"/>
<path d="M27.2 111.3C12.8 111.3 1 99.6001 1 85.1001C1 70.6001 12.8 58.9001 27.3 58.9001C41.8 58.9001 53.6 70.7001 53.6 85.1001C53.6 99.5001 41.7 111.3 27.2 111.3Z" fill="#4D9DE7"/>
<path d="M27.3 59.8C41.2 59.8 52.6 71.1001 52.6 85.0001C52.6 98.9001 41.3 110.3 27.3 110.3C13.3 110.3 2 99 2 85.1C2 71.2 13.3 59.8 27.3 59.8ZM27.3 57.8C12.2 57.8 0 70.1 0 85.1C0 100.1 12.2 112.4 27.3 112.4C42.4 112.4 54.6 100.2 54.6 85.1C54.5 70.1 42.3 57.8 27.3 57.8Z" fill="#4D9DE7"/>
<path d="M41.6004 72.7L39.6004 70.7L27.3004 83.0999L14.9004 70.7L12.9004 72.7L25.2004 85.0999L12.9004 97.4L14.9004 99.5L27.3004 87.0999L39.6004 99.5L41.6004 97.4L29.3004 85.0999L41.6004 72.7Z" fill="#1D1D1D"/>
<path d="M140.3 111.3C125.8 111.3 114.1 99.5001 114.1 85.0001C114.1 70.5001 125.9 58.8 140.3 58.8C154.7 58.8 166.6 70.6001 166.6 85.0001C166.6 99.4001 154.7 111.3 140.3 111.3Z" fill="#FC6FCF"/>
<path d="M140.3 59.8C154.2 59.8 165.6 71.1001 165.6 85.0001C165.6 98.9001 154.3 110.3 140.3 110.3C126.3 110.3 115 99 115 85.1C115 71.2 126.3 59.8 140.3 59.8ZM140.3 57.8C125.3 57.8 113 70.0001 113 85.0001C113 100 125.2 112.3 140.3 112.3C155.4 112.3 167.6 100.1 167.6 85.0001C167.6 69.9001 155.3 57.8 140.3 57.8Z" fill="#FC6FCF"/>
<path d="M151.8 70.7H128.8H126V73.5V96.5V99.3H128.8H151.8H154.6V96.5V73.5V70.7H151.8ZM151.8 96.5999H128.8V73.5999H151.8V96.5999Z" fill="#1D1D1D"/>
<path d="M196.7 111.3C182.2 111.3 170.4 99.5001 170.4 85.0001C170.4 70.5001 182.2 58.8 196.7 58.8C211.2 58.8 223 70.6 223 85.1C223 99.6 211.2 111.3 196.7 111.3Z" fill="#1DC873"/>
<path d="M196.8 59.8C210.7 59.8 222.1 71.1001 222.1 85.0001C222.1 98.9001 210.8 110.3 196.8 110.3C182.8 110.3 171.5 99 171.5 85.1C171.5 71.2 182.8 59.8 196.8 59.8ZM196.8 57.8C181.8 57.8 169.5 70.0001 169.5 85.0001C169.5 100 181.7 112.3 196.8 112.3C211.9 112.3 224 100.1 224 85.1C224 70.1 211.8 57.8 196.8 57.8Z" fill="#1DC873"/>
<path d="M212.7 93.1L196.7 65.5L180.7 93.1L179.1 95.9H182.4H196.7H211H214.3L212.7 93.1ZM196.8 93.1H184.1L196.8 71.2L209.5 93.1H196.8Z" fill="#1D1D1D"/>
<path d="M83.8 53.5C69.3 53.5 57.5 41.7 57.5 27.2C57.5 12.7 69.3 1 83.8 1C98.3 1 110 12.8 110 27.2C110 41.6 98.2 53.5 83.8 53.5Z" fill="black"/>
<path d="M83.8 2C97.7 2 109 13.3 109 27.3C109 41.3 97.7 52.5 83.8 52.5C69.9 52.5 58.5 41.2 58.5 27.3C58.5 13.4 69.8 2 83.8 2ZM83.8 0C68.8 0 56.5 12.2 56.5 27.3C56.5 42.4 68.7 54.6 83.8 54.6C98.9 54.6 111 42.3 111 27.3C111 12.3 98.8 0 83.8 0Z" fill="black"/>
<path d="M83.8004 8.3999C73.4004 8.3999 64.9004 16.8999 64.9004 27.2999C64.9004 37.6999 73.4004 46.1999 83.8004 46.1999C94.2004 46.1999 102.7 37.6999 102.7 27.2999C102.6 16.7999 94.2004 8.3999 83.8004 8.3999ZM83.8004 43.2999C74.9004 43.2999 67.8004 36.0999 67.8004 27.2999C67.8004 18.3999 75.0004 11.2999 83.8004 11.2999C92.6004 11.2999 99.8004 18.4999 99.8004 27.2999C99.8004 36.0999 92.6004 43.2999 83.8004 43.2999Z" fill="#F44041"/>
<path d="M27.2 53.5C12.8 53.5 1 41.7 1 27.3C1 12.9 12.8 1 27.2 1C41.6 1 53.5 12.8 53.5 27.3C53.5 41.8 41.7 53.5 27.2 53.5Z" fill="black"/>
<path d="M27.3 2C41.2 2 52.6 13.3 52.6 27.3C52.6 41.3 41.2 52.5 27.3 52.5C13.4 52.5 2 41.2 2 27.3C2 13.4 13.3 2 27.3 2ZM27.3 0C12.2 0 0 12.2 0 27.3C0 42.3 12.2 54.6 27.3 54.6C42.4 54.6 54.6 42.4 54.6 27.3C54.5 12.2 42.3 0 27.3 0Z" fill="black"/>
<path d="M41.6004 14.8999L39.6004 12.8999L27.3004 25.1999L14.9004 12.8999L12.9004 14.8999L25.2004 27.1999L12.9004 39.5999L14.9004 41.5999L27.3004 29.2999L39.6004 41.5999L41.6004 39.5999L29.3004 27.1999L41.6004 14.8999Z" fill="#4D9DE7"/>
<path d="M140.3 54.2C125.8 54.2 114.1 42.4 114.1 28C114.1 13.6 125.9 1.69995 140.3 1.69995C154.7 1.69995 166.6 13.5 166.6 28C166.6 42.5 154.7 54.2 140.3 54.2Z" fill="black"/>
<path d="M140.3 2.69995C154.2 2.69995 165.6 14 165.6 28C165.6 42 154.3 53.2 140.3 53.2C126.3 53.2 115 41.9 115 27.9C115 13.9 126.3 2.69995 140.3 2.69995ZM140.3 0.699951C125.3 0.699951 113 12.9 113 28C113 43.1 125.2 55.2 140.3 55.2C155.4 55.2 167.6 43 167.6 28C167.6 13 155.3 0.699951 140.3 0.699951Z" fill="black"/>
<path d="M151.8 13.5H128.8H126V16.3V39.3V42.1H128.8H151.8H154.6V39.3V16.3V13.5C154.6 13.5 151.8 13.5 151.8 13.5ZM151.8 39.4H128.8V16.4H151.8V39.4Z" fill="#FC6FCF"/>
<path d="M196.7 54.8C182.2 54.8 170.4 43 170.4 28.5C170.4 14 182.2 2.19995 196.7 2.19995C211.2 2.19995 223 14.0999 223 28.5999C223 43.0999 211.2 54.8 196.7 54.8Z" fill="black"/>
<path d="M196.8 3.30005C210.7 3.30005 222.1 14.6 222.1 28.6C222.1 42.6 210.8 53.9001 196.8 53.9001C182.8 53.9001 171.5 42.6 171.5 28.6C171.5 14.6 182.8 3.30005 196.8 3.30005ZM196.8 1.30005C181.8 1.30005 169.5 13.5 169.5 28.6C169.5 43.7 181.7 55.9001 196.8 55.9001C211.9 55.9001 224 43.6 224 28.6C224 13.6 211.8 1.30005 196.8 1.30005Z" fill="black"/>
<path d="M212.7 36.6L196.7 9L180.7 36.6L179.1 39.4H182.4H196.7H211H214.3L212.7 36.6ZM196.8 36.6H184.1L196.8 14.7L209.5 36.6H196.8Z" fill="#1DC873"/>
</g>
<defs>
<clipPath id="clip0_616_309">
<rect width="224" height="112.3" fill="white"/>
</clipPath>
</defs>
</svg>
