<svg width="48" height="37" viewBox="0 0 48 37" fill="none" xmlns="http://www.w3.org/2000/svg">
<path d="M25.7591 29.5814V24.9281V19.1115V8.30936C25.7591 7.47843 25.9252 6.97986 26.2576 6.64749C26.4238 6.31511 26.9224 6.14896 27.4209 6.31515C28.4181 6.64752 28.9166 7.47843 28.9166 9.1403V20.6072C30.2461 21.272 31.4094 21.4381 32.4066 21.4381C33.4037 21.4381 34.4008 21.1058 35.0656 20.6072C36.7274 19.4439 37.5584 17.4497 37.5584 14.4583C37.5584 11.3008 36.8936 8.80791 35.5641 7.31223C34.2346 5.65036 32.0742 4.15471 28.7504 2.9914C26.59 2.32665 24.5957 1.66189 22.7677 1.16333C20.9396 0.664769 19.4439 0.332374 17.9482 0V20.2749V24.7619V27.5871V31.7418V34.2346L25.7591 36.7274V30.7446V29.5814Z" fill="#1D1D1D"/>
<path d="M17.2835 27.9193L14.4583 28.9164L12.9626 29.5812L10.3036 30.0798L7.81077 29.7474C7.31221 29.415 7.14605 29.0827 7.47842 28.7503C7.64461 28.5841 7.81078 28.5841 7.97697 28.4179C8.14315 28.2517 8.47552 28.2517 8.6417 28.0855L10.4698 27.4208L17.2835 24.9279V20.4409L14.4583 21.2719L5.31796 24.5956L3.65609 25.2603C1.16328 26.2575 0 27.2546 0 28.2517C0.166187 29.5812 1.66184 30.7445 4.48702 31.4092C5.65033 31.7416 6.81366 31.9078 7.97697 32.074C9.14028 32.2402 10.3036 32.2402 11.6331 32.2402C13.295 32.2402 15.123 32.074 17.1173 31.7416V27.9193H17.2835Z" fill="#1D1D1D"/>
<path d="M43.5413 24.0969C42.0456 23.5983 40.7161 23.2659 39.3866 23.0997C38.0571 22.9336 36.5614 22.7674 35.2319 22.9336C33.7362 22.9336 32.0744 23.2659 30.5787 23.4321C29.2492 23.7645 27.7535 24.0969 26.2578 24.7616V29.4149L32.7391 27.0883L35.3981 26.2573L37.2262 25.7587H39.5528C40.0514 25.9249 40.5499 26.0911 40.7161 26.4235C40.7161 26.7559 40.3837 27.0882 39.3866 27.4206L37.06 28.2516L26.2578 32.24V36.7271L32.0744 34.5667L42.7103 30.7444L43.8737 30.0796C46.3665 29.2487 47.5298 28.0854 47.5298 26.9221C47.5298 25.925 46.2003 24.9278 43.5413 24.0969Z" fill="#1D1D1D"/>
</svg>
