<svg width="286" height="94" viewBox="0 0 286 94" fill="none" xmlns="http://www.w3.org/2000/svg">
<path d="M47 92.5C21.9 92.5 1.5 72.1 1.5 47C1.5 21.9 21.9 1.5 47 1.5C72.1 1.5 92.5 21.9 92.5 47C92.5 72.1 72.1 92.5 47 92.5Z" fill="#E31E0B"/>
<path d="M47 3C71.3 3 91 22.7 91 47C91 71.3 71.3 91 47 91C22.7 91 3 71.3 3 47C3 22.7 22.7 3 47 3ZM47 0C21 0 0 21 0 47C0 73 21 94 47 94C73 94 94 73 94 47C94 21 73 0 47 0Z" fill="#961407"/>
<path d="M47.0002 74.2999C62.0776 74.2999 74.3002 62.0773 74.3002 46.9999C74.3002 31.9226 62.0776 19.7 47.0002 19.7C31.9228 19.7 19.7002 31.9226 19.7002 46.9999C19.7002 62.0773 31.9228 74.2999 47.0002 74.2999Z" fill="#961407"/>
<path d="M239 92.5C213.9 92.5 193.5 72.1 193.5 47C193.5 21.9 213.9 1.5 239 1.5C264.1 1.5 284.5 21.9 284.5 47C284.5 72.1 264.1 92.5 239 92.5Z" fill="#F4F4F4"/>
<path d="M239 3C263.3 3 283 22.7 283 47C283 71.3 263.3 91 239 91C214.7 91 195 71.3 195 47C195 22.7 214.7 3 239 3ZM239 0C213 0 192 21 192 47C192 73 213 94 239 94C265 94 286 73 286 47C286 21 265 0 239 0Z" fill="#D9D5DA"/>
<path d="M239 74.2999C254.078 74.2999 266.3 62.0773 266.3 46.9999C266.3 31.9226 254.078 19.7 239 19.7C223.923 19.7 211.7 31.9226 211.7 46.9999C211.7 62.0773 223.923 74.2999 239 74.2999Z" fill="#D9D5DA"/>
<path d="M225.134 38H233.565C237.446 38 239.387 39.8067 239.387 42.7509C239.387 46.1635 237.045 47.0334 236.442 47.2342V47.3011C237.513 47.435 239.052 48.2379 239.052 51.0483C239.052 53.1227 239.32 54.9963 239.989 55.7323H236.643C236.175 54.9963 236.175 53.9925 236.175 53.1226C236.175 49.9108 235.506 48.4386 232.628 48.4386H228.078V55.7323H225V38H225.134ZM228.212 46.0966H233.297C235.305 46.0966 236.309 45.1599 236.309 43.2863C236.309 41.0112 234.836 40.6097 233.23 40.6097H228.212V46.0966Z" fill="#6D6D6D"/>
<path d="M246.279 45.5613C248.153 45.6282 250.093 44.9591 250.093 42.8178C250.093 41.3457 248.956 40.342 247.417 40.342C245.476 40.342 244.473 42.0818 244.54 43.8885H241.729C241.863 40.5427 244.004 38 247.484 38C250.16 38 252.971 39.539 252.971 42.6171C252.971 44.3569 252.235 45.7621 250.495 46.2974V46.3643C252.502 46.7658 253.64 48.4387 253.64 50.7137C253.64 53.9926 250.763 56 247.484 56C243.469 56 241.461 53.5911 241.395 49.9777H244.205C244.138 52.052 245.276 53.658 247.484 53.658C249.357 53.658 250.829 52.5204 250.829 50.5799C250.829 47.9033 248.554 47.5688 246.279 47.6357V45.5613V45.5613Z" fill="#6D6D6D"/>
<path d="M143 92.5C117.9 92.5 97.5 72.1 97.5 47C97.5 21.9 117.9 1.5 143 1.5C168.1 1.5 188.5 21.9 188.5 47C188.5 72.1 168.1 92.5 143 92.5Z" fill="#F4F4F4"/>
<path d="M143 3C167.3 3 187 22.7 187 47C187 71.3 167.3 91 143 91C118.7 91 99 71.3 99 47C99 22.7 118.7 3 143 3ZM143 0C117 0 96 21 96 47C96 73 117 94 143 94C169 94 190 73 190 47C190 21 169 0 143 0Z" fill="#D9D5DA"/>
<path d="M143 74.2999C158.078 74.2999 170.3 62.0773 170.3 46.9999C170.3 31.9226 158.078 19.7 143 19.7C127.923 19.7 115.7 31.9226 115.7 46.9999C115.7 62.0773 127.923 74.2999 143 74.2999Z" fill="#D9D5DA"/>
<path d="M130 38H133.078V52.9889H142.045V55.6654H130V38Z" fill="#6D6D6D"/>
<path d="M147.933 45.5613C149.806 45.6282 151.747 44.9591 151.747 42.8178C151.747 41.3457 150.609 40.342 149.07 40.342C147.13 40.342 146.126 42.0818 146.193 43.8885H143.382C143.516 40.5427 145.658 38 149.137 38C151.814 38 154.624 39.539 154.624 42.6171C154.624 44.3569 153.888 45.7621 152.148 46.2974V46.3643C154.156 46.7658 155.293 48.4387 155.293 50.7137C155.293 53.9926 152.416 56 149.137 56C145.122 56 143.115 53.5911 143.048 49.9777H145.858C145.791 52.052 146.929 53.658 149.137 53.658C151.011 53.658 152.483 52.5204 152.483 50.5799C152.483 47.9033 150.208 47.5688 147.933 47.6357V45.5613Z" fill="#6D6D6D"/>
</svg>
