<svg width="286" height="94" viewBox="0 0 286 94" fill="none" xmlns="http://www.w3.org/2000/svg">
<path d="M47 92.5C21.9 92.5 1.5 72.1 1.5 47C1.5 21.9 21.9 1.5 47 1.5C72.1 1.5 92.5 21.9 92.5 47C92.5 72.1 72.1 92.5 47 92.5Z" fill="#E31E0B"/>
<path d="M47 3C71.3 3 91 22.7 91 47C91 71.3 71.3 91 47 91C22.7 91 3 71.3 3 47C3 22.7 22.7 3 47 3ZM47 0C21 0 0 21 0 47C0 73 21 94 47 94C73 94 94 73 94 47C94 21 73 0 47 0Z" fill="#961407"/>
<path d="M47.0002 74.2999C62.0776 74.2999 74.3002 62.0773 74.3002 46.9999C74.3002 31.9226 62.0776 19.7 47.0002 19.7C31.9228 19.7 19.7002 31.9226 19.7002 46.9999C19.7002 62.0773 31.9228 74.2999 47.0002 74.2999Z" fill="#961407"/>
<path d="M239 92.5C213.9 92.5 193.5 72.1 193.5 47C193.5 21.9 213.9 1.5 239 1.5C264.1 1.5 284.5 21.9 284.5 47C284.5 72.1 264.1 92.5 239 92.5Z" fill="#F4F4F4"/>
<path d="M239 3C263.3 3 283 22.7 283 47C283 71.3 263.3 91 239 91C214.7 91 195 71.3 195 47C195 22.7 214.7 3 239 3ZM239 0C213 0 192 21 192 47C192 73 213 94 239 94C265 94 286 73 286 47C286 21 265 0 239 0Z" fill="#D9D5DA"/>
<path d="M239 74.2999C254.078 74.2999 266.3 62.0773 266.3 46.9999C266.3 31.9226 254.078 19.7 239 19.7C223.923 19.7 211.7 31.9226 211.7 46.9999C211.7 62.0773 223.923 74.2999 239 74.2999Z" fill="#D9D5DA"/>
<path d="M143 92.5C117.9 92.5 97.5 72.1 97.5 47C97.5 21.9 117.9 1.5 143 1.5C168.1 1.5 188.5 21.9 188.5 47C188.5 72.1 168.1 92.5 143 92.5Z" fill="#F4F4F4"/>
<path d="M143 3C167.3 3 187 22.7 187 47C187 71.3 167.3 91 143 91C118.7 91 99 71.3 99 47C99 22.7 118.7 3 143 3ZM143 0C117 0 96 21 96 47C96 73 117 94 143 94C169 94 190 73 190 47C190 21 169 0 143 0Z" fill="#D9D5DA"/>
<path d="M143 74.2999C158.078 74.2999 170.3 62.0773 170.3 46.9999C170.3 31.9226 158.078 19.7 143 19.7C127.923 19.7 115.7 31.9226 115.7 46.9999C115.7 62.0773 127.923 74.2999 143 74.2999Z" fill="#D9D5DA"/>
</svg>
