<svg width="200" height="91" viewBox="0 0 200 91" fill="none" xmlns="http://www.w3.org/2000/svg">
<g clip-path="url(#clip0_616_216)">
<path d="M199.9 90.8C199.9 90.8 167.2 87.6 149.3 87.6C131.4 87.6 100.9 90 100.9 90C100.9 90 104 45.3 105.7 38C107.4 30.7 113.4 16.7 122.6 10.1C131.8 3.49998 134.6 0 145.4 0C156.2 0 170.8 6.39999 180 21.4C189.2 36.4 199.9 90.8 199.9 90.8Z" fill="#F4F4F4"/>
<path d="M101.4 83.2C101.4 83.2 127.5 78.8 150.4 78.8C173.2 78.8 198.3 83.2 198.3 83.2C199.3 87.9 199.9 90.8 199.9 90.8C199.9 90.8 167.2 87.6 149.3 87.6C131.4 87.6 100.9 90.0001 100.9 90.0001C100.9 90.0001 101.1 87.3 101.4 83.2Z" fill="#D9D5DA"/>
<path d="M152.4 65.6999C150.3 67.3999 149.2 68.2999 149.2 68.2999C148 69.4999 147.3 70.9999 147.2 72.7999H157V70.1999H150.8C151.1 69.6999 151.8 68.9999 152.9 68.2999C154.3 67.3999 155.2 66.6999 155.6 66.1999C156.5 65.1999 156.9 64.0999 156.9 62.8999C156.9 61.4999 156.4 60.3999 155.5 59.5999C154.6 58.7999 153.4 58.3999 152 58.3999C148.9 58.3999 147.3 60.0999 147.3 63.3999H150C150 61.5999 150.7 60.6999 152.1 60.6999C153.4 60.6999 154.1 61.3999 154.1 62.7999C154.2 63.8999 153.6 64.7999 152.4 65.6999Z" fill="#555555"/>
<path d="M133.9 67.1999H136.9C138.4 67.1999 139.2 67.7999 139.3 69.0999C139.4 70.2999 139.5 71.5999 139.6 72.8999H142.9V72.4999C142.4 72.2999 142.2 71.7999 142.2 70.9999C142.2 70.7999 142.2 70.5999 142.3 70.1999V69.4999C142.3 67.7999 141.7 66.5999 140.5 65.9999C141.9 65.4999 142.7 64.3999 142.7 62.5999C142.7 61.2999 142.3 60.2999 141.4 59.5999C140.6 58.8999 139.5 58.5999 138.2 58.5999H130.9V72.8999H133.9V67.1999ZM133.9 60.9999H137.6C139 60.9999 139.7 61.5999 139.7 62.8999C139.7 64.1999 138.9 64.7999 137.4 64.7999H133.9V60.9999Z" fill="#555555"/>
<path d="M0 90.8C0 90.8 32.7 87.6 50.6 87.6C68.5 87.6 98.9 90 98.9 90C98.9 90 95.8 45.3 94.1 38C92.4 30.7 86.4 16.7 77.2 10.1C68 3.49998 65.3 0 54.5 0C43.7 0 29.1 6.39999 19.9 21.4C10.7 36.4 0 90.8 0 90.8Z" fill="#F4F4F4"/>
<path d="M98.4004 83.2C98.4004 83.2 72.3004 78.8 49.4004 78.8C26.6004 78.8 1.5004 83.2 1.5004 83.2C0.500397 87.9 -0.0996094 90.8 -0.0996094 90.8C-0.0996094 90.8 32.6004 87.6 50.5004 87.6C68.4004 87.6 98.9004 90.0001 98.9004 90.0001C98.9004 90.0001 98.8004 87.3 98.4004 83.2Z" fill="#D9D5DA"/>
<path d="M64.5008 65.6999C62.4008 67.3999 61.3008 68.2999 61.3008 68.2999C60.1008 69.4999 59.4008 70.9999 59.3008 72.7999H69.0008V70.1999H62.8008C63.1008 69.6999 63.8008 68.9999 64.9008 68.2999C66.3008 67.3999 67.2008 66.6999 67.6008 66.1999C68.5008 65.1999 68.9008 64.0999 68.9008 62.8999C68.9008 61.4999 68.4008 60.3999 67.5008 59.5999C66.6008 58.7999 65.4008 58.3999 64.0008 58.3999C60.9008 58.3999 59.3008 60.0999 59.3008 63.3999H62.0008C62.0008 61.5999 62.7008 60.6999 64.1008 60.6999C65.4008 60.6999 66.1008 61.3999 66.1008 62.7999C66.2008 63.8999 65.7008 64.7999 64.5008 65.6999Z" fill="#555555"/>
<path d="M56.0004 70.2H48.9004V58.5H45.9004V72.8H56.0004V70.2Z" fill="#555555"/>
</g>
<defs>
<clipPath id="clip0_616_216">
<rect width="199.9" height="90.8" fill="white"/>
</clipPath>
</defs>
</svg>
