<svg width="1589" height="848" viewBox="0 0 1589 848" fill="none" xmlns="http://www.w3.org/2000/svg">
<g clip-path="url(#clip0_621_207)">
<path d="M199.031 6.86426V7.05176C88.3689 11.4065 0 102.478 0 214.208C0 328.716 92.8354 421.521 207.344 421.521C250.027 421.521 289.717 408.631 322.688 386.52C328.495 382.626 330.331 381.487 336.094 378.645C341.672 375.894 348.6 373.989 352.5 373.989H481.75H485.625H614.906C618.806 373.989 625.703 375.894 631.281 378.645C637.044 381.487 638.911 382.626 644.719 386.52C677.689 408.631 717.348 421.521 760.031 421.521C874.54 421.521 967.375 328.716 967.375 214.208C967.375 102.478 879.006 11.4065 768.344 7.05176V6.86426H760.031H485.625H481.75H207.344H199.031V6.86426Z" fill="#E31E0B"/>
<path d="M943.168 214.199C943.168 314.607 861.772 396.004 761.363 396.004C660.955 396.004 579.559 314.607 579.559 214.199C579.559 113.79 660.955 32.3936 761.363 32.3936C861.772 32.3936 943.168 113.79 943.168 214.199Z" fill="#1D1D1D"/>
<path d="M652.796 6.17242H693.116H727.051H763.782C763.782 6.17242 766.455 6.13412 767.791 6.17242C771.566 6.28068 775.338 6.51582 779.102 6.82172C782.567 7.10332 785.899 7.44551 789.474 7.91309C793.103 8.43202 796.095 8.70498 799.378 9.27759C802.01 9.73667 804.622 10.3072 807.219 10.9363C809.884 11.5823 812.543 12.3452 815.155 13.1073C817.307 13.735 819.405 14.3966 821.517 15.085C825.203 16.2869 829.453 17.7449 832.525 18.8425C834.229 19.4765 835.565 19.9854 837.474 20.7638C839.382 21.5422 841.853 22.5723 843.963 23.5393C846.148 24.5406 848.352 25.583 850.474 26.6473C852.472 27.6498 854.497 28.692 856.439 29.7359C857.377 30.2399 858.246 30.6965 859.158 31.1779C859.801 31.5177 860.443 31.876 861.086 32.2244C861.421 32.4059 862.091 32.7683 862.091 32.7683L862.75 27.3134C862.485 26.4993 861.74 25.9081 861.09 25.5811C859.962 24.8763 858.934 24.2629 857.856 23.6053C856.412 22.725 854.989 21.8086 853.521 20.9684C852.515 20.3921 851.493 19.8407 850.456 19.3204C849.226 18.7031 847.958 18.1643 846.715 17.5735C845.701 17.0915 844.745 16.6019 843.683 16.1068C842.62 15.6116 842.863 15.6428 840.337 14.6071C837.811 13.5713 831.9 11.4785 828.425 10.1658C825.752 9.22073 824.329 8.77806 822.522 8.14679C819.22 7.08795 816.371 6.44931 812.172 5.34515C809.632 4.67696 808.394 4.15899 805.531 3.66412C802.995 3.2259 801.032 2.77667 799.094 2.49969L796.681 2.13147C796.681 2.13147 794.908 1.85998 793.583 1.68652C792.258 1.51306 790.074 1.24452 788.728 1.11255C787.212 0.967909 786.148 0.814248 782.735 0.404358C779.322 -0.0055421 774.844 -0.301316 770.952 -0.625916C768.978 -0.791666 764.709 -0.999756 764.709 -0.999756H752.316H735.819H720.394H705.364H689.691H674.859H664.295H661.576L658.098 -0.686646L655.494 0.269165L653.747 1.60406L652.742 3.14502L652.796 6.17242Z" fill="#CC1706"/>
<path d="M314.593 6.17242H274.273H240.338H203.607C203.607 6.17242 200.934 6.13412 199.598 6.17242C195.823 6.28068 192.051 6.51582 188.287 6.82172C184.822 7.10332 181.49 7.44551 177.915 7.91309C174.285 8.43202 171.294 8.70498 168.011 9.27759C165.379 9.73667 162.766 10.3072 160.17 10.9363C157.504 11.5823 154.846 12.3452 152.234 13.1073C150.082 13.735 147.983 14.3966 145.872 15.085C142.186 16.2869 137.936 17.7449 134.863 18.8425C133.16 19.4765 131.824 19.9854 129.915 20.7638C128.007 21.5422 125.536 22.5723 123.426 23.5393C121.241 24.5406 119.037 25.583 116.915 26.6473C114.917 27.6498 112.892 28.692 110.949 29.7359C110.012 30.2399 109.143 30.6965 108.231 31.1779C107.588 31.5177 106.946 31.876 106.303 32.2244C105.968 32.4059 105.298 32.7683 105.298 32.7683L104.639 27.3134C104.904 26.4993 105.649 25.9081 106.299 25.5811C107.427 24.8763 108.455 24.2629 109.533 23.6053C110.977 22.725 112.4 21.8086 113.868 20.9684C114.874 20.3921 115.896 19.8407 116.933 19.3204C118.163 18.7031 119.431 18.1643 120.674 17.5735C121.688 17.0915 122.643 16.6019 123.706 16.1068C124.769 15.6116 124.526 15.6428 127.052 14.6071C129.578 13.5713 135.489 11.4785 138.964 10.1658C141.637 9.22073 143.06 8.77806 144.867 8.14679C148.168 7.08795 151.018 6.44931 155.217 5.34515C157.757 4.67696 158.995 4.15899 161.858 3.66412C164.394 3.2259 166.356 2.77667 168.295 2.49969L170.708 2.13147C170.708 2.13147 172.481 1.85998 173.806 1.68652C175.131 1.51306 177.315 1.24452 178.661 1.11255C180.177 0.967909 181.241 0.814248 184.654 0.404358C188.067 -0.0055421 192.545 -0.301316 196.437 -0.625916C198.411 -0.791666 202.68 -0.999756 202.68 -0.999756H215.073H231.57H246.995H262.025H277.698H292.53H303.094H305.813L309.291 -0.686646L311.895 0.269165L313.641 1.60406L314.647 3.14502L314.593 6.17242Z" fill="#CC1706"/>
<path d="M320.881 214.199C320.881 277.631 269.459 329.054 206.026 329.054C142.593 329.054 91.1709 277.631 91.1709 214.199C91.1709 150.766 142.593 99.3435 206.026 99.3435C269.459 99.3435 320.881 150.766 320.881 214.199V214.199Z" fill="#1D1D1D" stroke="#1D1D1D" stroke-width="1.11594"/>
<path d="M188.714 133.277C184.154 133.277 180.495 136.935 180.495 141.496V188.652H133.339C128.779 188.652 125.089 192.342 125.089 196.902V231.496C125.089 236.056 128.779 239.714 133.339 239.714H180.495V286.871C180.495 291.431 184.154 295.121 188.714 295.121H223.339C227.899 295.121 231.558 291.431 231.558 286.871V239.714H278.714C283.274 239.714 286.964 236.056 286.964 231.496V196.902C286.964 192.342 283.274 188.652 278.714 188.652H231.558V141.496C231.558 136.935 227.899 133.277 223.339 133.277H188.714V133.277Z" fill="#909090" stroke="#1D1D1D" stroke-width="3" stroke-linejoin="bevel"/>
<path d="M245.837 230.694L245.868 197.703L278.463 214.222L245.837 230.694Z" fill="#485053" stroke="#1A1C1B"/>
<path d="M166.215 230.694L166.184 197.703L133.589 214.222L166.215 230.694Z" fill="#485053" stroke="#1A1C1B"/>
<path d="M222.522 174.403L189.53 174.372L206.05 141.777L222.522 174.403Z" fill="#485053" stroke="#1A1C1B"/>
<path d="M222.522 253.994L189.53 254.025L206.05 286.621L222.522 253.994Z" fill="#485053" stroke="#1A1C1B"/>
<path d="M733.323 104.615L640.93 176.493C620.558 192.341 616.891 221.704 632.739 242.076C648.587 262.448 677.95 266.115 698.322 250.266L790.715 178.389C811.087 162.54 814.754 133.178 798.906 112.806C783.058 92.4338 753.695 88.7667 733.323 104.615Z" fill="#919191"/>
<path d="M798.796 141.572C798.796 161.922 782.299 178.419 761.949 178.419C741.599 178.419 725.102 161.922 725.102 141.572C725.102 121.222 741.599 104.725 761.949 104.725C782.299 104.725 798.796 121.222 798.796 141.572Z" fill="#005CC5" stroke="#1A1C1B"/>
<path d="M706.543 213.309C706.543 233.659 690.046 250.156 669.696 250.156C649.346 250.156 632.849 233.659 632.849 213.309C632.849 192.959 649.346 176.462 669.696 176.462C690.046 176.462 706.543 192.959 706.543 213.309Z" fill="#047902" stroke="#1A1C1B"/>
<path d="M825.056 175.358L732.662 247.236C712.29 263.084 708.623 292.447 724.471 312.819C740.32 333.191 769.682 336.858 790.054 321.009L882.448 249.131C902.82 233.283 906.487 203.921 890.638 183.549C874.79 163.177 845.428 159.51 825.056 175.358Z" fill="#919191"/>
<path d="M890.529 212.315C890.529 232.665 874.032 249.162 853.682 249.162C833.332 249.162 816.835 232.665 816.835 212.315C816.835 191.965 833.332 175.468 853.682 175.468C874.032 175.468 890.529 191.965 890.529 212.315Z" fill="#E82A3C" stroke="#1A1C1B"/>
<path d="M798.276 284.052C798.276 304.402 781.779 320.899 761.429 320.899C741.079 320.899 724.582 304.402 724.582 284.052C724.582 263.702 741.079 247.205 761.429 247.205C781.779 247.205 798.276 263.702 798.276 284.052Z" fill="#FFAE31" stroke="#1A1C1B"/>
<path d="M509.64 216.379L468.973 246.971C462.217 252.053 460.86 261.651 465.942 268.407C471.025 275.164 480.622 276.521 487.379 271.439L528.046 240.847C534.803 235.764 536.16 226.166 531.077 219.41C525.995 212.653 516.397 211.296 509.64 216.379Z" fill="#1D1D1D"/>
<path d="M404.36 216.379L363.693 246.971C356.936 252.053 355.579 261.651 360.662 268.407C365.745 275.164 375.342 276.521 382.099 271.438L422.766 240.847C429.523 235.764 430.88 226.166 425.797 219.41C420.714 212.653 411.117 211.296 404.36 216.379Z" fill="#1D1D1D"/>
<path d="M363.806 319.588C363.734 319.939 363.566 320.226 363.301 320.448C363.043 320.67 362.739 320.781 362.388 320.781H358.156C357.805 320.781 357.536 320.67 357.35 320.448C357.171 320.226 357.117 319.939 357.189 319.588L358.048 315.324H359.541L358.714 319.459H362.345L363.14 315.453L359.627 309.845C359.377 309.459 359.298 309.032 359.391 308.567L360.079 305.162C360.15 304.811 360.318 304.524 360.583 304.302C360.856 304.08 361.167 303.969 361.518 303.969H365.75C366.101 303.969 366.363 304.08 366.535 304.302C366.714 304.524 366.767 304.811 366.696 305.162L365.912 309.072H364.418L365.17 305.291H361.539L360.83 308.835L364.375 314.443C364.612 314.815 364.683 315.234 364.59 315.7L363.806 319.588" fill="#1D1D1D"/>
<path d="M363.806 319.588C363.734 319.939 363.566 320.226 363.301 320.448C363.043 320.67 362.739 320.781 362.388 320.781H358.156C357.805 320.781 357.536 320.67 357.35 320.448C357.171 320.226 357.117 319.939 357.189 319.588L358.048 315.324H359.541L358.714 319.459H362.345L363.14 315.453L359.627 309.845C359.377 309.459 359.298 309.032 359.391 308.567L360.079 305.162C360.15 304.811 360.318 304.524 360.583 304.302C360.856 304.08 361.167 303.969 361.518 303.969H365.75C366.101 303.969 366.363 304.08 366.535 304.302C366.714 304.524 366.767 304.811 366.696 305.162L365.912 309.072H364.418L365.17 305.291H361.539L360.83 308.835L364.375 314.443C364.612 314.815 364.683 315.234 364.59 315.7L363.806 319.588" stroke="#1D1D1D"/>
<path d="M376.03 320.781H370.509L373.871 303.969H379.328L379.06 305.291H375.096L373.85 311.564H377.459L377.19 312.907H373.581L372.271 319.459H376.299L376.03 320.781" fill="#1D1D1D"/>
<path d="M376.03 320.781H370.509L373.871 303.969H379.328L379.06 305.291H375.096L373.85 311.564H377.459L377.19 312.907H373.581L372.271 319.459H376.299L376.03 320.781" stroke="#1D1D1D"/>
<path d="M388.04 320.781H382.669L386.031 303.969H387.524L384.431 319.459H388.309L388.04 320.781" fill="#1D1D1D"/>
<path d="M388.04 320.781H382.669L386.031 303.969H387.524L384.431 319.459H388.309L388.04 320.781" stroke="#1D1D1D"/>
<path d="M399.921 320.781H394.399L397.762 303.969H403.219L402.95 305.291H398.986L397.74 311.564H401.35L401.081 312.907H397.472L396.161 319.459H400.189L399.921 320.781" fill="#1D1D1D"/>
<path d="M399.921 320.781H394.399L397.762 303.969H403.219L402.95 305.291H398.986L397.74 311.564H401.35L401.081 312.907H397.472L396.161 319.459H400.189L399.921 320.781" stroke="#1D1D1D"/>
<path d="M413.532 319.588C413.46 319.939 413.288 320.226 413.016 320.448C412.744 320.67 412.432 320.781 412.081 320.781H407.752C407.401 320.781 407.136 320.67 406.957 320.448C406.778 320.226 406.725 319.939 406.796 319.588L409.686 305.162C409.758 304.811 409.926 304.524 410.191 304.302C410.456 304.08 410.764 303.969 411.115 303.969H415.444C415.795 303.969 416.063 304.08 416.249 304.302C416.436 304.524 416.493 304.811 416.421 305.162L415.637 309.072H414.133L414.885 305.291H411.147L408.322 319.459H412.06L412.887 315.324H414.391L413.532 319.588Z" fill="#1D1D1D" stroke="#1D1D1D"/>
<path d="M429.107 305.291H426.508L423.414 320.781H421.921L425.015 305.291H422.394L422.662 303.969H429.376L429.107 305.291" fill="#1D1D1D"/>
<path d="M429.107 305.291H426.508L423.414 320.781H421.921L425.015 305.291H422.394L422.662 303.969H429.376L429.107 305.291" stroke="#1D1D1D"/>
<path d="M474.608 319.588C474.536 319.939 474.368 320.226 474.103 320.448C473.845 320.67 473.541 320.781 473.19 320.781H468.957C468.607 320.781 468.338 320.67 468.152 320.448C467.973 320.226 467.919 319.939 467.991 319.588L468.85 315.324H470.343L469.516 319.459H473.147L473.942 315.453L470.429 309.845C470.178 309.459 470.1 309.032 470.193 308.567L470.88 305.162C470.952 304.811 471.12 304.524 471.385 304.302C471.657 304.08 471.969 303.969 472.32 303.969H476.552C476.903 303.969 477.164 304.08 477.336 304.302C477.515 304.524 477.569 304.811 477.497 305.162L476.713 309.072H475.22L475.972 305.291H472.341L471.632 308.835L475.177 314.443C475.413 314.815 475.485 315.234 475.392 315.7L474.608 319.588" fill="#1D1D1D"/>
<path d="M474.608 319.588C474.536 319.939 474.368 320.226 474.103 320.448C473.845 320.67 473.541 320.781 473.19 320.781H468.957C468.607 320.781 468.338 320.67 468.152 320.448C467.973 320.226 467.919 319.939 467.991 319.588L468.85 315.324H470.343L469.516 319.459H473.147L473.942 315.453L470.429 309.845C470.178 309.459 470.1 309.032 470.193 308.567L470.88 305.162C470.952 304.811 471.12 304.524 471.385 304.302C471.657 304.08 471.969 303.969 472.32 303.969H476.552C476.903 303.969 477.164 304.08 477.336 304.302C477.515 304.524 477.569 304.811 477.497 305.162L476.713 309.072H475.22L475.972 305.291H472.341L471.632 308.835L475.177 314.443C475.413 314.815 475.485 315.234 475.392 315.7L474.608 319.588" stroke="#1D1D1D"/>
<path d="M490.194 305.291H487.595L484.501 320.781H483.008L486.102 305.291H483.48L483.749 303.969H490.463L490.194 305.291Z" fill="#1D1D1D" stroke="#1D1D1D"/>
<path d="M499.948 320.781H498.466L498.627 317.042H495.286L493.943 320.781H492.504L492.515 320.738L498.874 303.926H500.346L499.948 320.781L499.948 320.781ZM498.691 315.721L499.046 306.612L495.737 315.721H498.691Z" fill="#1D1D1D" stroke="#1D1D1D"/>
<path d="M513.43 320.781H511.861L510.54 311.779L510.798 311.478H513.462L514.697 305.291H510.862L507.769 320.781H506.275L509.638 303.969H515.267C515.617 303.969 515.883 304.08 516.062 304.302C516.241 304.524 516.294 304.811 516.223 305.162L514.944 311.542C514.78 312.352 514.153 312.756 513.064 312.756C512.957 312.756 512.799 312.752 512.592 312.746C512.391 312.731 512.244 312.724 512.151 312.724C512.581 315.403 513.007 318.088 513.43 320.781" fill="#1D1D1D"/>
<path d="M513.43 320.781H511.861L510.54 311.779L510.798 311.478H513.462L514.697 305.291H510.862L507.769 320.781H506.275L509.638 303.969H515.267C515.617 303.969 515.883 304.08 516.062 304.302C516.241 304.524 516.294 304.811 516.223 305.162L514.944 311.542C514.78 312.352 514.153 312.756 513.064 312.756C512.957 312.756 512.799 312.752 512.592 312.746C512.391 312.731 512.244 312.724 512.151 312.724C512.581 315.403 513.007 318.088 513.43 320.781" stroke="#1D1D1D"/>
<path d="M528.866 305.291H526.267L523.173 320.781H521.68L524.773 305.291H522.152L522.421 303.969H529.135L528.866 305.291" fill="#1D1D1D"/>
<path d="M528.866 305.291H526.267L523.173 320.781H521.68L524.773 305.291H522.152L522.421 303.969H529.135L528.866 305.291" stroke="#1D1D1D"/>
<path d="M298 78.0923C298 74.5309 303.701 71.6417 310.734 71.6417C317.779 71.6417 323.48 74.5309 323.48 78.0923C323.48 81.6651 317.779 84.5437 310.734 84.5437C303.701 84.5437 298 81.6651 298 78.0923" fill="#1D1D1D"/>
<path d="M321.542 90.0316C321.542 86.2907 327.534 83.2555 334.926 83.2555C342.317 83.2555 348.321 86.2907 348.321 90.0316C348.321 93.7722 342.317 96.8076 334.926 96.8076C327.534 96.8076 321.542 93.7722 321.542 90.0316Z" fill="#1D1D1D"/>
<path d="M327.03 75.1807C333.481 74.9343 338.644 69.6146 338.644 63.0955C338.644 56.4207 333.223 51.0001 326.548 51.0001C319.917 51.0001 314.531 56.3309 314.452 62.9504C314.609 62.9393 314.766 62.9393 314.934 62.9393C321.609 62.9393 327.03 68.3485 327.03 75.0347V75.1807" fill="#1D1D1D"/>
<path d="M350.561 87.1309C356.844 86.8841 361.861 81.7098 361.861 75.3597C361.861 68.8525 356.597 63.5774 350.09 63.5774C343.639 63.5774 338.397 68.7746 338.319 75.2142C338.476 75.2027 338.632 75.2027 338.789 75.2027C345.286 75.2027 350.561 80.4778 350.561 86.9854V87.1309Z" fill="#1D1D1D"/>
<path d="M616.843 241.724L611.905 251.615C611.332 252.604 610.504 254.255 609.421 256.568L607.53 266.036H605.358L607.249 256.568C607.259 255.776 607.202 254.943 607.077 254.068C606.879 252.568 606.775 251.75 606.765 251.615L605.765 241.724C605.765 241.713 605.775 241.667 605.796 241.583H607.999L608.905 253.818L614.686 241.583H616.874C616.864 241.656 616.853 241.703 616.843 241.724Z" fill="#D9D5DA" stroke="#D9D5DA"/>
<path d="M823.417 111.56H821.183L819.933 101.513L814.651 111.56H812.479C812.49 111.487 812.5 111.445 812.511 111.435L819.339 99.0444C818.172 91.1278 817.599 87.1486 817.62 87.1069H819.901L820.979 96.3882L825.886 87.1069H828.058C828.047 87.1798 828.037 87.2268 828.026 87.2476L821.636 98.9194C822.854 107.305 823.448 111.518 823.417 111.56Z" fill="#D9D5DA" stroke="#D9D5DA"/>
<path d="M706.244 339.556C706.14 340.067 705.895 340.483 705.51 340.806C705.124 341.129 704.676 341.291 704.166 341.291H696.104L700.994 316.837H708.994C709.505 316.837 709.89 316.999 710.15 317.322C710.411 317.645 710.489 318.061 710.385 318.572L708.932 325.837C708.796 326.483 708.395 327.025 707.729 327.462C707.083 327.806 706.442 328.15 705.807 328.494L707.416 329.681C707.885 330.014 708.051 330.535 707.916 331.244L706.244 339.556ZM706.682 326.119L708.15 318.759H702.775L701.01 327.587H704.213L706.682 326.119ZM704.104 339.369L705.791 330.916L703.869 329.478H700.635L698.666 339.369H704.104Z" fill="#D9D5DA" stroke="#D9D5DA"/>
<path d="M916.79 184.424H914.634L914.868 178.986H910.009L908.056 184.424H905.962L905.978 184.361L915.228 159.908H917.368L916.79 184.424V184.424ZM914.962 177.064L915.478 163.814L910.665 177.064H914.962Z" fill="#D9D5DA" stroke="#D9D5DA"/>
<path d="M1177.33 6.17242H1137.01H1103.07H1066.34C1066.34 6.17242 1063.67 6.13412 1062.33 6.17242C1058.56 6.28068 1054.79 6.51582 1051.02 6.82172C1047.56 7.10332 1044.23 7.44551 1040.65 7.91309C1037.02 8.43202 1034.03 8.70498 1030.75 9.27759C1028.12 9.73667 1025.5 10.3072 1022.91 10.9363C1020.24 11.5823 1017.58 12.3452 1014.97 13.1073C1012.82 13.735 1010.72 14.3966 1008.61 15.085C1004.92 16.2869 1000.67 17.7449 997.6 18.8425C995.896 19.4765 994.56 19.9854 992.652 20.7638C990.743 21.5422 988.273 22.5723 986.162 23.5393C983.978 24.5406 981.773 25.583 979.652 26.6473C977.653 27.6498 975.628 28.692 973.686 29.7359C972.748 30.2399 971.879 30.6965 970.968 31.1779C970.325 31.5177 969.682 31.876 969.039 32.2244C968.704 32.4059 968.034 32.7683 968.034 32.7683L967.375 27.3134C967.641 26.4993 968.385 25.9081 969.036 25.5811C970.164 24.8763 971.191 24.2629 972.27 23.6053C973.713 22.725 975.136 21.8086 976.604 20.9684C977.611 20.3921 978.632 19.8407 979.669 19.3204C980.899 18.7031 982.167 18.1643 983.41 17.5735C984.424 17.0915 985.38 16.6019 986.443 16.1068C987.505 15.6116 987.262 15.6428 989.788 14.6071C992.314 13.5713 998.225 11.4785 1001.7 10.1658C1004.37 9.22073 1005.8 8.77806 1007.6 8.14679C1010.9 7.08795 1013.75 6.44931 1017.95 5.34515C1020.49 4.67696 1021.73 4.15899 1024.59 3.66412C1027.13 3.2259 1029.09 2.77667 1031.03 2.49969L1033.44 2.13147C1033.44 2.13147 1035.22 1.85998 1036.54 1.68652C1037.87 1.51306 1040.05 1.24452 1041.4 1.11255C1042.91 0.967909 1043.98 0.814248 1047.39 0.404358C1050.8 -0.0055421 1055.28 -0.301316 1059.17 -0.625916C1061.15 -0.791666 1065.42 -0.999756 1065.42 -0.999756H1077.81H1094.31H1109.73H1124.76H1140.43H1155.27H1165.83H1168.55L1172.03 -0.686646L1174.63 0.269165L1176.38 1.60406L1177.38 3.14502L1177.33 6.17242Z" fill="#D9D5DA"/>
<path d="M1224.17 2.08902L1183.5 32.6809C1176.75 37.7635 1175.39 47.3611 1180.47 54.1177C1185.56 60.8744 1195.15 62.2313 1201.91 57.1487L1242.58 26.5568C1249.33 21.4742 1250.69 11.8767 1245.61 5.12006C1240.52 -1.63655 1230.93 -2.99362 1224.17 2.08902Z" fill="#D9D5DA"/>
<path opacity="0.99" d="M1322.89 36.347C1322.89 56.697 1306.39 73.1939 1286.04 73.1939C1265.69 73.1939 1249.2 56.697 1249.2 36.347C1249.2 15.9969 1265.69 -0.5 1286.04 -0.5C1306.39 -0.5 1322.89 15.9969 1322.89 36.347Z" fill="#D9D5DA" stroke="#D9D5DA"/>
<path d="M1356.88 32.1264L1323.89 32.0954L1340.41 -0.5L1356.88 32.1264Z" fill="#D9D5DA" stroke="#D9D5DA"/>
<path d="M1472.78 -0.441895C1409.35 -0.441895 1357.94 50.9691 1357.94 114.402C1357.94 177.835 1409.35 229.246 1472.78 229.246C1536.22 229.246 1587.66 177.835 1587.66 114.402C1587.66 50.9691 1536.22 -0.441895 1472.78 -0.441895ZM1472.81 41.9644L1489.28 74.5894L1456.28 74.5582L1472.81 41.9644V41.9644ZM1432.94 97.9019L1432.97 130.902L1400.35 114.433L1432.94 97.9019H1432.94ZM1512.63 97.9019L1545.22 114.433L1512.6 130.902L1512.63 97.9019H1512.63ZM1489.28 154.183L1472.81 186.808L1456.28 154.214L1489.28 154.183V154.183Z" fill="#1D1D1D" stroke="#747B81" stroke-width="1.11594"/>
<path d="M1455.47 33.4644C1450.91 33.4644 1447.25 37.1229 1447.25 41.6831V88.8394H1400.1C1395.54 88.8394 1391.85 92.5292 1391.85 97.0894V131.683C1391.85 136.243 1395.54 139.902 1400.1 139.902H1447.25V187.058C1447.25 191.618 1450.91 195.308 1455.47 195.308H1490.1C1494.66 195.308 1498.31 191.618 1498.31 187.058V139.902H1545.47C1550.03 139.902 1553.72 136.243 1553.72 131.683V97.0894C1553.72 92.5292 1550.03 88.8394 1545.47 88.8394H1498.31V41.6831C1498.31 37.1229 1494.66 33.4644 1490.1 33.4644H1455.47ZM1472.81 41.9644L1489.28 74.5894L1456.28 74.5582L1472.81 41.9644V41.9644ZM1432.94 97.9019L1432.97 130.902L1400.35 114.433L1432.94 97.9019H1432.94ZM1512.63 97.9019L1545.22 114.433L1512.6 130.902L1512.63 97.9019H1512.63ZM1489.28 154.183L1472.81 186.808L1456.28 154.214L1489.28 154.183V154.183Z" fill="#909090" stroke="#1A1C1B" stroke-width="3" stroke-linejoin="bevel"/>
<path d="M418.453 56.7266C418.453 57.8516 418.25 59 417.844 60.1719C417.453 61.3281 416.914 62.4766 416.227 63.6172C415.539 64.7422 414.734 65.8281 413.812 66.875C412.891 67.9219 411.914 68.8906 410.883 69.7812C409.852 70.6719 408.781 71.4688 407.672 72.1719C406.562 72.8594 405.484 73.4062 404.438 73.8125C404.266 73.5625 404.047 73.2656 403.781 72.9219C403.531 72.5625 403.258 72.1953 402.961 71.8203C402.664 71.4297 402.359 71.0469 402.047 70.6719C401.75 70.2812 401.461 69.9219 401.18 69.5938C403.414 68.7188 405.414 67.6797 407.18 66.4766C408.961 65.2734 410.469 64.0156 411.703 62.7031C412.953 61.375 413.906 60.0391 414.562 58.6953C415.234 57.3359 415.57 56.0703 415.57 54.8984C415.57 54.7422 415.547 54.5781 415.5 54.4062C415.453 54.2344 415.375 54.0859 415.266 53.9609C415.156 53.8359 415.008 53.75 414.82 53.7031C414.648 53.6406 414.438 53.6406 414.188 53.7031C413.453 53.8594 412.641 54.1484 411.75 54.5703C410.875 54.9922 409.945 55.5234 408.961 56.1641C407.992 56.7891 406.977 57.5156 405.914 58.3438C404.867 59.1719 403.805 60.0625 402.727 61.0156C402.148 62.8281 401.484 64.75 400.734 66.7812C399.984 68.7969 399.172 70.8125 398.297 72.8281C397.422 74.8281 396.5 76.7734 395.531 78.6641C394.578 80.5547 393.602 82.2891 392.602 83.8672C391.617 85.4297 390.625 86.7812 389.625 87.9219C388.641 89.0781 387.688 89.9062 386.766 90.4062C386.531 90.5312 386.242 90.6484 385.898 90.7578C385.57 90.8672 385.156 90.9453 384.656 90.9922C384.469 91.0078 384.25 90.9297 384 90.7578C383.734 90.5859 383.469 90.3672 383.203 90.1016C382.938 89.8359 382.672 89.5391 382.406 89.2109C382.141 88.8828 381.898 88.5703 381.68 88.2734C381.445 87.9766 381.258 87.7109 381.117 87.4766C380.961 87.2422 380.859 87.0859 380.812 87.0078C380.688 86.7734 380.625 86.4922 380.625 86.1641C380.609 85.8516 380.641 85.5391 380.719 85.2266C381.031 84.1797 381.469 83.0312 382.031 81.7812C382.594 80.5312 383.258 79.2266 384.023 77.8672C384.773 76.4922 385.609 75.0859 386.531 73.6484C387.469 72.1953 388.469 70.7578 389.531 69.3359C390.609 67.8984 391.734 66.4844 392.906 65.0938C394.094 63.7031 395.312 62.375 396.562 61.1094C397.359 58.625 398.016 56.2734 398.531 54.0547C399.047 51.8359 399.352 49.9062 399.445 48.2656C400.07 48.5156 400.664 48.8359 401.227 49.2266C401.789 49.6172 402.297 50.0234 402.75 50.4453C403.203 50.8672 403.602 51.2891 403.945 51.7109C404.289 52.1328 404.562 52.5078 404.766 52.8359C404.734 53.1016 404.695 53.375 404.648 53.6562C404.602 53.9219 404.539 54.2109 404.461 54.5234C406.039 53.5078 407.586 52.7188 409.102 52.1562C410.633 51.5781 412.117 51.2891 413.555 51.2891C413.852 51.2891 414.172 51.3828 414.516 51.5703C414.875 51.7578 415.234 52.0078 415.594 52.3203C415.953 52.6172 416.297 52.9531 416.625 53.3281C416.969 53.7031 417.273 54.0859 417.539 54.4766C417.805 54.8516 418.016 55.2109 418.172 55.5547C418.344 55.8828 418.438 56.1562 418.453 56.375V56.7266ZM384.516 86.1875C384.875 86.1875 385.359 85.7891 385.969 84.9922C386.578 84.1953 387.258 83.1094 388.008 81.7344C388.773 80.3594 389.578 78.7578 390.422 76.9297C391.266 75.1016 392.102 73.1641 392.93 71.1172C391.695 72.5859 390.547 74.0391 389.484 75.4766C388.438 76.9141 387.523 78.2812 386.742 79.5781C385.977 80.8594 385.375 82.0469 384.938 83.1406C384.5 84.2188 384.281 85.1406 384.281 85.9062C384.281 86.0938 384.359 86.1875 384.516 86.1875ZM427.383 80.2344C425.945 81.6406 424.586 82.8203 423.305 83.7734C422.039 84.7266 420.828 85.4922 419.672 86.0703C418.516 86.6484 417.406 87.0625 416.344 87.3125C415.297 87.5625 414.273 87.6875 413.273 87.6875C412.852 87.6875 412.383 87.5312 411.867 87.2188C411.352 86.9062 410.875 86.5234 410.438 86.0703C409.984 85.6328 409.609 85.1719 409.312 84.6875C409.016 84.2031 408.867 83.7891 408.867 83.4453C408.867 82.1641 409.047 80.9922 409.406 79.9297C409.75 78.8516 410.211 77.8828 410.789 77.0234C411.367 76.1641 412.023 75.4062 412.758 74.75C413.508 74.0938 414.281 73.5469 415.078 73.1094C415.891 72.6719 416.695 72.3438 417.492 72.125C418.289 71.9062 419.023 71.7969 419.695 71.7969C420.18 71.7969 420.656 71.9375 421.125 72.2188C421.609 72.5 422.047 72.8438 422.438 73.25C422.828 73.6562 423.141 74.0859 423.375 74.5391C423.625 74.9766 423.75 75.3594 423.75 75.6875C423.75 76.2188 423.523 76.7656 423.07 77.3281C422.633 77.875 422.008 78.4375 421.195 79.0156C420.383 79.5938 419.406 80.1875 418.266 80.7969C417.125 81.3906 415.867 81.9922 414.492 82.6016C414.445 82.9766 414.422 83.3438 414.422 83.7031C414.422 84.1875 414.523 84.5156 414.727 84.6875C414.945 84.8594 415.344 84.9453 415.922 84.9453C416.953 84.9453 417.922 84.7734 418.828 84.4297C419.75 84.0859 420.633 83.6406 421.477 83.0938C422.32 82.5469 423.133 81.9219 423.914 81.2188C424.695 80.5156 425.469 79.8047 426.234 79.0859L427.383 80.2344ZM419.133 74.375C418.82 74.375 418.477 74.5469 418.102 74.8906C417.727 75.2188 417.352 75.6562 416.977 76.2031C416.602 76.75 416.242 77.3828 415.898 78.1016C415.555 78.8047 415.258 79.5391 415.008 80.3047C415.586 79.9297 416.148 79.5312 416.695 79.1094C417.258 78.6875 417.758 78.25 418.195 77.7969C418.633 77.3281 418.984 76.8516 419.25 76.3672C419.516 75.8828 419.648 75.3984 419.648 74.9141C419.648 74.7734 419.602 74.6484 419.508 74.5391C419.43 74.4297 419.305 74.375 419.133 74.375ZM432.891 74.6797C432.703 75.1797 432.516 75.6875 432.328 76.2031C432.141 76.7188 431.953 77.25 431.766 77.7969C432.75 76.6719 433.594 75.7578 434.297 75.0547C435.016 74.3359 435.617 73.7734 436.102 73.3672C436.602 72.9609 437 72.6875 437.297 72.5469C437.609 72.3906 437.852 72.3125 438.023 72.3125C438.227 72.3125 438.531 72.4141 438.938 72.6172C439.344 72.8203 439.75 73.0703 440.156 73.3672C440.578 73.6641 440.938 73.9688 441.234 74.2812C441.547 74.5938 441.703 74.8672 441.703 75.1016C441.703 75.1484 441.695 75.2109 441.68 75.2891C441.664 75.3516 441.641 75.4375 441.609 75.5469C441.484 75.9375 441.32 76.3984 441.117 76.9297C440.93 77.4609 440.727 78.0156 440.508 78.5938C440.289 79.1562 440.07 79.7266 439.852 80.3047C439.633 80.8672 439.438 81.3984 439.266 81.8984C439.094 82.3984 438.953 82.8359 438.844 83.2109C438.734 83.5859 438.68 83.8594 438.68 84.0312C438.68 84.125 438.727 84.1719 438.82 84.1719C438.992 84.1719 439.25 84.0703 439.594 83.8672C439.938 83.6641 440.328 83.3984 440.766 83.0703C441.219 82.7422 441.688 82.3828 442.172 81.9922C442.656 81.6016 443.117 81.2188 443.555 80.8438C444.008 80.4531 444.414 80.1016 444.773 79.7891C445.133 79.4766 445.406 79.2422 445.594 79.0859C445.75 79.2266 445.922 79.4062 446.109 79.625C446.297 79.8438 446.477 80.0469 446.648 80.2344C446.305 80.5781 445.875 81 445.359 81.5C444.844 81.9844 444.281 82.4844 443.672 83C443.078 83.5156 442.453 84.0312 441.797 84.5469C441.156 85.0625 440.531 85.5234 439.922 85.9297C439.312 86.3359 438.742 86.6641 438.211 86.9141C437.68 87.1641 437.234 87.2891 436.875 87.2891C436.641 87.2891 436.344 87.2031 435.984 87.0312C435.625 86.875 435.273 86.6719 434.93 86.4219C434.602 86.1875 434.32 85.9219 434.086 85.625C433.852 85.3281 433.734 85.0391 433.734 84.7578C433.875 84.1172 434.062 83.3906 434.297 82.5781C434.547 81.7656 434.812 80.9375 435.094 80.0938C435.375 79.2344 435.664 78.3906 435.961 77.5625C436.273 76.7188 436.57 75.9453 436.852 75.2422L436.805 75.2891C436.508 75.6484 436.078 76.125 435.516 76.7188C434.969 77.2969 434.344 78.0469 433.641 78.9688C432.938 79.875 432.195 80.9766 431.414 82.2734C430.633 83.5547 429.867 85.0781 429.117 86.8438C429.023 87.0625 428.938 87.2344 428.859 87.3594C428.781 87.4844 428.633 87.5469 428.414 87.5469C428.148 87.5469 427.844 87.4688 427.5 87.3125C427.172 87.1719 426.836 86.9766 426.492 86.7266C426.133 86.4922 425.781 86.2266 425.438 85.9297C425.078 85.6328 424.758 85.3359 424.477 85.0391C424.477 84.9453 424.523 84.6797 424.617 84.2422C424.695 83.8047 424.812 83.2578 424.969 82.6016C425.125 81.9297 425.32 81.1719 425.555 80.3281C425.789 79.4688 426.055 78.5703 426.352 77.6328C426.648 76.6953 426.977 75.7422 427.336 74.7734C427.68 73.7891 428.055 72.8438 428.461 71.9375C429.117 72.25 429.844 72.6328 430.641 73.0859C431.453 73.5391 432.203 74.0703 432.891 74.6797ZM465 80.2344C463.656 81.6094 462.305 82.875 460.945 84.0312C459.602 85.1719 458.266 86.2422 456.938 87.2422C456.688 87.9609 456.414 88.6875 456.117 89.4219C455.836 90.1719 455.539 90.9219 455.227 91.6719C454.773 92.7031 454.242 93.6875 453.633 94.625C453.039 95.5781 452.406 96.4531 451.734 97.25C451.062 98.0625 450.375 98.7891 449.672 99.4297C448.969 100.086 448.289 100.641 447.633 101.094C446.992 101.547 446.398 101.898 445.852 102.148C445.289 102.398 444.812 102.523 444.422 102.523C444.156 102.523 443.844 102.406 443.484 102.172C443.125 101.938 442.789 101.641 442.477 101.281C442.148 100.938 441.875 100.555 441.656 100.133C441.422 99.7266 441.305 99.3359 441.305 98.9609C441.305 98.1484 441.586 97.3516 442.148 96.5703C442.695 95.7891 443.461 94.9844 444.445 94.1562C445.414 93.3281 446.555 92.4531 447.867 91.5312C449.18 90.625 450.602 89.6406 452.133 88.5781C452.477 87.6875 452.859 86.6328 453.281 85.4141C453.719 84.1797 454.234 82.6641 454.828 80.8672C454.266 81.6484 453.609 82.4219 452.859 83.1875C452.109 83.9375 451.336 84.6094 450.539 85.2031C449.742 85.7969 448.945 86.2734 448.148 86.6328C447.367 87.0078 446.648 87.1953 445.992 87.1953C445.82 87.1953 445.602 87.1094 445.336 86.9375C445.055 86.7812 444.781 86.5703 444.516 86.3047C444.234 86.0391 444 85.7266 443.812 85.3672C443.609 85.0078 443.508 84.625 443.508 84.2188C443.508 83.7031 443.633 83.0859 443.883 82.3672C444.133 81.6328 444.5 80.8594 444.984 80.0469C445.453 79.2344 446.023 78.4062 446.695 77.5625C447.383 76.7188 448.148 75.9297 448.992 75.1953C449.852 74.4453 450.781 73.7812 451.781 73.2031C452.797 72.6094 453.875 72.1562 455.016 71.8438C455.188 71.8438 455.43 71.9141 455.742 72.0547C456.055 72.1797 456.359 72.3281 456.656 72.5C456.969 72.6562 457.234 72.8125 457.453 72.9688C457.688 73.125 457.805 73.2266 457.805 73.2734C457.805 73.3047 457.781 73.3438 457.734 73.3906C457.703 73.4062 457.68 73.4141 457.664 73.4141C457.305 73.6328 456.844 73.9375 456.281 74.3281C455.719 74.7188 455.125 75.1641 454.5 75.6641C453.875 76.1484 453.25 76.6719 452.625 77.2344C452 77.7969 451.43 78.3594 450.914 78.9219C450.414 79.4688 450.008 80 449.695 80.5156C449.383 81.0156 449.227 81.4688 449.227 81.875C449.227 82.0156 449.258 82.1406 449.32 82.25C449.398 82.3438 449.508 82.3906 449.648 82.3906C450.039 82.3906 450.477 82.2578 450.961 81.9922C451.461 81.7109 451.969 81.3516 452.484 80.9141C453 80.4766 453.516 79.9922 454.031 79.4609C454.547 78.9141 455.031 78.3828 455.484 77.8672C455.953 77.3359 456.367 76.8438 456.727 76.3906C457.086 75.9375 457.367 75.5703 457.57 75.2891C457.602 75.2578 457.625 75.2266 457.641 75.1953C457.672 75.1641 457.711 75.1328 457.758 75.1016C457.883 75.1328 458.047 75.2891 458.25 75.5703C458.469 75.8516 458.68 76.1797 458.883 76.5547C459.086 76.9141 459.258 77.2734 459.398 77.6328C459.555 77.9922 459.633 78.25 459.633 78.4062V78.4531C459.633 78.4688 459.617 78.5234 459.586 78.6172C459.414 79.1641 459.195 79.9297 458.93 80.9141C458.664 81.8984 458.328 83.0312 457.922 84.3125C458.922 83.5156 459.922 82.6797 460.922 81.8047C461.938 80.9297 462.945 79.9922 463.945 78.9922L465 80.2344ZM444.07 99.3828C444.383 99.3828 444.836 99.1406 445.43 98.6562C446.008 98.1875 446.625 97.5781 447.281 96.8281C447.938 96.0938 448.578 95.2734 449.203 94.3672C449.844 93.4766 450.375 92.6094 450.797 91.7656C449.781 92.5 448.852 93.1875 448.008 93.8281C447.164 94.4844 446.445 95.1172 445.852 95.7266C445.242 96.3359 444.773 96.9219 444.445 97.4844C444.102 98.0625 443.93 98.6328 443.93 99.1953C443.93 99.3203 443.977 99.3828 444.07 99.3828ZM477 83.9375C477 84.0312 477.047 84.0781 477.141 84.0781C477.281 84.0781 477.516 83.9766 477.844 83.7734C478.172 83.5703 478.547 83.3125 478.969 83C479.391 82.6875 479.836 82.3359 480.305 81.9453C480.789 81.5547 481.25 81.1719 481.688 80.7969C482.125 80.4219 482.516 80.0781 482.859 79.7656C483.219 79.4531 483.492 79.2109 483.68 79.0391C483.82 79.1797 483.992 79.3672 484.195 79.6016C484.414 79.8359 484.609 80.0469 484.781 80.2344C484.406 80.5781 483.953 81 483.422 81.5C482.906 81.9844 482.344 82.4922 481.734 83.0234C481.141 83.5547 480.523 84.0859 479.883 84.6172C479.242 85.1328 478.617 85.5938 478.008 86C477.398 86.4062 476.82 86.7344 476.273 86.9844C475.727 87.25 475.25 87.3828 474.844 87.3828C474.562 87.3828 474.25 87.3281 473.906 87.2188C473.578 87.1094 473.273 86.9531 472.992 86.75C472.711 86.5625 472.477 86.3359 472.289 86.0703C472.102 85.8047 472.008 85.5078 472.008 85.1797C472.008 85.0547 472 84.9062 471.984 84.7344C471.984 84.5469 472 84.3125 472.031 84.0312C472.062 83.7344 472.125 83.3828 472.219 82.9766C472.312 82.5547 472.453 82.0391 472.641 81.4297C472.125 81.9766 471.516 82.5469 470.812 83.1406C470.125 83.7344 469.398 84.2969 468.633 84.8281C467.867 85.3594 467.094 85.8359 466.312 86.2578C465.547 86.6953 464.836 87.0234 464.18 87.2422C464.102 87.2734 464.039 87.2891 463.992 87.2891C463.945 87.2891 463.898 87.2891 463.852 87.2891C463.695 87.2891 463.492 87.2109 463.242 87.0547C462.977 86.8984 462.719 86.6875 462.469 86.4219C462.219 86.1719 462.008 85.8828 461.836 85.5547C461.648 85.2266 461.555 84.8984 461.555 84.5703C461.555 84.4766 461.602 84.1641 461.695 83.6328C461.789 83.1016 462.016 82.4297 462.375 81.6172C462.719 80.7891 463.234 79.8672 463.922 78.8516C464.609 77.8203 465.547 76.7656 466.734 75.6875C467.344 75.1406 468 74.625 468.703 74.1406C469.297 73.7344 469.977 73.3203 470.742 72.8984C471.508 72.4766 472.312 72.1406 473.156 71.8906C473.188 71.8906 473.211 71.8828 473.227 71.8672C473.258 71.8516 473.297 71.8594 473.344 71.8906C473.531 71.9531 473.75 72.0547 474 72.1953C474.266 72.3203 474.523 72.4609 474.773 72.6172C475.039 72.7578 475.266 72.9062 475.453 73.0625C475.656 73.2031 475.789 73.3203 475.852 73.4141C475.867 73.4453 475.867 73.4688 475.852 73.4844L475.805 73.5312C475.102 73.9062 474.438 74.3281 473.812 74.7969C473.188 75.25 472.633 75.6797 472.148 76.0859C471.586 76.5703 471.062 77.0469 470.578 77.5156C469.438 78.6406 468.648 79.6172 468.211 80.4453C467.773 81.2578 467.555 81.8438 467.555 82.2031C467.555 82.4688 467.664 82.6016 467.883 82.6016C468.102 82.6016 468.375 82.5156 468.703 82.3438C469.047 82.1562 469.43 81.9141 469.852 81.6172C470.273 81.3047 470.734 80.9453 471.234 80.5391C471.75 80.1172 472.281 79.6797 472.828 79.2266C473.312 78.8359 473.781 78.4141 474.234 77.9609C474.625 77.5859 475.031 77.1562 475.453 76.6719C475.875 76.1875 476.234 75.6953 476.531 75.1953C476.531 75.1797 476.539 75.1641 476.555 75.1484C476.57 75.1328 476.594 75.1328 476.625 75.1484C476.797 75.2734 476.992 75.4844 477.211 75.7812C477.43 76.0625 477.633 76.375 477.82 76.7188C478.008 77.0625 478.164 77.3984 478.289 77.7266C478.43 78.0391 478.5 78.2812 478.5 78.4531C478.141 79.1875 477.859 79.8594 477.656 80.4688C477.469 81.0625 477.32 81.5859 477.211 82.0391C477.117 82.4922 477.055 82.8828 477.023 83.2109C477.008 83.5234 477 83.7656 477 83.9375ZM488.578 84.3594C488.828 84.3594 489.164 84.25 489.586 84.0312C490.023 83.8125 490.5 83.5391 491.016 83.2109C491.531 82.8672 492.07 82.4922 492.633 82.0859C493.195 81.6797 493.719 81.2812 494.203 80.8906C494.703 80.5 495.148 80.1406 495.539 79.8125C495.93 79.4844 496.219 79.2422 496.406 79.0859C496.547 79.2266 496.711 79.4062 496.898 79.625C497.102 79.8438 497.289 80.0469 497.461 80.2344C497.117 80.5781 496.688 81 496.172 81.5C495.656 81.9844 495.094 82.4844 494.484 83C493.891 83.5156 493.266 84.0312 492.609 84.5469C491.969 85.0625 491.336 85.5234 490.711 85.9297C490.102 86.3359 489.531 86.6641 489 86.9141C488.469 87.1641 488.023 87.2891 487.664 87.2891C487.18 87.2891 486.664 87.1172 486.117 86.7734C485.586 86.4297 485.086 86.0312 484.617 85.5781C484.148 85.1094 483.75 84.6406 483.422 84.1719C483.094 83.7031 482.906 83.3516 482.859 83.1172C482.828 83.0234 482.812 82.9141 482.812 82.7891C482.812 82.6484 482.812 82.5 482.812 82.3438C482.812 81.5625 482.914 80.5781 483.117 79.3906C483.305 78.1875 483.562 76.9219 483.891 75.5938C484.219 74.25 484.594 72.9219 485.016 71.6094C485.453 70.2812 485.906 69.1094 486.375 68.0938C487.328 66.0156 488.305 64.1719 489.305 62.5625C490.32 60.9531 491.312 59.5547 492.281 58.3672C493.25 57.1641 494.18 56.1562 495.07 55.3437C495.961 54.5312 496.758 53.875 497.461 53.375C498.18 52.875 498.781 52.5156 499.266 52.2969C499.766 52.0781 500.109 51.9687 500.297 51.9687C500.594 52.0781 500.891 52.2422 501.188 52.4609C501.5 52.6641 501.789 52.8828 502.055 53.1172C502.32 53.3516 502.555 53.5859 502.758 53.8203C502.961 54.0391 503.109 54.2031 503.203 54.3125C503.328 54.4375 503.406 54.5625 503.438 54.6875C503.484 54.7969 503.508 54.9453 503.508 55.1328C503.508 55.5078 503.414 56.0234 503.227 56.6797C503.039 57.3359 502.688 58.1719 502.172 59.1875C501.656 60.1875 500.938 61.3906 500.016 62.7969C499.109 64.2031 497.922 65.8438 496.453 67.7188C495.766 68.5938 495.039 69.4844 494.273 70.3906C493.617 71.1719 492.859 72.0234 492 72.9453C491.141 73.8672 490.258 74.75 489.352 75.5938C488.898 77.3125 488.578 78.8281 488.391 80.1406C488.219 81.4531 488.133 82.4766 488.133 83.2109C488.133 83.6953 488.172 84.0078 488.25 84.1484C488.328 84.2891 488.438 84.3594 488.578 84.3594ZM492.328 67.1797C492.062 67.7734 491.812 68.3516 491.578 68.9141C491.359 69.4766 491.148 70.0312 490.945 70.5781C491.43 70.0312 491.867 69.5078 492.258 69.0078C492.664 68.5078 493.008 68.0781 493.289 67.7188C493.617 67.2969 493.914 66.8984 494.18 66.5234C495.273 64.9922 496.219 63.5859 497.016 62.3047C497.812 61.0234 498.469 59.8984 498.984 58.9297C499.5 57.9453 499.875 57.1328 500.109 56.4922C500.359 55.8359 500.484 55.3672 500.484 55.0859C500.484 55.0078 500.477 54.9531 500.461 54.9219C500.461 54.875 500.422 54.8516 500.344 54.8516C500.203 54.8516 499.883 55.0859 499.383 55.5547C498.883 56.0078 498.266 56.7344 497.531 57.7344C496.812 58.7344 496 60.0156 495.094 61.5781C494.203 63.125 493.281 64.9922 492.328 67.1797ZM499.219 83.6094C499.219 84.0781 499.391 84.3125 499.734 84.3125C500.094 84.3125 500.57 84.0312 501.164 83.4688C501.758 82.8906 502.375 82.1641 503.016 81.2891C502.984 81.1172 502.961 80.9688 502.945 80.8438C502.945 80.7031 502.945 80.5781 502.945 80.4688C502.945 80.1562 502.977 79.7891 503.039 79.3672C503.117 78.9297 503.297 78.4375 503.578 77.8906C503.766 77.4688 503.992 77.0547 504.258 76.6484C504.477 76.2891 504.742 75.9062 505.055 75.5C505.367 75.0781 505.711 74.6875 506.086 74.3281L506.227 74.1875C506.383 74.375 506.586 74.6328 506.836 74.9609C507.102 75.2734 507.359 75.6016 507.609 75.9453C507.875 76.2734 508.102 76.5781 508.289 76.8594C508.492 77.1406 508.617 77.3359 508.664 77.4453C508.664 78.1172 508.539 78.7891 508.289 79.4609C508.055 80.1328 507.734 80.7969 507.328 81.4531C508.266 81.3906 509.133 81.1562 509.93 80.75C510.742 80.3281 511.586 79.6484 512.461 78.7109C512.602 78.8516 512.781 79.0469 513 79.2969C513.234 79.5312 513.422 79.7344 513.562 79.9062C512.906 80.5938 512.258 81.1641 511.617 81.6172C510.992 82.0703 510.359 82.4297 509.719 82.6953C509.094 82.9609 508.453 83.1562 507.797 83.2812C507.141 83.3906 506.469 83.4453 505.781 83.4453C505.25 84.0078 504.68 84.5234 504.07 84.9922C503.461 85.4609 502.836 85.8672 502.195 86.2109C501.57 86.5547 500.945 86.8203 500.32 87.0078C499.695 87.1953 499.102 87.2891 498.539 87.2891C498.07 87.2891 497.586 87.1484 497.086 86.8672C496.586 86.5859 496.133 86.2422 495.727 85.8359C495.32 85.4141 494.984 84.9688 494.719 84.5C494.453 84.0312 494.32 83.6172 494.32 83.2578C494.32 82.0703 494.484 80.8906 494.812 79.7188C495.125 78.5469 495.625 77.4531 496.312 76.4375C496.984 75.4062 497.844 74.5 498.891 73.7188C499.953 72.9375 501.211 72.3438 502.664 71.9375C502.711 71.9062 502.789 71.8828 502.898 71.8672C503.023 71.8516 503.125 71.8438 503.203 71.8438C503.422 71.8438 503.648 71.9297 503.883 72.1016C504.133 72.2578 504.359 72.4375 504.562 72.6406C504.781 72.8438 504.961 73.0469 505.102 73.25C505.242 73.4375 505.312 73.5625 505.312 73.625C505.281 73.7031 505.164 73.8047 504.961 73.9297C504.758 74.0391 504.484 74.2344 504.141 74.5156C503.797 74.7969 503.391 75.2031 502.922 75.7344C502.453 76.25 501.938 76.9375 501.375 77.7969C500.531 79.0625 499.961 80.2109 499.664 81.2422C499.367 82.2578 499.219 83.0469 499.219 83.6094ZM518.766 74.6797C518.578 75.1797 518.391 75.6875 518.203 76.2031C518.016 76.7188 517.828 77.25 517.641 77.7969C518.625 76.6719 519.469 75.7578 520.172 75.0547C520.891 74.3359 521.492 73.7734 521.977 73.3672C522.477 72.9609 522.875 72.6875 523.172 72.5469C523.484 72.3906 523.727 72.3125 523.898 72.3125C524.102 72.3125 524.406 72.4141 524.812 72.6172C525.219 72.8203 525.625 73.0703 526.031 73.3672C526.453 73.6641 526.812 73.9688 527.109 74.2812C527.422 74.5938 527.578 74.8672 527.578 75.1016C527.578 75.1484 527.57 75.2109 527.555 75.2891C527.539 75.3516 527.516 75.4375 527.484 75.5469C527.359 75.9375 527.195 76.3984 526.992 76.9297C526.805 77.4609 526.602 78.0156 526.383 78.5938C526.164 79.1562 525.945 79.7266 525.727 80.3047C525.508 80.8672 525.312 81.3984 525.141 81.8984C524.969 82.3984 524.828 82.8359 524.719 83.2109C524.609 83.5859 524.555 83.8594 524.555 84.0312C524.555 84.125 524.602 84.1719 524.695 84.1719C524.867 84.1719 525.125 84.0703 525.469 83.8672C525.812 83.6641 526.203 83.3984 526.641 83.0703C527.094 82.7422 527.562 82.3828 528.047 81.9922C528.531 81.6016 528.992 81.2188 529.43 80.8438C529.883 80.4531 530.289 80.1016 530.648 79.7891C531.008 79.4766 531.281 79.2422 531.469 79.0859C531.625 79.2266 531.797 79.4062 531.984 79.625C532.172 79.8438 532.352 80.0469 532.523 80.2344C532.18 80.5781 531.75 81 531.234 81.5C530.719 81.9844 530.156 82.4844 529.547 83C528.953 83.5156 528.328 84.0312 527.672 84.5469C527.031 85.0625 526.406 85.5234 525.797 85.9297C525.188 86.3359 524.617 86.6641 524.086 86.9141C523.555 87.1641 523.109 87.2891 522.75 87.2891C522.516 87.2891 522.219 87.2031 521.859 87.0312C521.5 86.875 521.148 86.6719 520.805 86.4219C520.477 86.1875 520.195 85.9219 519.961 85.625C519.727 85.3281 519.609 85.0391 519.609 84.7578C519.75 84.1172 519.938 83.3906 520.172 82.5781C520.422 81.7656 520.688 80.9375 520.969 80.0938C521.25 79.2344 521.539 78.3906 521.836 77.5625C522.148 76.7188 522.445 75.9453 522.727 75.2422L522.68 75.2891C522.383 75.6484 521.953 76.125 521.391 76.7188C520.844 77.2969 520.219 78.0469 519.516 78.9688C518.812 79.875 518.07 80.9766 517.289 82.2734C516.508 83.5547 515.742 85.0781 514.992 86.8438C514.898 87.0625 514.812 87.2344 514.734 87.3594C514.656 87.4844 514.508 87.5469 514.289 87.5469C514.023 87.5469 513.719 87.4688 513.375 87.3125C513.047 87.1719 512.711 86.9766 512.367 86.7266C512.008 86.4922 511.656 86.2266 511.312 85.9297C510.953 85.6328 510.633 85.3359 510.352 85.0391C510.352 84.9453 510.398 84.6797 510.492 84.2422C510.57 83.8047 510.688 83.2578 510.844 82.6016C511 81.9297 511.195 81.1719 511.43 80.3281C511.664 79.4688 511.93 78.5703 512.227 77.6328C512.523 76.6953 512.852 75.7422 513.211 74.7734C513.555 73.7891 513.93 72.8438 514.336 71.9375C514.992 72.25 515.719 72.6328 516.516 73.0859C517.328 73.5391 518.078 74.0703 518.766 74.6797ZM532.969 87.2891C532.734 87.2891 532.438 87.2031 532.078 87.0312C531.719 86.875 531.375 86.6719 531.047 86.4219C530.719 86.1875 530.438 85.9219 530.203 85.625C529.969 85.3281 529.852 85.0391 529.852 84.7578C530.008 84.0703 530.219 83.2812 530.484 82.3906C530.75 81.5 531.039 80.5938 531.352 79.6719C531.648 78.75 531.969 77.8516 532.312 76.9766C532.641 76.0859 532.938 75.2969 533.203 74.6094C533.484 73.9219 533.727 73.3672 533.93 72.9453C534.133 72.5234 534.266 72.3125 534.328 72.3125C534.422 72.3125 534.656 72.4141 535.031 72.6172C535.406 72.8203 535.797 73.0703 536.203 73.3672C536.625 73.6484 537 73.9531 537.328 74.2812C537.656 74.5938 537.82 74.8672 537.82 75.1016C537.82 75.1484 537.812 75.2109 537.797 75.2891C537.781 75.3516 537.758 75.4375 537.727 75.5469C537.602 75.9375 537.438 76.3984 537.234 76.9297C537.047 77.4609 536.844 78.0156 536.625 78.5938C536.406 79.1562 536.188 79.7266 535.969 80.3047C535.75 80.8672 535.555 81.3984 535.383 81.8984C535.211 82.3984 535.07 82.8359 534.961 83.2109C534.852 83.5859 534.797 83.8594 534.797 84.0312C534.797 84.125 534.844 84.1719 534.938 84.1719C535.109 84.1719 535.367 84.0703 535.711 83.8672C536.055 83.6641 536.445 83.3984 536.883 83.0703C537.336 82.7422 537.805 82.3828 538.289 81.9922C538.773 81.6016 539.234 81.2188 539.672 80.8438C540.125 80.4531 540.531 80.1016 540.891 79.7891C541.25 79.4766 541.523 79.2422 541.711 79.0859C541.852 79.2266 542.016 79.4062 542.203 79.625C542.406 79.8438 542.594 80.0469 542.766 80.2344C542.422 80.5781 541.992 81 541.477 81.5C540.961 81.9844 540.398 82.4844 539.789 83C539.195 83.5156 538.57 84.0312 537.914 84.5469C537.273 85.0625 536.648 85.5234 536.039 85.9297C535.43 86.3359 534.859 86.6641 534.328 86.9141C533.797 87.1641 533.344 87.2891 532.969 87.2891ZM542.25 65.1641C542.234 65.2266 542.172 65.3828 542.062 65.6328C541.969 65.8672 541.852 66.1484 541.711 66.4766C541.57 66.7891 541.406 67.125 541.219 67.4844C541.047 67.8281 540.875 68.1484 540.703 68.4453C540.531 68.7422 540.367 68.9922 540.211 69.1953C540.055 69.3828 539.93 69.4766 539.836 69.4766C539.555 69.4609 539.211 69.375 538.805 69.2187C538.414 69.0625 538.031 68.8906 537.656 68.7031C537.297 68.5 536.984 68.3047 536.719 68.1172C536.469 67.9297 536.344 67.7969 536.344 67.7187C536.344 67.3906 536.438 66.9687 536.625 66.4531C536.812 65.9219 537.031 65.4141 537.281 64.9297C537.531 64.4297 537.781 64 538.031 63.6406C538.297 63.2812 538.5 63.1016 538.641 63.1016C538.922 63.1016 539.266 63.1953 539.672 63.3828C540.078 63.5547 540.469 63.7578 540.844 63.9922C541.234 64.2266 541.562 64.4609 541.828 64.6953C542.109 64.9141 542.25 65.0703 542.25 65.1641Z" fill="#C5FDFB"/>
</g>
<defs>
<clipPath id="clip0_621_207">
<rect width="1588.22" height="847.041" fill="white"/>
</clipPath>
</defs>
</svg>
