<svg width="196" height="97" viewBox="0 0 196 97" fill="none" xmlns="http://www.w3.org/2000/svg">
<g clip-path="url(#clip0_603_1408)">
<path d="M23.688 0C36.788 0 47.393 10.606 47.393 23.682C47.393 36.759 36.788 47.364 23.688 47.364C10.606 47.364 0 36.759 0 23.682C0 10.606 10.606 0 23.688 0Z" fill="#1D1D1D"/>
<path d="M32.448 38.8349L29.67 31.1719H17.542L14.897 38.8349H9.41602L20.883 8.52588H26.466L37.978 38.8349H32.448ZM23.658 13.0789H23.529C23.422 13.9259 23.291 14.6559 23.079 15.2529L18.942 26.9319H28.235L24.072 15.2529C23.94 14.8869 23.789 14.1629 23.658 13.0789Z" fill="#E31E0B"/>
<path d="M73.0836 0C86.1806 0 96.7866 10.61 96.7866 23.687C96.7866 36.764 86.1806 47.369 73.0836 47.369C59.9986 47.369 49.3936 36.763 49.3936 23.686C49.3936 10.609 59.9986 0 73.0836 0Z" fill="#1D1D1D"/>
<path d="M83.2877 30.01C83.2877 32.638 82.3027 34.793 80.3627 36.395C78.4057 38.028 75.8927 38.832 72.7967 38.832H62.8887V8.53003H72.4607C75.3587 8.53003 77.6547 9.17603 79.3277 10.414C81.0117 11.68 81.8507 13.366 81.8507 15.503C81.8507 17.149 81.3467 18.599 80.3507 19.851C79.3367 21.131 78.0287 22.001 76.3947 22.521V22.612C78.5587 22.886 80.2367 23.687 81.4637 24.984C82.6627 26.311 83.2877 27.967 83.2877 30.01ZM76.5187 16.471C76.5187 15.266 76.0647 14.327 75.1867 13.676C74.2797 13.027 72.9627 12.703 71.2077 12.703H67.9307V21.086H71.1627C72.8557 21.086 74.1837 20.686 75.1177 19.885C76.0437 19.084 76.5187 17.965 76.5187 16.471ZM77.9527 29.873C77.9527 28.424 77.4447 27.288 76.3947 26.464C75.3437 25.65 73.7997 25.258 71.7207 25.258H67.9307V34.671H72.1697C73.9707 34.671 75.3817 34.233 76.4067 33.363C77.4507 32.508 77.9527 31.337 77.9527 29.873Z" fill="#E31E0B"/>
<path d="M171.869 0C184.969 0 195.574 10.614 195.574 23.69C195.574 36.767 184.969 47.372 171.869 47.372C158.787 47.372 148.181 36.767 148.181 23.69C148.181 10.614 158.787 0 171.869 0Z" fill="#1D1D1D"/>
<path d="M174.266 27.8469V38.8339H169.269V27.9699L159.422 8.53394H165.143L171.238 21.1799C171.451 21.5909 171.577 21.9629 171.676 22.3009C171.775 22.6369 171.852 22.9109 171.932 23.1259H171.977C172.128 22.4839 172.35 21.8509 172.672 21.2229L178.995 8.53394H184.314L174.266 27.8469Z" fill="#E31E0B"/>
<path d="M122.47 0C135.575 0 146.181 10.61 146.181 23.687C146.181 36.764 135.576 47.37 122.47 47.37C109.394 47.37 98.7871 36.764 98.7871 23.687C98.7871 10.61 109.394 0 122.47 0Z" fill="#1D1D1D"/>
<path d="M129.59 38.831L123.184 27.812C123.052 27.524 122.942 27.28 122.875 27.049C122.826 26.791 122.754 26.547 122.663 26.286H122.571C122.455 26.561 122.381 26.809 122.304 27.061C122.227 27.283 122.117 27.523 121.968 27.811L115.445 38.83H109.322L119.459 23.641L110.2 8.53003H116.386L121.787 18.484C122.306 19.369 122.648 20.124 122.835 20.75H122.908C123.213 19.957 123.445 19.439 123.565 19.19C123.674 18.953 125.774 15.393 129.835 8.53003H135.509L126.05 23.55L135.631 38.831H129.59Z" fill="#E31E0B"/>
<path d="M23.688 49.376C36.788 49.376 47.393 59.982 47.393 73.058C47.393 86.135 36.788 96.74 23.688 96.74C10.606 96.74 0 86.135 0 73.058C0 59.982 10.606 49.376 23.688 49.376Z" fill="#C5FDFB"/>
<path d="M32.448 88.2109L29.67 80.5479H17.542L14.897 88.2109H9.41602L20.883 57.9019H26.466L37.978 88.2109H32.448ZM23.658 62.4549H23.529C23.422 63.3019 23.291 64.0319 23.079 64.6289L18.942 76.3079H28.235L24.072 64.6289C23.94 64.2629 23.789 63.5389 23.658 62.4549Z" fill="#E31E0B"/>
<path d="M73.0836 49.374C86.1806 49.374 96.7866 59.984 96.7866 73.061C96.7866 86.138 86.1806 96.743 73.0836 96.743C59.9986 96.743 49.3936 86.137 49.3936 73.06C49.3936 59.983 59.9986 49.374 73.0836 49.374Z" fill="#C5FDFB"/>
<path d="M83.2877 79.3831C83.2877 82.0111 82.3027 84.1661 80.3627 85.7681C78.4057 87.4011 75.8927 88.2051 72.7967 88.2051H62.8887V57.9041H72.4607C75.3587 57.9041 77.6547 58.5501 79.3277 59.7881C81.0117 61.0541 81.8507 62.7401 81.8507 64.8771C81.8507 66.5231 81.3467 67.9731 80.3507 69.2251C79.3367 70.5051 78.0287 71.375 76.3947 71.8951V71.9861C78.5587 72.2601 80.2367 73.0611 81.4637 74.3581C82.6627 75.6841 83.2877 77.3401 83.2877 79.3831ZM76.5187 65.8441C76.5187 64.6391 76.0647 63.7001 75.1867 63.0491C74.2797 62.4001 72.9627 62.0761 71.2077 62.0761H67.9307V70.4591H71.1627C72.8557 70.4591 74.1837 70.0591 75.1177 69.2581C76.0437 68.4581 76.5187 67.3381 76.5187 65.8441ZM77.9527 79.2471C77.9527 77.7981 77.4447 76.6621 76.3947 75.8381C75.3437 75.0241 73.7997 74.6321 71.7207 74.6321H67.9307V84.0451H72.1697C73.9707 84.0451 75.3817 83.6071 76.4067 82.7371C77.4507 81.8811 77.9527 80.7101 77.9527 79.2471Z" fill="#E31E0B"/>
<path d="M171.869 49.3721C184.969 49.3721 195.574 59.9861 195.574 73.0621C195.574 86.1391 184.969 96.7441 171.869 96.7441C158.787 96.7441 148.181 86.1391 148.181 73.0621C148.181 59.9861 158.787 49.3721 171.869 49.3721Z" fill="#C5FDFB"/>
<path d="M174.266 77.219V88.206H169.269V77.342L159.422 57.906H165.143L171.238 70.552C171.451 70.963 171.577 71.335 171.676 71.673C171.775 72.009 171.852 72.283 171.932 72.498H171.977C172.128 71.856 172.35 71.223 172.672 70.595L178.995 57.906H184.314L174.266 77.219Z" fill="#E31E0B"/>
<path d="M122.47 49.374C135.575 49.374 146.181 59.984 146.181 73.061C146.181 86.138 135.576 96.744 122.47 96.744C109.394 96.744 98.7871 86.138 98.7871 73.061C98.7871 59.984 109.394 49.374 122.47 49.374Z" fill="#C5FDFB"/>
<path d="M129.59 88.2051L123.184 77.1861C123.052 76.8981 122.942 76.6541 122.875 76.423C122.826 76.1651 122.754 75.9211 122.663 75.6601H122.571C122.455 75.9351 122.381 76.1831 122.304 76.4351C122.227 76.6571 122.117 76.8971 121.968 77.1851L115.445 88.2041H109.322L119.459 73.0151L110.199 57.9041H116.385L121.786 67.8581C122.305 68.7431 122.647 69.4981 122.834 70.1241H122.907C123.212 69.3311 123.444 68.8131 123.564 68.5641C123.673 68.3271 125.773 64.7671 129.834 57.9041H135.508L126.049 72.9241L135.63 88.2051H129.59Z" fill="#E31E0B"/>
</g>
<defs>
<clipPath id="clip0_603_1408">
<rect width="195.574" height="96.744" fill="white"/>
</clipPath>
</defs>
</svg>
