<svg width="750" height="631" viewBox="0 0 750 631" fill="none" xmlns="http://www.w3.org/2000/svg">
<g clip-path="url(#clip0_601_202)">
<mask id="mask0_601_202" style="mask-type:alpha" maskUnits="userSpaceOnUse" x="0" y="129" width="751" height="502">
<path d="M664.368 213.96C657.648 197.278 643.826 193.083 642.55 191.957C630.849 181.621 640.076 170.743 622.604 161.262C604.323 151.348 550.625 124.265 508.384 129.887C499.159 131.122 480.547 147.495 467.17 147.495C445.305 147.495 375.005 147.495 375.005 147.495C375.005 147.495 304.705 147.495 282.84 147.495C269.463 147.495 250.85 131.121 241.625 129.887C199.377 124.265 145.686 151.348 127.405 161.262C109.933 170.743 119.162 181.621 107.464 191.957C106.183 193.082 92.36 197.278 85.641 213.96C22.889 369.984 -1.74096 469.114 0.0950443 529.129C2.98604 623.545 76.673 630.455 76.673 630.455C113.706 621.838 188.223 501.32 245.208 501.32C276.368 501.32 375.005 501.32 375.005 501.32C375.005 501.32 473.642 501.32 504.802 501.32C561.787 501.32 636.304 621.838 673.34 630.455C673.34 630.455 747.018 623.545 749.903 529.129C751.767 469.114 727.093 369.984 664.368 213.96Z" fill="#E31E0B"/>
</mask>
<g mask="url(#mask0_601_202)">
<path d="M664.368 213.96C657.648 197.278 643.826 193.083 642.55 191.957C630.849 181.621 640.076 170.743 622.604 161.262C604.323 151.348 550.625 124.265 508.384 129.887C499.159 131.122 480.547 147.495 467.17 147.495C445.305 147.495 375.005 147.495 375.005 147.495C375.005 147.495 304.705 147.495 282.84 147.495C269.463 147.495 250.85 131.121 241.625 129.887C199.377 124.265 145.686 151.348 127.405 161.262C109.933 170.743 119.162 181.621 107.464 191.957C106.183 193.082 92.36 197.278 85.641 213.96C22.889 369.984 -1.74096 469.114 0.0950443 529.129C2.98604 623.545 76.673 630.455 76.673 630.455C113.706 621.838 188.223 501.32 245.208 501.32C276.368 501.32 375.005 501.32 375.005 501.32C375.005 501.32 473.642 501.32 504.802 501.32C561.787 501.32 636.304 621.838 673.34 630.455C673.34 630.455 747.018 623.545 749.903 529.129C751.767 469.114 727.093 369.984 664.368 213.96Z" fill="#E31E0B"/>
<path d="M67.5 639L95.5 491L261.017 314" stroke="#1D1D1D" stroke-width="34"/>
<path d="M682.5 639L654.5 491L488.983 314" stroke="#1D1D1D" stroke-width="34"/>
</g>
<path d="M295.5 501.317V402L217 141" stroke="#1D1D1D" stroke-width="34"/>
<path d="M453.5 501.317V402L532 141" stroke="#1D1D1D" stroke-width="34"/>
<path d="M277.671 462.114C244.234 462.114 217.031 434.917 217.031 401.487C217.031 368.06 244.234 340.864 277.671 340.864C311.099 340.864 338.295 368.059 338.295 401.487C338.295 434.917 311.099 462.114 277.671 462.114Z" fill="#E31E0B"/>
<path d="M277.671 341.865C310.547 341.865 337.295 368.612 337.295 401.488C337.295 434.366 310.548 461.115 277.671 461.115C244.786 461.115 218.031 434.366 218.031 401.488C218.032 368.611 244.786 341.865 277.671 341.865ZM277.671 339.865C243.635 339.865 216.031 367.443 216.031 401.488C216.031 435.538 243.635 463.115 277.671 463.115C311.708 463.115 339.295 435.538 339.295 401.488C339.295 367.442 311.708 339.865 277.671 339.865Z" fill="#1D1D1D" fill-opacity="0.3"/>
<path d="M277.671 452.698C270.539 452.698 264.929 451.375 264.622 449.62C264.614 449.571 264.608 449.517 264.608 449.472C264.608 449.334 264.608 433.941 264.608 415.048C264.608 414.772 264.384 414.548 264.108 414.548H229.688C227.868 414.548 226.442 408.813 226.442 401.491C226.442 394.169 227.868 388.434 229.688 388.434H264.108C264.384 388.434 264.608 388.21 264.608 387.934V353.508C264.608 353.465 264.615 353.415 264.622 353.366L264.682 353.139C264.711 353.098 264.748 353.032 264.764 353.006C265.259 352.197 266.869 351.489 269.299 351.014C269.604 350.946 269.893 350.888 270.188 350.832C270.539 350.769 270.846 350.72 271.146 350.697C271.181 350.694 271.274 350.681 271.308 350.671C271.563 350.642 271.887 350.599 272.215 350.56C272.55 350.52 272.889 350.484 273.233 350.451C273.597 350.417 273.926 350.391 274.256 350.368L276.625 350.291C276.978 350.283 277.326 350.279 277.672 350.279C284.997 350.279 290.735 351.697 290.735 353.508C290.736 353.681 290.736 369.555 290.736 387.934C290.736 388.21 290.96 388.434 291.236 388.434H325.655C327.464 388.434 328.881 394.169 328.881 401.491C328.881 408.813 327.464 414.548 325.655 414.548H291.236C290.96 414.548 290.736 414.772 290.736 415.048V449.472C290.736 449.517 290.73 449.571 290.721 449.624C290.415 451.375 284.804 452.698 277.671 452.698Z" fill="#1D1D1D"/>
<path d="M277.672 350.781C285.761 350.781 290.235 352.394 290.235 353.51C290.235 353.525 290.235 353.539 290.236 353.554V387.936C290.236 388.488 290.684 388.936 291.236 388.936H325.655C326.793 388.936 328.381 393.713 328.381 401.492C328.381 409.272 326.793 414.049 325.655 414.049H291.236C290.684 414.049 290.236 414.497 290.236 415.049V449.472C290.236 449.493 290.232 449.518 290.23 449.535C290.035 450.652 285.562 452.199 277.672 452.199C269.783 452.199 265.311 450.652 265.116 449.543C265.112 449.516 265.108 449.489 265.108 449.473V415.049C265.108 414.497 264.66 414.049 264.108 414.049H229.688C228.542 414.049 226.942 409.273 226.942 401.493C226.942 393.713 228.542 388.935 229.689 388.935H264.108C264.66 388.935 265.108 388.487 265.108 387.935V353.513C265.108 353.492 265.112 353.47 265.112 353.47C265.112 353.467 265.113 353.463 265.114 353.459L265.115 353.456C265.128 353.421 265.144 353.362 265.155 353.322C265.167 353.304 265.179 353.286 265.191 353.267C265.344 353.017 266.097 352.153 269.377 351.508C269.398 351.505 269.418 351.501 269.438 351.496C269.71 351.434 269.993 351.377 270.27 351.325L270.352 351.311C270.685 351.25 270.951 351.213 271.147 351.197C271.195 351.196 271.26 351.191 271.335 351.177C271.644 351.135 271.947 351.095 272.254 351.058C272.262 351.057 272.27 351.056 272.278 351.055C272.606 351.015 272.941 350.98 273.28 350.948C273.297 350.947 273.311 350.946 273.32 350.945C273.639 350.915 273.965 350.889 274.285 350.867L274.402 350.861C274.592 350.853 274.784 350.848 274.977 350.844L275.372 350.834C275.44 350.832 275.507 350.829 275.541 350.826C275.866 350.814 276.192 350.802 276.52 350.794L276.644 350.793C276.985 350.785 277.329 350.781 277.672 350.781ZM277.672 349.781C277.322 349.781 276.97 349.785 276.62 349.793C276.579 349.793 276.537 349.794 276.495 349.795C276.162 349.803 275.831 349.815 275.501 349.828C275.446 349.832 275.391 349.834 275.335 349.836C275.008 349.846 274.681 349.85 274.358 349.864C274.312 349.866 274.266 349.868 274.22 349.871C273.885 349.894 273.552 349.921 273.224 349.952C273.21 349.953 273.197 349.955 273.183 349.955C272.835 349.988 272.492 350.025 272.156 350.065H272.154C271.823 350.105 271.498 350.148 271.165 350.193C271.152 350.197 271.131 350.199 271.106 350.2C270.789 350.224 270.463 350.276 270.168 350.33C270.143 350.334 270.119 350.338 270.094 350.342C269.793 350.399 269.498 350.458 269.214 350.523C269.21 350.523 269.206 350.524 269.201 350.525C266.774 351 264.951 351.74 264.336 352.747C264.295 352.788 264.26 352.847 264.23 352.912C264.227 352.918 264.224 352.923 264.221 352.929C264.204 352.99 264.191 353.05 264.176 353.112C264.169 353.131 264.164 353.139 264.159 353.153C264.147 353.198 264.135 353.246 264.126 353.295C264.115 353.37 264.106 353.445 264.106 353.511C264.106 361.253 264.106 374.107 264.106 387.937C245.141 387.937 229.687 387.937 229.687 387.937H229.686C224.691 387.937 224.691 415.05 229.686 415.05C237.443 415.05 250.285 415.05 264.106 415.05C264.106 434.028 264.106 449.474 264.106 449.474C264.106 449.544 264.113 449.626 264.127 449.708C264.535 452.037 271.102 453.199 277.669 453.199C284.237 453.199 290.804 452.037 291.211 449.708C291.225 449.626 291.232 449.543 291.232 449.474C291.232 441.729 291.232 428.876 291.232 415.05C310.19 415.05 325.651 415.05 325.651 415.05C330.618 415.05 330.618 387.937 325.651 387.937C317.892 387.937 305.038 387.937 291.232 387.937C291.232 368.954 291.232 353.512 291.232 353.512H291.231V353.511C291.235 351.008 284.439 349.781 277.672 349.781Z" fill="#515151"/>
<path d="M264.108 387.936L260.506 384.311H229.689C228.826 384.311 227.867 384.537 226.905 385.157L229.689 387.935C229.689 387.935 245.143 387.936 264.108 387.936Z" fill="#111111"/>
<path d="M229.689 387.936L226.906 385.158C225.539 386.088 224.227 387.898 223.381 391.301C222.717 394.047 222.349 397.659 222.349 401.489C222.349 405.324 222.717 408.936 223.381 411.682C224.226 415.084 225.539 416.894 226.906 417.825L229.689 415.051C224.693 415.049 224.693 387.936 229.689 387.936Z" fill="#111111"/>
<path d="M269.203 350.524C269.207 350.524 269.211 350.523 269.216 350.522C269.5 350.458 269.795 350.398 270.096 350.341C270.121 350.337 270.145 350.333 270.17 350.329C270.465 350.275 270.79 350.224 271.108 350.199C271.133 350.198 271.154 350.196 271.167 350.192C271.5 350.147 271.825 350.104 272.156 350.064H272.158C272.494 350.023 272.837 349.987 273.185 349.954C273.199 349.954 273.212 349.952 273.226 349.951C273.554 349.92 273.887 349.894 274.222 349.87C274.268 349.867 274.314 349.865 274.36 349.863C274.683 349.849 275.009 349.845 275.337 349.835C275.393 349.833 275.448 349.831 275.503 349.827C275.833 349.814 276.164 349.802 276.497 349.794C276.539 349.793 276.58 349.793 276.622 349.792C276.972 349.784 277.324 349.78 277.674 349.78C284.442 349.78 291.237 351.007 291.237 353.509L293.992 350.737C293.091 349.37 291.279 348.029 287.848 347.213C285.105 346.54 281.491 346.177 277.673 346.177C273.827 346.177 270.214 346.539 267.493 347.213C264.554 347.931 262.778 349.009 261.768 350.176L264.338 352.746C264.954 351.739 266.776 350.999 269.203 350.524Z" fill="#111111"/>
<path d="M325.655 387.936L328.41 385.158C327.477 384.537 326.49 384.312 325.655 384.312H294.836L291.235 387.937C305.042 387.936 317.896 387.936 325.655 387.936Z" fill="#111111"/>
<path d="M291.234 353.51C291.234 353.51 291.235 368.952 291.235 387.935L294.836 384.31V353.51C294.836 352.658 294.614 351.675 293.99 350.737L291.234 353.51Z" fill="#111111"/>
<path d="M264.109 353.509C264.109 353.443 264.117 353.367 264.129 353.293C264.138 353.244 264.15 353.197 264.162 353.151C264.167 353.137 264.172 353.129 264.179 353.11C264.194 353.048 264.207 352.988 264.224 352.927C264.227 352.922 264.23 352.916 264.233 352.91C264.263 352.845 264.299 352.786 264.339 352.745L261.769 350.175C260.8 351.296 260.508 352.468 260.508 353.508V384.31L264.11 387.935C264.109 374.105 264.109 361.251 264.109 353.509Z" fill="#111111"/>
<path d="M325.654 415.049C325.654 415.049 310.193 415.049 291.235 415.049L294.835 418.669H325.654H327.15L327.49 418.324C327.798 418.196 328.107 418.021 328.415 417.826L325.654 415.049Z" fill="#111111"/>
<path d="M291.235 449.473L293.989 452.243C294.613 451.298 294.835 450.323 294.835 449.473V418.669L291.235 415.049C291.235 428.875 291.235 441.728 291.235 449.473Z" fill="#111111"/>
<path d="M331.963 391.3C331.118 387.898 329.782 386.087 328.41 385.157L325.655 387.935C330.622 387.935 330.622 415.048 325.655 415.048L328.415 417.825C329.784 416.895 331.12 415.078 331.963 411.678C332.627 408.932 332.995 405.321 332.995 401.486C332.995 397.657 332.627 394.045 331.963 391.3Z" fill="#111111"/>
<path d="M291.214 449.707C290.807 452.036 284.239 453.198 277.672 453.198C271.105 453.198 264.538 452.036 264.13 449.707C264.116 449.625 264.109 449.542 264.109 449.473L261.324 452.244C262.253 453.611 264.067 454.946 267.492 455.766C270.213 456.438 273.825 456.807 277.672 456.807C281.49 456.807 285.104 456.438 287.847 455.766C291.277 454.946 293.09 453.609 293.99 452.242L291.236 449.472C291.235 449.542 291.228 449.625 291.214 449.707Z" fill="#111111"/>
<path d="M264.109 449.473C264.109 449.473 264.109 434.027 264.109 415.049L260.507 418.669V449.473V450.319L260.6 450.555C260.728 451.1 260.945 451.674 261.324 452.244L264.109 449.473Z" fill="#111111"/>
<path d="M229.688 415.049L226.905 417.823C227.866 418.443 228.825 418.669 229.688 418.669H260.506L264.108 415.049C250.286 415.049 237.444 415.049 229.688 415.049Z" fill="#111111"/>
<path d="M448.915 280.366C448.915 290.763 440.495 299.183 430.126 299.183C419.728 299.183 411.307 290.763 411.307 280.366C411.307 269.995 419.728 261.561 430.126 261.561C440.495 261.562 448.915 269.995 448.915 280.366Z" fill="#1D1D1D"/>
<path d="M446.227 280.366C446.227 289.268 438.998 296.469 430.125 296.469C421.223 296.469 414.022 289.268 414.022 280.366C414.022 271.47 421.223 264.263 430.125 264.263C438.998 264.264 446.227 271.471 446.227 280.366Z" fill="#1D1D1D" stroke="#E31E0B" stroke-miterlimit="10"/>
<path d="M437.292 275.741H422.931V277.293H437.292V275.741Z" fill="#6D6B6C"/>
<path d="M437.292 279.66H422.931V281.212H437.292V279.66Z" fill="#6D6B6C"/>
<path d="M437.292 283.469H422.931V285.002H437.292V283.469Z" fill="#6D6B6C"/>
<path d="M340.937 280.366C340.937 290.763 332.516 299.183 322.118 299.183C311.75 299.183 303.329 290.763 303.329 280.366C303.329 269.995 311.749 261.561 322.118 261.561C332.516 261.562 340.937 269.995 340.937 280.366Z" fill="#1D1D1D"/>
<path d="M338.221 280.366C338.221 289.268 331.02 296.469 322.118 296.469C313.246 296.469 306.015 289.268 306.015 280.366C306.015 271.47 313.246 264.263 322.118 264.263C331.02 264.264 338.221 271.471 338.221 280.366Z" fill="#1D1D1D" stroke="#E31E0B" stroke-miterlimit="10"/>
<path d="M319.601 280.266H316.57V276.481H322.042V277.802H323.842V274.743H314.951V282.132H319.601V280.266Z" fill="#6D6B6C"/>
<path d="M320.353 278.427V286.011H329.313V278.427H320.353ZM327.513 284.21H322.043V280.265H327.513V284.21Z" fill="#6D6B6C"/>
<path d="M185.468 351.49C148.14 351.49 117.773 321.125 117.773 283.802C117.773 246.479 148.139 216.116 185.468 216.116C222.804 216.116 253.175 246.479 253.175 283.802C253.175 321.125 222.805 351.49 185.468 351.49Z" fill="#E31E0B" stroke="#1D1D1D" stroke-opacity="0.15" stroke-width="2" stroke-miterlimit="10"/>
<path d="M241.571 279.865C241.571 310.842 216.465 335.949 185.468 335.949C154.487 335.949 129.376 310.842 129.376 279.865C129.376 248.865 154.487 223.759 185.468 223.759C216.465 223.759 241.571 248.865 241.571 279.865Z" fill="#1D1D1D" stroke="#1D1D1D" stroke-width="2" stroke-miterlimit="10"/>
<path d="M473.042 465.461C435.718 465.461 405.354 435.097 405.354 397.775C405.354 360.449 435.717 330.07 473.042 330.07C510.364 330.07 540.749 360.448 540.749 397.775C540.749 435.098 510.364 465.461 473.042 465.461Z" fill="#E31E0B" stroke="#1D1D1D" stroke-opacity="0.15" stroke-width="2" stroke-miterlimit="10"/>
<path d="M529.151 393.815C529.151 424.814 504.045 449.92 473.042 449.92C442.067 449.92 416.959 424.814 416.959 393.815C416.959 362.836 442.067 337.73 473.042 337.73C504.045 337.73 529.151 362.836 529.151 393.815Z" fill="#1D1D1D" stroke="#1D1D1D" stroke-width="2" stroke-miterlimit="10"/>
<circle cx="571" cy="280" r="83" fill="#E31E0B"/>
<circle cx="571" cy="280" r="82" stroke="#1D1D1D" stroke-opacity="0.15" stroke-width="2"/>
<path d="M570.76 355.27C556.871 355.27 545.572 343.966 545.572 330.071C545.572 316.179 556.871 304.877 570.76 304.877C584.658 304.877 595.965 316.179 595.965 330.071C595.965 343.965 584.658 355.27 570.76 355.27Z" fill="#171717"/>
<path d="M570.76 306.377C583.86 306.377 594.465 316.982 594.465 330.071C594.465 343.164 583.86 353.77 570.76 353.77C557.678 353.77 547.072 343.165 547.072 330.071C547.071 316.982 557.678 306.377 570.76 306.377ZM570.76 303.377C556.044 303.377 544.072 315.352 544.072 330.071C544.072 344.793 556.045 356.77 570.76 356.77C585.485 356.77 597.465 344.793 597.465 330.071C597.465 315.352 585.485 303.377 570.76 303.377Z" fill="#1D1D1D" fill-opacity="0.5"/>
<path d="M570.76 254.196C556.871 254.196 545.572 242.888 545.572 228.989C545.572 215.101 556.871 203.802 570.76 203.802C584.658 203.802 595.965 215.101 595.965 228.989C595.965 242.889 584.658 254.196 570.76 254.196Z" fill="#171717"/>
<path d="M570.76 205.303C583.86 205.303 594.465 215.908 594.465 228.99C594.465 242.091 583.86 252.697 570.76 252.697C557.678 252.697 547.072 242.091 547.072 228.99C547.071 215.908 557.678 205.303 570.76 205.303ZM570.76 202.303C556.044 202.303 544.072 214.275 544.072 228.99C544.072 243.716 556.045 255.697 570.76 255.697C585.485 255.697 597.465 243.716 597.465 228.99C597.465 214.274 585.485 202.303 570.76 202.303Z" fill="#1D1D1D" fill-opacity="0.5"/>
<path d="M621.3 304.732C607.41 304.732 596.11 293.425 596.11 279.528C596.11 265.638 607.41 254.339 621.3 254.339C635.197 254.339 646.503 265.639 646.503 279.528C646.503 293.426 635.197 304.732 621.3 304.732Z" fill="#171717"/>
<path d="M621.3 255.839C634.397 255.839 645.003 266.444 645.003 279.528C645.003 292.627 634.397 303.232 621.3 303.232C608.215 303.232 597.61 292.627 597.61 279.528C597.609 266.444 608.215 255.839 621.3 255.839ZM621.3 252.839C606.583 252.839 594.61 264.812 594.61 279.528C594.61 294.253 606.583 306.232 621.3 306.232C636.024 306.232 648.003 294.253 648.003 279.528C648.003 264.812 636.024 252.839 621.3 252.839Z" fill="#1D1D1D" fill-opacity="0.5"/>
<path d="M520.217 304.732C506.331 304.732 495.034 293.425 495.034 279.528C495.034 265.638 506.331 254.339 520.217 254.339C534.118 254.339 545.428 265.639 545.428 279.528C545.428 293.426 534.118 304.732 520.217 304.732Z" fill="#171717"/>
<path d="M520.217 255.839C533.322 255.839 543.928 266.444 543.928 279.528C543.928 292.627 533.323 303.232 520.217 303.232C507.141 303.232 496.534 292.627 496.534 279.528C496.534 266.444 507.141 255.839 520.217 255.839ZM520.217 252.839C505.504 252.839 493.534 264.812 493.534 279.528C493.534 294.253 505.504 306.232 520.217 306.232C534.946 306.232 546.928 294.253 546.928 279.528C546.928 264.812 534.945 252.839 520.217 252.839Z" fill="#1D1D1D" fill-opacity="0.5"/>
<path d="M375.616 156.499C375.616 156.499 286.699 155.432 275.068 153.526L258.684 184.064C278.922 207.335 300.267 237.376 315.125 237.376C330.188 237.376 375.615 237.376 375.615 237.376C375.615 237.376 421.043 237.376 436.111 237.376C450.983 237.376 472.308 207.335 492.574 184.064L476.191 153.526C464.561 155.431 375.616 156.499 375.616 156.499Z" fill="#1D1D1D"/>
<path d="M476.191 153.526L472.553 146.748C470.697 147.228 468.9 147.496 467.169 147.496C445.304 147.496 375.004 147.496 375.004 147.496C375.004 147.496 304.704 147.496 282.839 147.496C281.447 147.496 280.021 147.307 278.557 146.995L275.067 153.526C286.698 155.431 375.615 156.499 375.615 156.499C375.615 156.499 464.56 155.431 476.191 153.526Z" fill="#141414"/>
<path d="M642.55 191.957C633.57 184.019 636.914 175.797 631.081 168.113C631.321 168.439 631.567 168.765 631.779 169.092C631.751 169.079 535.252 127.033 510.979 134.614C495.41 139.483 483.737 149.945 478.148 152.838L494.024 182.421C505.193 169.743 515.966 159.416 525.081 157.66C545.101 153.812 608.995 173.958 642.56 191.965C642.557 191.964 642.553 191.96 642.55 191.957Z" fill="#1D1D1D"/>
<path d="M510.979 134.615C535.252 127.033 631.751 169.08 631.779 169.093C631.567 168.765 631.321 168.439 631.081 168.114C631.052 168.075 631.019 168.036 630.99 167.997C630.889 167.861 630.808 167.755 630.698 167.622C630.654 167.567 630.608 167.513 630.563 167.461C630.478 167.368 630.393 167.249 630.289 167.129C630.234 167.078 630.181 167.032 630.134 166.97C630.051 166.86 629.953 166.75 629.852 166.669C629.788 166.602 629.739 166.533 629.686 166.465C629.586 166.361 629.485 166.285 629.397 166.179C629.34 166.109 629.27 166.038 629.198 165.98C629.094 165.897 629.007 165.795 628.911 165.693C628.834 165.624 628.757 165.576 628.682 165.505C628.599 165.405 628.491 165.306 628.378 165.226C628.302 165.163 628.235 165.089 628.154 165.016C628.041 164.919 627.938 164.848 627.839 164.753C627.75 164.678 627.659 164.605 627.571 164.534C627.477 164.463 627.357 164.367 627.238 164.271C627.164 164.197 627.073 164.138 626.974 164.076C626.85 163.98 626.747 163.886 626.62 163.796C626.523 163.746 626.444 163.671 626.349 163.597C626.215 163.501 626.088 163.416 625.967 163.339C625.861 163.265 625.761 163.192 625.678 163.119C625.535 163.037 625.388 162.954 625.268 162.857C625.161 162.786 625.057 162.715 624.97 162.665C624.816 162.573 624.654 162.472 624.519 162.372C624.411 162.317 624.31 162.268 624.224 162.201C624.042 162.09 623.874 161.981 623.693 161.898C623.598 161.842 623.525 161.786 623.436 161.731C623.159 161.58 622.88 161.429 622.604 161.264C604.323 151.35 550.624 124.267 508.383 129.889C500.774 130.894 486.749 142.231 474.563 146.17L478.146 152.841C483.736 149.946 495.409 139.484 510.979 134.615Z" fill="#0D0D0D"/>
<path d="M241.625 129.887C199.377 124.265 145.686 151.348 127.405 161.262C127.131 161.426 126.848 161.575 126.577 161.726C126.494 161.78 126.42 161.836 126.327 161.89C126.144 161.973 125.976 162.082 125.794 162.193C125.71 162.258 125.61 162.31 125.504 162.361C125.362 162.462 125.207 162.563 125.052 162.658C124.968 162.704 124.869 162.771 124.764 162.84C124.633 162.939 124.491 163.028 124.345 163.108C124.263 163.176 124.175 163.245 124.076 163.314C123.942 163.401 123.817 163.485 123.679 163.584C123.588 163.652 123.516 163.721 123.428 163.774C123.291 163.861 123.171 163.962 123.051 164.064C122.963 164.125 122.878 164.17 122.807 164.236C122.688 164.339 122.557 164.443 122.445 164.523C122.378 164.582 122.298 164.648 122.219 164.714C122.103 164.819 121.995 164.898 121.871 165.002C121.799 165.066 121.737 165.129 121.678 165.192C121.56 165.273 121.438 165.381 121.337 165.491C121.281 165.552 121.216 165.6 121.151 165.645C121.031 165.757 120.937 165.871 120.825 165.97C120.768 166.012 120.711 166.068 120.658 166.125C120.563 166.244 120.449 166.346 120.335 166.453C120.29 166.505 120.248 166.557 120.21 166.609C120.097 166.716 119.983 166.831 119.885 166.957C119.854 167.002 119.817 167.045 119.778 167.078C119.66 167.199 119.553 167.333 119.463 167.448C119.431 167.477 119.399 167.514 119.368 167.552C119.25 167.696 119.149 167.818 119.053 167.955C119.031 167.984 119.008 168.013 118.985 168.042C118.866 168.18 118.769 168.327 118.664 168.484C118.652 168.5 118.641 168.514 118.628 168.526C118.504 168.678 118.401 168.854 118.295 168.999C118.32 168.989 215.983 127.038 240.279 134.62C255.819 139.489 267.502 149.951 273.081 152.844L276.504 146.502C264.093 142.908 249.473 130.924 241.625 129.887Z" fill="#0D0D0D"/>
<path d="M273.57 153.096C273.726 153.159 273.876 153.219 274.034 153.283C273.876 153.219 273.727 153.157 273.57 153.096Z" fill="#1A1A1A"/>
<path d="M273.097 152.847C267.518 149.965 255.835 139.489 240.282 134.616C216.074 127.062 118.975 168.708 118.305 168.992C113.334 176.427 116.094 184.323 107.464 191.958C107.448 191.971 107.422 191.981 107.404 191.992C140.563 174.117 206.569 153.882 226.153 157.661C235.276 159.417 246.058 169.744 257.233 182.422L273.084 152.839C273.088 152.842 273.092 152.845 273.097 152.847Z" fill="#1D1D1D"/>
<path d="M273.098 152.847C273.27 152.935 273.411 153.02 273.571 153.096C273.41 153.019 273.27 152.935 273.098 152.847Z" fill="black"/>
<path d="M257.959 183.228C258.193 183.524 258.425 183.793 258.684 184.063L275.068 153.525L278.558 146.994C278.214 146.928 277.87 146.863 277.52 146.768C277.185 146.676 276.847 146.578 276.507 146.497L273.084 152.839L257.233 182.422C257.468 182.69 257.7 182.957 257.959 183.228Z" fill="#E31E0B"/>
<path d="M478.148 152.839L474.565 146.168C474.232 146.261 473.899 146.375 473.569 146.479C473.23 146.568 472.891 146.655 472.554 146.749L476.192 153.527L492.575 184.065C492.807 183.795 493.067 183.526 493.298 183.229C493.53 182.959 493.792 182.692 494.024 182.424L478.148 152.839Z" fill="#E31E0B"/>
<path d="M356.946 169.294L356.943 169.296L356.946 169.294Z" fill="#1A1A1A"/>
<path d="M549.081 5.46614C548.679 5.14714 548.276 4.84814 547.87 4.56714L545.522 114.562L598.795 121.796C586.728 4.97414 555.823 10.7621 549.081 5.46614Z" fill="#1D1D1D"/>
<path d="M522.043 0.142095C511.22 0.545095 509.98 11.5811 509.861 15.3321V16.5591C509.861 16.5591 512.761 57.2751 509.861 109.653C519.787 111.942 548.396 114.951 548.396 114.951C548.396 114.951 548.431 94.0371 549.081 64.3551C549.883 26.8541 547.87 4.56709 547.87 4.56709C541.453 0.091095 534.302 -0.306905 522.043 0.142095Z" fill="#121212"/>
<path d="M200.996 5.46614C201.397 5.14714 201.801 4.84814 202.207 4.56714L204.529 114.562L151.281 121.796C163.348 4.97414 194.24 10.7621 200.996 5.46614Z" fill="#1D1D1D"/>
<path d="M228.023 0.142095C238.856 0.545095 240.092 11.5811 240.216 15.3321V16.5591C240.216 16.5591 237.315 57.2751 240.216 109.653C230.29 111.942 201.677 114.951 201.677 114.951C201.677 114.951 201.626 94.0371 200.997 64.3551C200.186 26.8541 202.208 4.56709 202.208 4.56709C208.625 0.091095 215.774 -0.306905 228.023 0.142095Z" fill="#121212"/>
<path d="M340.776 179.435C340.776 180.302 340.62 181.188 340.307 182.091C340.006 182.982 339.59 183.867 339.06 184.747C338.53 185.614 337.91 186.451 337.199 187.258C336.489 188.065 335.736 188.812 334.941 189.498C334.146 190.185 333.321 190.799 332.466 191.341C331.611 191.871 330.78 192.292 329.973 192.605C329.84 192.413 329.672 192.184 329.467 191.919C329.274 191.642 329.063 191.359 328.834 191.07C328.606 190.769 328.371 190.474 328.13 190.185C327.901 189.883 327.678 189.606 327.461 189.354C329.184 188.679 330.725 187.878 332.086 186.951C333.459 186.023 334.622 185.054 335.573 184.042C336.537 183.018 337.271 181.988 337.777 180.953C338.295 179.905 338.554 178.929 338.554 178.026C338.554 177.905 338.536 177.779 338.5 177.646C338.464 177.514 338.404 177.4 338.319 177.303C338.235 177.207 338.121 177.141 337.976 177.104C337.844 177.056 337.681 177.056 337.488 177.104C336.922 177.225 336.296 177.448 335.609 177.773C334.935 178.098 334.218 178.508 333.459 179.001C332.713 179.483 331.93 180.043 331.111 180.682C330.304 181.32 329.485 182.007 328.654 182.741C328.208 184.138 327.696 185.62 327.118 187.186C326.54 188.739 325.914 190.293 325.239 191.847C324.565 193.388 323.854 194.888 323.107 196.345C322.373 197.803 321.62 199.139 320.849 200.356C320.09 201.56 319.326 202.602 318.555 203.481C317.796 204.373 317.061 205.011 316.351 205.396C316.17 205.493 315.947 205.583 315.682 205.667C315.429 205.752 315.11 205.812 314.725 205.848C314.58 205.86 314.411 205.8 314.219 205.667C314.014 205.535 313.809 205.366 313.604 205.162C313.4 204.957 313.195 204.728 312.99 204.475C312.785 204.222 312.599 203.981 312.43 203.752C312.25 203.524 312.105 203.319 311.997 203.138C311.876 202.958 311.798 202.837 311.762 202.777C311.665 202.596 311.617 202.379 311.617 202.126C311.605 201.886 311.629 201.645 311.689 201.404C311.93 200.597 312.268 199.712 312.701 198.748C313.135 197.785 313.647 196.779 314.237 195.731C314.815 194.671 315.459 193.587 316.17 192.479C316.893 191.359 317.663 190.251 318.482 189.155C319.313 188.047 320.181 186.957 321.084 185.885C321.999 184.813 322.939 183.789 323.902 182.813C324.517 180.898 325.022 179.086 325.42 177.375C325.817 175.665 326.052 174.178 326.125 172.913C326.606 173.106 327.064 173.353 327.498 173.654C327.931 173.955 328.323 174.268 328.672 174.593C329.021 174.918 329.328 175.244 329.593 175.569C329.858 175.894 330.069 176.183 330.226 176.436C330.201 176.641 330.171 176.852 330.135 177.068C330.099 177.273 330.051 177.496 329.991 177.737C331.207 176.954 332.4 176.346 333.568 175.912C334.748 175.466 335.892 175.244 337 175.244C337.229 175.244 337.476 175.316 337.741 175.46C338.018 175.605 338.295 175.798 338.572 176.039C338.849 176.267 339.114 176.526 339.367 176.815C339.632 177.104 339.867 177.4 340.072 177.701C340.277 177.99 340.439 178.267 340.56 178.532C340.692 178.785 340.764 178.995 340.776 179.164V179.435ZM314.616 202.145C314.893 202.145 315.267 201.837 315.736 201.223C316.206 200.609 316.73 199.772 317.308 198.712C317.898 197.652 318.519 196.417 319.169 195.008C319.819 193.599 320.464 192.106 321.102 190.528C320.151 191.66 319.265 192.78 318.446 193.888C317.639 194.996 316.935 196.05 316.333 197.05C315.742 198.037 315.279 198.953 314.941 199.796C314.604 200.627 314.436 201.338 314.436 201.928C314.436 202.072 314.496 202.145 314.616 202.145ZM347.66 197.556C346.552 198.64 345.504 199.549 344.516 200.284C343.541 201.018 342.607 201.609 341.716 202.054C340.825 202.5 339.969 202.819 339.15 203.012C338.343 203.204 337.555 203.301 336.784 203.301C336.458 203.301 336.097 203.18 335.7 202.939C335.302 202.699 334.935 202.403 334.598 202.054C334.248 201.717 333.959 201.362 333.73 200.988C333.502 200.615 333.387 200.296 333.387 200.031C333.387 199.043 333.526 198.14 333.803 197.321C334.068 196.49 334.423 195.743 334.869 195.081C335.314 194.418 335.82 193.834 336.386 193.328C336.964 192.822 337.561 192.401 338.175 192.063C338.801 191.726 339.421 191.473 340.036 191.305C340.65 191.136 341.216 191.052 341.734 191.052C342.107 191.052 342.475 191.16 342.836 191.377C343.209 191.594 343.547 191.859 343.848 192.172C344.149 192.485 344.39 192.816 344.57 193.166C344.763 193.503 344.859 193.798 344.859 194.051C344.859 194.46 344.685 194.882 344.335 195.315C343.998 195.737 343.516 196.171 342.89 196.616C342.264 197.062 341.511 197.52 340.632 197.989C339.753 198.447 338.783 198.911 337.723 199.38C337.687 199.669 337.669 199.952 337.669 200.229C337.669 200.603 337.747 200.856 337.904 200.988C338.072 201.121 338.38 201.187 338.825 201.187C339.62 201.187 340.367 201.055 341.065 200.79C341.776 200.525 342.457 200.181 343.107 199.76C343.757 199.338 344.384 198.856 344.986 198.314C345.588 197.772 346.184 197.224 346.774 196.67L347.66 197.556ZM341.3 193.039C341.059 193.039 340.794 193.172 340.505 193.437C340.216 193.689 339.927 194.027 339.638 194.448C339.349 194.87 339.072 195.358 338.807 195.912C338.542 196.454 338.313 197.02 338.121 197.61C338.566 197.321 339 197.014 339.421 196.688C339.855 196.363 340.24 196.026 340.578 195.677C340.915 195.315 341.186 194.948 341.391 194.575C341.595 194.201 341.698 193.828 341.698 193.455C341.698 193.346 341.662 193.25 341.589 193.166C341.529 193.081 341.433 193.039 341.3 193.039ZM351.905 193.274C351.761 193.659 351.616 194.051 351.472 194.448C351.327 194.846 351.183 195.255 351.038 195.677C351.797 194.81 352.447 194.105 352.989 193.563C353.543 193.009 354.007 192.575 354.38 192.262C354.766 191.949 355.073 191.738 355.302 191.63C355.543 191.509 355.729 191.449 355.862 191.449C356.018 191.449 356.253 191.528 356.566 191.684C356.88 191.841 357.193 192.033 357.506 192.262C357.831 192.491 358.108 192.726 358.337 192.967C358.578 193.208 358.698 193.418 358.698 193.599C358.698 193.635 358.692 193.683 358.68 193.744C358.668 193.792 358.65 193.858 358.626 193.942C358.53 194.243 358.403 194.599 358.247 195.008C358.102 195.418 357.945 195.845 357.777 196.291C357.608 196.725 357.44 197.164 357.271 197.61C357.102 198.043 356.952 198.453 356.819 198.838C356.687 199.224 356.578 199.561 356.494 199.85C356.41 200.139 356.368 200.35 356.368 200.482C356.368 200.555 356.404 200.591 356.476 200.591C356.609 200.591 356.807 200.513 357.072 200.356C357.337 200.199 357.638 199.995 357.976 199.742C358.325 199.489 358.686 199.212 359.06 198.911C359.433 198.61 359.788 198.314 360.125 198.025C360.475 197.724 360.788 197.453 361.065 197.212C361.342 196.972 361.553 196.791 361.697 196.67C361.818 196.779 361.95 196.917 362.095 197.086C362.239 197.255 362.378 197.411 362.51 197.556C362.245 197.821 361.914 198.146 361.517 198.531C361.119 198.905 360.686 199.29 360.216 199.688C359.758 200.085 359.276 200.482 358.771 200.88C358.277 201.277 357.795 201.633 357.325 201.946C356.855 202.259 356.416 202.512 356.006 202.705C355.597 202.897 355.254 202.994 354.977 202.994C354.796 202.994 354.567 202.927 354.29 202.795C354.013 202.674 353.742 202.518 353.477 202.325C353.224 202.145 353.007 201.94 352.827 201.711C352.646 201.482 352.556 201.259 352.556 201.042C352.664 200.549 352.809 199.989 352.989 199.362C353.182 198.736 353.387 198.098 353.604 197.447C353.82 196.785 354.043 196.134 354.272 195.496C354.513 194.846 354.742 194.25 354.958 193.708L354.922 193.744C354.694 194.021 354.362 194.388 353.929 194.846C353.507 195.291 353.025 195.869 352.483 196.58C351.941 197.279 351.369 198.128 350.767 199.127C350.165 200.115 349.575 201.289 348.997 202.65C348.924 202.819 348.858 202.951 348.798 203.048C348.738 203.144 348.623 203.192 348.455 203.192C348.25 203.192 348.015 203.132 347.75 203.012C347.497 202.903 347.238 202.753 346.973 202.56C346.696 202.379 346.425 202.175 346.16 201.946C345.883 201.717 345.636 201.488 345.419 201.259C345.419 201.187 345.456 200.982 345.528 200.645C345.588 200.308 345.678 199.886 345.799 199.38C345.919 198.862 346.07 198.278 346.25 197.628C346.431 196.965 346.636 196.273 346.865 195.55C347.094 194.828 347.347 194.093 347.624 193.346C347.889 192.587 348.178 191.859 348.491 191.16C348.997 191.401 349.557 191.696 350.171 192.045C350.797 192.395 351.375 192.804 351.905 193.274ZM376.656 197.556C375.62 198.616 374.579 199.591 373.531 200.482C372.495 201.362 371.465 202.187 370.441 202.958C370.249 203.512 370.038 204.072 369.809 204.638C369.592 205.216 369.363 205.794 369.123 206.372C368.773 207.167 368.364 207.926 367.894 208.648C367.436 209.383 366.949 210.058 366.431 210.672C365.913 211.298 365.383 211.858 364.841 212.352C364.299 212.858 363.775 213.285 363.269 213.635C362.775 213.984 362.318 214.255 361.896 214.448C361.462 214.64 361.095 214.737 360.794 214.737C360.589 214.737 360.348 214.646 360.071 214.466C359.794 214.285 359.535 214.056 359.294 213.779C359.042 213.514 358.831 213.219 358.662 212.894C358.481 212.581 358.391 212.28 358.391 211.991C358.391 211.364 358.608 210.75 359.042 210.148C359.463 209.546 360.053 208.925 360.812 208.287C361.559 207.649 362.438 206.974 363.45 206.264C364.461 205.565 365.557 204.806 366.738 203.987C367.003 203.301 367.298 202.488 367.623 201.548C367.96 200.597 368.358 199.429 368.815 198.043C368.382 198.646 367.876 199.242 367.298 199.832C366.72 200.41 366.124 200.928 365.509 201.386C364.895 201.843 364.281 202.211 363.667 202.488C363.064 202.777 362.51 202.921 362.004 202.921C361.872 202.921 361.703 202.855 361.499 202.723C361.282 202.602 361.071 202.44 360.866 202.235C360.649 202.03 360.469 201.789 360.324 201.512C360.168 201.235 360.089 200.94 360.089 200.627C360.089 200.229 360.186 199.754 360.378 199.2C360.571 198.634 360.854 198.037 361.228 197.411C361.589 196.785 362.028 196.146 362.546 195.496C363.076 194.846 363.667 194.237 364.317 193.671C364.979 193.093 365.696 192.581 366.467 192.136C367.25 191.678 368.081 191.329 368.96 191.088C369.092 191.088 369.279 191.142 369.52 191.25C369.761 191.347 369.996 191.461 370.225 191.594C370.465 191.714 370.67 191.835 370.839 191.955C371.02 192.076 371.11 192.154 371.11 192.19C371.11 192.214 371.092 192.244 371.056 192.28C371.032 192.292 371.014 192.298 371.001 192.298C370.724 192.467 370.369 192.702 369.936 193.003C369.502 193.304 369.044 193.647 368.562 194.033C368.081 194.406 367.599 194.81 367.117 195.243C366.635 195.677 366.196 196.11 365.798 196.544C365.413 196.965 365.1 197.375 364.859 197.772C364.618 198.158 364.498 198.507 364.498 198.82C364.498 198.929 364.522 199.025 364.57 199.109C364.63 199.182 364.714 199.218 364.823 199.218C365.124 199.218 365.461 199.115 365.834 198.911C366.22 198.694 366.611 198.417 367.009 198.08C367.406 197.742 367.804 197.369 368.201 196.959C368.599 196.538 368.972 196.128 369.321 195.731C369.683 195.321 370.002 194.942 370.279 194.593C370.556 194.243 370.773 193.96 370.929 193.744C370.953 193.72 370.971 193.695 370.983 193.671C371.007 193.647 371.038 193.623 371.074 193.599C371.17 193.623 371.297 193.744 371.453 193.96C371.622 194.177 371.784 194.43 371.941 194.719C372.097 194.996 372.23 195.273 372.338 195.55C372.459 195.827 372.519 196.026 372.519 196.146V196.183C372.519 196.195 372.507 196.237 372.483 196.309C372.35 196.731 372.182 197.321 371.977 198.08C371.772 198.838 371.513 199.712 371.2 200.699C371.971 200.085 372.742 199.441 373.513 198.766C374.296 198.092 375.072 197.369 375.843 196.598L376.656 197.556ZM360.523 212.316C360.764 212.316 361.113 212.129 361.571 211.756C362.016 211.395 362.492 210.925 362.998 210.347C363.504 209.781 363.998 209.148 364.479 208.45C364.973 207.763 365.383 207.095 365.708 206.444C364.925 207.01 364.208 207.54 363.558 208.034C362.908 208.54 362.354 209.028 361.896 209.498C361.426 209.967 361.065 210.419 360.812 210.853C360.547 211.298 360.415 211.738 360.415 212.171C360.415 212.268 360.451 212.316 360.523 212.316ZM385.906 200.41C385.906 200.482 385.942 200.519 386.015 200.519C386.123 200.519 386.304 200.44 386.557 200.284C386.81 200.127 387.099 199.928 387.424 199.688C387.749 199.447 388.092 199.176 388.454 198.875C388.827 198.573 389.182 198.278 389.52 197.989C389.857 197.7 390.158 197.435 390.423 197.194C390.7 196.953 390.911 196.767 391.055 196.634C391.164 196.743 391.296 196.887 391.453 197.068C391.621 197.249 391.772 197.411 391.904 197.556C391.615 197.821 391.266 198.146 390.856 198.531C390.459 198.905 390.025 199.296 389.556 199.706C389.098 200.115 388.622 200.525 388.128 200.934C387.635 201.332 387.153 201.687 386.683 202C386.213 202.313 385.768 202.566 385.346 202.759C384.925 202.964 384.557 203.066 384.244 203.066C384.027 203.066 383.786 203.024 383.521 202.939C383.269 202.855 383.034 202.735 382.817 202.578C382.6 202.434 382.419 202.259 382.275 202.054C382.13 201.849 382.058 201.621 382.058 201.368C382.058 201.271 382.052 201.157 382.04 201.024C382.04 200.88 382.052 200.699 382.076 200.482C382.1 200.254 382.148 199.983 382.221 199.669C382.293 199.344 382.401 198.947 382.546 198.477C382.148 198.899 381.679 199.338 381.137 199.796C380.607 200.254 380.047 200.687 379.457 201.097C378.866 201.506 378.27 201.874 377.668 202.199C377.078 202.536 376.53 202.789 376.024 202.958C375.964 202.982 375.916 202.994 375.879 202.994C375.843 202.994 375.807 202.994 375.771 202.994C375.651 202.994 375.494 202.933 375.301 202.813C375.097 202.693 374.898 202.53 374.705 202.325C374.512 202.132 374.35 201.91 374.217 201.657C374.073 201.404 374 201.151 374 200.898C374 200.826 374.037 200.585 374.109 200.175C374.181 199.766 374.356 199.248 374.633 198.622C374.898 197.983 375.295 197.273 375.825 196.49C376.355 195.695 377.078 194.882 377.993 194.051C378.463 193.629 378.969 193.232 379.511 192.858C379.968 192.545 380.492 192.226 381.083 191.901C381.673 191.576 382.293 191.317 382.943 191.124C382.967 191.124 382.986 191.118 382.998 191.106C383.022 191.094 383.052 191.1 383.088 191.124C383.232 191.172 383.401 191.25 383.594 191.359C383.799 191.455 383.997 191.564 384.19 191.684C384.395 191.792 384.569 191.907 384.714 192.027C384.87 192.136 384.973 192.226 385.021 192.298C385.033 192.322 385.033 192.34 385.021 192.353L384.985 192.389C384.443 192.678 383.931 193.003 383.449 193.364C382.967 193.714 382.54 194.045 382.167 194.358C381.733 194.731 381.329 195.099 380.956 195.46C380.077 196.327 379.469 197.08 379.131 197.718C378.794 198.345 378.625 198.796 378.625 199.073C378.625 199.278 378.71 199.38 378.878 199.38C379.047 199.38 379.258 199.314 379.511 199.182C379.776 199.037 380.071 198.85 380.396 198.622C380.721 198.381 381.076 198.104 381.462 197.791C381.859 197.465 382.269 197.128 382.69 196.779C383.064 196.478 383.425 196.153 383.774 195.803C384.076 195.514 384.389 195.183 384.714 194.81C385.039 194.436 385.316 194.057 385.545 193.671C385.545 193.659 385.551 193.647 385.563 193.635C385.575 193.623 385.593 193.623 385.617 193.635C385.75 193.732 385.9 193.894 386.069 194.123C386.237 194.34 386.394 194.581 386.539 194.846C386.683 195.111 386.804 195.37 386.9 195.623C387.008 195.863 387.062 196.05 387.062 196.183C386.785 196.749 386.569 197.267 386.412 197.736C386.268 198.194 386.153 198.597 386.069 198.947C385.997 199.296 385.948 199.597 385.924 199.85C385.912 200.091 385.906 200.278 385.906 200.41ZM394.831 200.735C395.024 200.735 395.283 200.651 395.608 200.482C395.945 200.314 396.312 200.103 396.71 199.85C397.107 199.585 397.523 199.296 397.957 198.983C398.39 198.67 398.794 198.363 399.167 198.062C399.552 197.76 399.896 197.483 400.197 197.23C400.498 196.978 400.721 196.791 400.865 196.67C400.974 196.779 401.1 196.917 401.245 197.086C401.401 197.255 401.546 197.411 401.678 197.556C401.413 197.821 401.082 198.146 400.685 198.531C400.287 198.905 399.854 199.29 399.384 199.688C398.926 200.085 398.444 200.482 397.938 200.88C397.445 201.277 396.957 201.633 396.475 201.946C396.005 202.259 395.566 202.512 395.156 202.705C394.747 202.897 394.403 202.994 394.126 202.994C393.753 202.994 393.356 202.861 392.934 202.596C392.525 202.331 392.139 202.024 391.778 201.675C391.417 201.313 391.109 200.952 390.856 200.591C390.604 200.229 390.459 199.958 390.423 199.778C390.399 199.706 390.387 199.621 390.387 199.525C390.387 199.417 390.387 199.302 390.387 199.182C390.387 198.579 390.465 197.821 390.622 196.905C390.766 195.978 390.965 195.002 391.218 193.979C391.471 192.943 391.76 191.919 392.085 190.907C392.422 189.883 392.771 188.98 393.133 188.197C393.868 186.595 394.62 185.174 395.391 183.934C396.174 182.693 396.939 181.615 397.686 180.7C398.432 179.772 399.149 178.995 399.835 178.369C400.522 177.743 401.136 177.237 401.678 176.852C402.232 176.466 402.696 176.189 403.069 176.021C403.455 175.852 403.72 175.768 403.864 175.768C404.093 175.852 404.322 175.978 404.551 176.147C404.792 176.304 405.014 176.472 405.219 176.653C405.424 176.833 405.605 177.014 405.761 177.195C405.918 177.363 406.032 177.49 406.104 177.574C406.201 177.671 406.261 177.767 406.285 177.863C406.321 177.948 406.339 178.062 406.339 178.207C406.339 178.496 406.267 178.893 406.123 179.399C405.978 179.905 405.707 180.549 405.31 181.332C404.912 182.103 404.358 183.03 403.647 184.114C402.949 185.198 402.034 186.463 400.901 187.908C400.371 188.583 399.811 189.269 399.221 189.968C398.715 190.57 398.131 191.226 397.469 191.937C396.806 192.648 396.126 193.328 395.427 193.979C395.078 195.303 394.831 196.472 394.687 197.483C394.554 198.495 394.488 199.284 394.488 199.85C394.488 200.223 394.518 200.464 394.578 200.573C394.638 200.681 394.723 200.735 394.831 200.735ZM397.722 187.493C397.517 187.95 397.324 188.396 397.144 188.83C396.975 189.263 396.812 189.691 396.656 190.112C397.029 189.691 397.366 189.287 397.667 188.902C397.981 188.516 398.246 188.185 398.462 187.908C398.715 187.583 398.944 187.276 399.149 186.987C399.992 185.806 400.721 184.722 401.335 183.735C401.949 182.747 402.455 181.88 402.853 181.133C403.25 180.375 403.539 179.748 403.72 179.254C403.912 178.749 404.009 178.387 404.009 178.17C404.009 178.11 404.003 178.068 403.991 178.044C403.991 178.008 403.961 177.99 403.9 177.99C403.792 177.99 403.545 178.17 403.16 178.532C402.774 178.881 402.299 179.441 401.732 180.212C401.178 180.983 400.552 181.97 399.854 183.175C399.167 184.367 398.456 185.806 397.722 187.493ZM403.033 200.157C403.033 200.519 403.166 200.699 403.431 200.699C403.708 200.699 404.075 200.482 404.533 200.049C404.99 199.603 405.466 199.043 405.96 198.369C405.936 198.236 405.918 198.122 405.906 198.025C405.906 197.917 405.906 197.821 405.906 197.736C405.906 197.495 405.93 197.212 405.978 196.887C406.038 196.55 406.177 196.171 406.394 195.749C406.538 195.424 406.713 195.105 406.917 194.792C407.086 194.514 407.291 194.219 407.532 193.906C407.773 193.581 408.038 193.28 408.327 193.003L408.435 192.895C408.556 193.039 408.712 193.238 408.905 193.491C409.11 193.732 409.308 193.985 409.501 194.25C409.706 194.502 409.88 194.737 410.025 194.954C410.181 195.171 410.278 195.321 410.314 195.406C410.314 195.924 410.218 196.442 410.025 196.959C409.844 197.477 409.597 197.989 409.284 198.495C410.007 198.447 410.675 198.266 411.29 197.953C411.916 197.628 412.566 197.104 413.241 196.381C413.349 196.49 413.488 196.64 413.656 196.833C413.837 197.014 413.981 197.17 414.09 197.303C413.584 197.833 413.084 198.272 412.59 198.622C412.109 198.971 411.621 199.248 411.127 199.453C410.645 199.657 410.151 199.808 409.646 199.904C409.14 199.989 408.622 200.031 408.092 200.031C407.682 200.464 407.243 200.862 406.773 201.223C406.303 201.584 405.821 201.898 405.328 202.163C404.846 202.428 404.364 202.632 403.882 202.777C403.401 202.921 402.943 202.994 402.509 202.994C402.148 202.994 401.775 202.885 401.389 202.668C401.004 202.452 400.654 202.187 400.341 201.874C400.028 201.548 399.769 201.205 399.564 200.844C399.36 200.482 399.257 200.163 399.257 199.886C399.257 198.971 399.384 198.062 399.637 197.158C399.878 196.255 400.263 195.412 400.793 194.629C401.311 193.834 401.973 193.135 402.78 192.533C403.599 191.931 404.569 191.473 405.689 191.16C405.725 191.136 405.785 191.118 405.87 191.106C405.966 191.094 406.044 191.088 406.104 191.088C406.273 191.088 406.448 191.154 406.628 191.287C406.821 191.407 406.996 191.546 407.152 191.702C407.321 191.859 407.459 192.015 407.568 192.172C407.676 192.316 407.73 192.413 407.73 192.461C407.706 192.521 407.616 192.599 407.459 192.696C407.303 192.78 407.092 192.931 406.827 193.147C406.562 193.364 406.249 193.677 405.888 194.087C405.526 194.484 405.129 195.014 404.695 195.677C404.045 196.652 403.605 197.538 403.376 198.333C403.148 199.115 403.033 199.724 403.033 200.157ZM418.101 193.274C417.956 193.659 417.812 194.051 417.667 194.448C417.522 194.846 417.378 195.255 417.233 195.677C417.992 194.81 418.643 194.105 419.185 193.563C419.739 193.009 420.202 192.575 420.576 192.262C420.961 191.949 421.268 191.738 421.497 191.63C421.738 191.509 421.925 191.449 422.057 191.449C422.214 191.449 422.449 191.528 422.762 191.684C423.075 191.841 423.388 192.033 423.701 192.262C424.026 192.491 424.303 192.726 424.532 192.967C424.773 193.208 424.894 193.418 424.894 193.599C424.894 193.635 424.888 193.683 424.875 193.744C424.863 193.792 424.845 193.858 424.821 193.942C424.725 194.243 424.598 194.599 424.442 195.008C424.297 195.418 424.141 195.845 423.972 196.291C423.804 196.725 423.635 197.164 423.466 197.61C423.298 198.043 423.147 198.453 423.015 198.838C422.882 199.224 422.774 199.561 422.689 199.85C422.605 200.139 422.563 200.35 422.563 200.482C422.563 200.555 422.599 200.591 422.671 200.591C422.804 200.591 423.003 200.513 423.268 200.356C423.533 200.199 423.834 199.995 424.171 199.742C424.52 199.489 424.882 199.212 425.255 198.911C425.628 198.61 425.984 198.314 426.321 198.025C426.67 197.724 426.983 197.453 427.26 197.212C427.537 196.972 427.748 196.791 427.893 196.67C428.013 196.779 428.146 196.917 428.29 197.086C428.435 197.255 428.573 197.411 428.706 197.556C428.441 197.821 428.109 198.146 427.712 198.531C427.314 198.905 426.881 199.29 426.411 199.688C425.953 200.085 425.472 200.482 424.966 200.88C424.472 201.277 423.99 201.633 423.521 201.946C423.051 202.259 422.611 202.512 422.202 202.705C421.792 202.897 421.449 202.994 421.172 202.994C420.991 202.994 420.762 202.927 420.485 202.795C420.208 202.674 419.937 202.518 419.672 202.325C419.419 202.145 419.203 201.94 419.022 201.711C418.841 201.482 418.751 201.259 418.751 201.042C418.859 200.549 419.004 199.989 419.185 199.362C419.377 198.736 419.582 198.098 419.799 197.447C420.016 196.785 420.238 196.134 420.467 195.496C420.708 194.846 420.937 194.25 421.154 193.708L421.118 193.744C420.889 194.021 420.558 194.388 420.124 194.846C419.702 195.291 419.221 195.869 418.679 196.58C418.137 197.279 417.565 198.128 416.962 199.127C416.36 200.115 415.77 201.289 415.192 202.65C415.12 202.819 415.053 202.951 414.993 203.048C414.933 203.144 414.819 203.192 414.65 203.192C414.445 203.192 414.21 203.132 413.945 203.012C413.692 202.903 413.433 202.753 413.168 202.56C412.891 202.379 412.62 202.175 412.355 201.946C412.078 201.717 411.832 201.488 411.615 201.259C411.615 201.187 411.651 200.982 411.723 200.645C411.783 200.308 411.874 199.886 411.994 199.38C412.115 198.862 412.265 198.278 412.446 197.628C412.626 196.965 412.831 196.273 413.06 195.55C413.289 194.828 413.542 194.093 413.819 193.346C414.084 192.587 414.373 191.859 414.686 191.16C415.192 191.401 415.752 191.696 416.366 192.045C416.993 192.395 417.571 192.804 418.101 193.274ZM429.049 202.994C428.868 202.994 428.639 202.927 428.362 202.795C428.085 202.674 427.82 202.518 427.567 202.325C427.314 202.145 427.098 201.94 426.917 201.711C426.736 201.482 426.646 201.259 426.646 201.042C426.766 200.513 426.929 199.904 427.134 199.218C427.339 198.531 427.561 197.833 427.802 197.122C428.031 196.411 428.278 195.719 428.543 195.044C428.796 194.358 429.025 193.75 429.229 193.22C429.446 192.69 429.633 192.262 429.79 191.937C429.946 191.612 430.049 191.449 430.097 191.449C430.169 191.449 430.35 191.528 430.639 191.684C430.928 191.841 431.229 192.033 431.542 192.262C431.867 192.479 432.156 192.714 432.409 192.967C432.662 193.208 432.789 193.418 432.789 193.599C432.789 193.635 432.783 193.683 432.771 193.744C432.758 193.792 432.74 193.858 432.716 193.942C432.62 194.243 432.493 194.599 432.337 195.008C432.192 195.418 432.036 195.845 431.867 196.291C431.699 196.725 431.53 197.164 431.361 197.61C431.193 198.043 431.042 198.453 430.91 198.838C430.777 199.224 430.669 199.561 430.584 199.85C430.5 200.139 430.458 200.35 430.458 200.482C430.458 200.555 430.494 200.591 430.566 200.591C430.699 200.591 430.898 200.513 431.163 200.356C431.428 200.199 431.729 199.995 432.066 199.742C432.415 199.489 432.777 199.212 433.15 198.911C433.523 198.61 433.879 198.314 434.216 198.025C434.565 197.724 434.878 197.453 435.155 197.212C435.432 196.972 435.643 196.791 435.788 196.67C435.896 196.779 436.022 196.917 436.167 197.086C436.324 197.255 436.468 197.411 436.601 197.556C436.336 197.821 436.004 198.146 435.607 198.531C435.209 198.905 434.776 199.29 434.306 199.688C433.848 200.085 433.367 200.482 432.861 200.88C432.367 201.277 431.885 201.633 431.416 201.946C430.946 202.259 430.506 202.512 430.097 202.705C429.687 202.897 429.338 202.994 429.049 202.994ZM436.203 185.939C436.191 185.987 436.143 186.108 436.059 186.3C435.986 186.481 435.896 186.698 435.788 186.951C435.679 187.192 435.553 187.451 435.408 187.728C435.276 187.993 435.143 188.239 435.011 188.468C434.878 188.697 434.752 188.89 434.631 189.046C434.511 189.191 434.415 189.263 434.342 189.263C434.125 189.251 433.861 189.185 433.547 189.064C433.246 188.944 432.951 188.812 432.662 188.667C432.385 188.51 432.144 188.36 431.939 188.215C431.747 188.071 431.65 187.968 431.65 187.908C431.65 187.655 431.723 187.33 431.867 186.933C432.012 186.523 432.18 186.132 432.373 185.758C432.566 185.373 432.758 185.042 432.951 184.765C433.156 184.488 433.312 184.349 433.421 184.349C433.638 184.349 433.903 184.421 434.216 184.566C434.529 184.698 434.83 184.855 435.119 185.036C435.42 185.216 435.673 185.397 435.878 185.578C436.095 185.746 436.203 185.867 436.203 185.939Z" fill="#C5FDFB"/>
</g>
<defs>
<clipPath id="clip0_601_202">
<rect width="750" height="630.455" fill="white"/>
</clipPath>
</defs>
</svg>
