<svg width="172" height="63" viewBox="0 0 172 63" fill="none" xmlns="http://www.w3.org/2000/svg">
<path d="M134.221 0.760082C91.9736 -4.86192 38.2816 22.2211 20.0006 32.1351C19.7266 32.2991 19.4436 32.4481 19.1726 32.5991C19.0896 32.6531 19.0156 32.7091 18.9226 32.7631C18.7396 32.8461 18.5716 32.9551 18.3896 33.0661C18.3056 33.1311 18.2056 33.1831 18.0996 33.2341C17.9576 33.3351 17.8026 33.4361 17.6476 33.5311C17.5636 33.5771 17.4646 33.6441 17.3596 33.7131C17.2286 33.8121 17.0866 33.9011 16.9406 33.9811C16.8586 34.0491 16.7706 34.1181 16.6716 34.1871C16.5376 34.2741 16.4126 34.3581 16.2746 34.4571C16.1836 34.5251 16.1116 34.5941 16.0236 34.6471C15.8866 34.7341 15.7666 34.8351 15.6466 34.9371C15.5586 34.9981 15.4736 35.0431 15.4026 35.1091C15.2836 35.2121 15.1526 35.3161 15.0406 35.3961C14.9736 35.4551 14.8936 35.5211 14.8146 35.5871C14.6986 35.6921 14.5906 35.7711 14.4666 35.8751C14.3946 35.9391 14.3326 36.0021 14.2736 36.0651C14.1556 36.1461 14.0336 36.2541 13.9326 36.3641C13.8766 36.4251 13.8116 36.4731 13.7466 36.5181C13.6266 36.6301 13.5326 36.7441 13.4206 36.8431C13.3636 36.8851 13.3066 36.9411 13.2536 36.9981C13.1586 37.1171 13.0446 37.2191 12.9306 37.3261C12.8856 37.3781 12.8436 37.4301 12.8056 37.4821C12.6926 37.5891 12.5786 37.7041 12.4806 37.8301C12.4496 37.8751 12.4126 37.9181 12.3736 37.9511C12.2556 38.0721 12.1486 38.2061 12.0586 38.3211C12.0266 38.3501 11.9946 38.3871 11.9636 38.4251C11.8456 38.5691 11.7446 38.6911 11.6486 38.8281C11.6266 38.8571 11.6036 38.8861 11.5806 38.9151C11.4616 39.0531 11.3646 39.2001 11.2596 39.3571C11.2476 39.3731 11.2366 39.3871 11.2236 39.3991C11.0996 39.5511 10.9966 39.7271 10.8906 39.8721C10.9156 39.8621 108.579 -2.08892 132.875 5.49308C148.415 10.3621 160.098 20.8241 165.677 23.7171L169.1 17.3751C156.689 13.7811 142.069 1.79708 134.221 0.760082Z" fill="#EAE9EA"/>
<path d="M166.167 23.969C166.323 24.032 166.473 24.092 166.631 24.156C166.472 24.092 166.323 24.03 166.167 23.969Z" fill="#CDCCCD"/>
<path d="M165.693 23.7199C160.114 20.8379 148.431 10.3619 132.878 5.48888C108.67 -2.06612 11.571 39.5809 10.901 39.8639C5.931 47.2989 8.69 55.1949 0.06 62.8299C0.044 62.8429 0.018 62.8539 0 62.8639C33.159 44.9889 99.165 24.7539 118.749 28.5329C127.872 30.2889 138.654 40.6159 149.829 53.2939L165.68 23.7109C165.685 23.7149 165.688 23.7179 165.693 23.7199Z" fill="#CDCCCD"/>
<path d="M165.693 23.72C165.865 23.808 166.006 23.893 166.166 23.969C166.005 23.892 165.865 23.808 165.693 23.72Z" fill="white"/>
<path d="M150.555 54.1011C150.789 54.3971 151.021 54.6661 151.28 54.9361L167.664 24.3981L171.154 17.8671C170.81 17.8011 170.466 17.7361 170.116 17.6411C169.781 17.5491 169.443 17.4511 169.103 17.3701L165.68 23.7121L149.829 53.2951C150.064 53.5631 150.296 53.8301 150.555 54.1011Z" fill="white"/>
</svg>
