<svg width="71" height="129" viewBox="0 0 71 129" fill="none" xmlns="http://www.w3.org/2000/svg">
<g clip-path="url(#clip0_603_1466)">
<path d="M40.4316 41.552V7.333C40.4316 7.29 40.4386 7.24 40.4456 7.191L40.5056 6.964C40.5346 6.923 40.5716 6.857 40.5876 6.831C41.0826 6.022 42.6926 5.314 45.1226 4.839C45.4276 4.771 45.7166 4.713 46.0116 4.657C46.3626 4.594 46.6696 4.545 46.9696 4.522C47.0046 4.519 47.0976 4.506 47.1326 4.496C47.3876 4.467 47.7106 4.424 48.0386 4.385C48.3736 4.345 48.7126 4.309 49.0566 4.276C49.4206 4.242 49.7496 4.216 50.0796 4.193L52.4486 4.116C52.8016 4.108 53.1496 4.104 53.4956 4.104C60.8206 4.104 66.5586 5.522 66.5586 7.333C66.5596 7.505 66.5596 23.261 66.5596 41.552L53.4946 54.604L40.4316 41.552Z" fill="#C5FDFB"/>
<path d="M53.4947 4.604C61.5837 4.604 66.0577 6.217 66.0577 7.333C66.0577 7.348 66.0577 7.362 66.0587 7.377V41.345L53.4947 53.897L40.9317 41.344V7.336C40.9317 7.315 40.9357 7.293 40.9357 7.293C40.9357 7.29 40.9367 7.286 40.9377 7.282L40.9387 7.279C40.9517 7.244 40.9677 7.185 40.9777 7.145C40.9897 7.127 41.0017 7.109 41.0137 7.09C41.1667 6.84 41.9197 5.976 45.1997 5.331C45.2197 5.328 45.2407 5.324 45.2607 5.319C45.5327 5.257 45.8157 5.2 46.0937 5.148L46.1747 5.134C46.5077 5.073 46.7737 5.036 46.9697 5.02C47.0177 5.018 47.0827 5.014 47.1577 5C47.4667 4.958 47.7697 4.918 48.0767 4.881C48.0847 4.88 48.0927 4.879 48.1007 4.878C48.4287 4.838 48.7637 4.803 49.1027 4.771C49.1187 4.77 49.1337 4.769 49.1417 4.768C49.4617 4.738 49.7867 4.712 50.1077 4.69L50.2247 4.684C50.4147 4.676 50.6067 4.671 50.7987 4.667L51.1937 4.657C51.2617 4.655 51.3287 4.652 51.3627 4.649C51.6877 4.636 52.0137 4.624 52.3417 4.616L52.4657 4.615C52.8077 4.608 53.1517 4.604 53.4947 4.604ZM53.4947 3.604C53.1447 3.604 52.7927 3.608 52.4427 3.616C52.4017 3.616 52.3597 3.617 52.3177 3.618C51.9847 3.626 51.6537 3.638 51.3237 3.651C51.2687 3.655 51.2137 3.657 51.1577 3.659C50.8307 3.669 50.5037 3.673 50.1807 3.687C50.1347 3.689 50.0887 3.691 50.0427 3.694C49.7077 3.717 49.3747 3.744 49.0467 3.775C49.0327 3.776 49.0197 3.778 49.0057 3.778C48.6577 3.811 48.3147 3.848 47.9787 3.888H47.9767C47.6457 3.928 47.3207 3.971 46.9877 4.016C46.9747 4.02 46.9537 4.022 46.9287 4.023C46.6117 4.047 46.2857 4.099 45.9907 4.153C45.9657 4.157 45.9417 4.161 45.9167 4.165C45.6157 4.222 45.3207 4.281 45.0367 4.346C45.0327 4.346 45.0287 4.347 45.0237 4.348C42.5967 4.823 40.7737 5.563 40.1587 6.57C40.1177 6.611 40.0827 6.67 40.0527 6.735C40.0497 6.741 40.0467 6.746 40.0437 6.752C40.0287 6.812 40.0147 6.872 39.9997 6.934C39.9927 6.953 39.9877 6.961 39.9827 6.975C39.9707 7.02 39.9587 7.068 39.9497 7.117C39.9387 7.192 39.9297 7.267 39.9297 7.333C39.9297 15.075 39.9297 27.929 39.9297 41.759L53.4927 55.311L67.0567 41.759C67.0567 22.776 67.0567 7.334 67.0567 7.334H67.0557V7.333C67.0577 4.831 60.2617 3.604 53.4947 3.604Z" fill="#B6E9FF"/>
<path d="M45.0258 4.347C45.0298 4.347 45.0338 4.346 45.0388 4.345C45.3228 4.281 45.6178 4.221 45.9188 4.164C45.9438 4.16 45.9678 4.156 45.9928 4.152C46.2878 4.098 46.6128 4.047 46.9308 4.022C46.9558 4.021 46.9768 4.019 46.9898 4.015C47.3228 3.97 47.6478 3.927 47.9788 3.887H47.9808C48.3168 3.846 48.6598 3.81 49.0078 3.777C49.0218 3.777 49.0348 3.775 49.0488 3.774C49.3768 3.743 49.7098 3.717 50.0448 3.693C50.0908 3.69 50.1368 3.688 50.1828 3.686C50.5058 3.672 50.8318 3.668 51.1598 3.658C51.2158 3.656 51.2708 3.654 51.3258 3.65C51.6558 3.637 51.9868 3.625 52.3198 3.617C52.3618 3.616 52.4028 3.616 52.4448 3.615C52.7948 3.607 53.1468 3.603 53.4968 3.603C60.2648 3.603 67.0598 4.83 67.0598 7.332L69.8148 4.56C68.9128 3.193 67.0998 1.853 63.6698 1.036C60.9268 0.362 57.3128 0 53.4948 0C49.6488 0 46.0358 0.362 43.3148 1.036C40.3748 1.753 38.5998 2.832 37.5898 3.999L40.1598 6.569C40.7758 5.563 42.5988 4.822 45.0258 4.347Z" fill="#B6E9FF"/>
<path d="M67.0576 7.33306C67.0586 7.33306 67.0586 22.7751 67.0586 41.7581L70.6586 38.1331V7.33306C70.6586 6.48106 70.4366 5.49806 69.8126 4.56006L67.0576 7.33306Z" fill="#C5ECFD"/>
<path d="M39.9321 7.33302C39.9321 7.26702 39.9401 7.19102 39.9521 7.11702C39.9611 7.06802 39.9731 7.02102 39.9851 6.97502C39.9901 6.96102 39.9951 6.95302 40.0021 6.93402C40.0171 6.87202 40.0301 6.81202 40.0471 6.75102C40.0501 6.74602 40.0531 6.74002 40.0561 6.73402C40.0861 6.66902 40.1221 6.61002 40.1621 6.56902L37.5921 3.99902C36.6211 5.12002 36.3301 6.29202 36.3301 7.33302V38.135L39.9321 41.76C39.9321 27.929 39.9321 15.075 39.9321 7.33302Z" fill="#C5ECFD"/>
<path d="M17.1655 51.211C10.0335 51.211 4.42354 49.888 4.11654 48.133C4.10854 48.084 4.10254 48.03 4.10254 47.985C4.10254 47.847 4.10254 32.566 4.10254 13.768L17.1655 0.707031L30.2295 13.769V47.986C30.2295 48.031 30.2235 48.085 30.2145 48.138C29.9085 49.888 24.2975 51.211 17.1655 51.211Z" fill="#C5FDFB"/>
<path d="M17.1656 1.414L29.7296 13.976V47.985C29.7296 48.006 29.7256 48.031 29.7236 48.048C29.5286 49.165 25.0556 50.712 17.1656 50.712C9.27656 50.712 4.80456 49.165 4.60956 48.056C4.60556 48.029 4.60156 48.002 4.60156 47.986V13.976L17.1656 1.414ZM17.1656 0L3.60156 13.562C3.60156 32.54 3.60156 47.986 3.60156 47.986C3.60156 48.056 3.60856 48.138 3.62256 48.22C4.03056 50.549 10.5976 51.711 17.1646 51.711C23.7326 51.711 30.2996 50.549 30.7066 48.22C30.7206 48.138 30.7276 48.055 30.7276 47.986C30.7276 40.241 30.7276 27.388 30.7276 13.562L17.1656 0Z" fill="#B6E9FF"/>
<path d="M30.7285 47.985L33.4825 50.755C34.1065 49.81 34.3285 48.835 34.3285 47.985V17.182L30.7285 13.562C30.7285 27.387 30.7285 40.24 30.7285 47.985Z" fill="#C5ECFD"/>
<path d="M30.7084 48.2201C30.3014 50.5491 23.7334 51.7111 17.1664 51.7111C10.5994 51.7111 4.03236 50.5491 3.62436 48.2201C3.61036 48.1381 3.60336 48.0551 3.60336 47.9861L0.818359 50.7571C1.74736 52.1241 3.56136 53.4591 6.98636 54.2791C9.70736 54.9511 13.3194 55.3201 17.1664 55.3201C20.9844 55.3201 24.5984 54.9511 27.3414 54.2791C30.7714 53.4591 32.5844 52.1221 33.4844 50.7551L30.7304 47.9851C30.7294 48.0551 30.7224 48.1381 30.7084 48.2201Z" fill="#B6E9FF"/>
<path d="M3.603 47.985C3.603 47.985 3.603 32.539 3.603 13.561L0 17.182V47.986V48.832L0.093 49.068C0.221 49.613 0.438 50.187 0.817 50.757L3.603 47.985Z" fill="#C5ECFD"/>
<path d="M13.771 87.5581L0.708008 74.4971L13.771 61.4451H47.983C49.792 61.4451 51.209 67.1801 51.209 74.5021C51.209 81.8241 49.792 87.5591 47.983 87.5591H13.771V87.5581Z" fill="#C5FDFB"/>
<path d="M47.983 61.9451C49.121 61.9451 50.709 66.7221 50.709 74.5011C50.709 82.2811 49.121 87.0581 47.983 87.0581H13.978L1.415 74.4971L13.978 61.9451H47.983ZM47.983 60.9451C40.224 60.9451 27.37 60.9451 13.564 60.9451L0 74.4971L13.564 88.0591C32.522 88.0591 47.983 88.0591 47.983 88.0591C52.951 88.0581 52.951 60.9451 47.983 60.9451Z" fill="#B6E9FF"/>
<path d="M47.9835 60.945L50.7385 58.167C49.8055 57.546 48.8185 57.321 47.9835 57.321H17.1655L13.5645 60.946C27.3705 60.945 40.2245 60.945 47.9835 60.945Z" fill="#C5ECFD"/>
<path d="M47.9835 88.0581C47.9835 88.0581 32.5225 88.0581 13.5645 88.0581L17.1645 91.6781H47.9835H49.4795L49.8195 91.3331C50.1275 91.2051 50.4365 91.0301 50.7445 90.8351L47.9835 88.0581Z" fill="#C5ECFD"/>
<path d="M50.7384 58.167L47.9834 60.945C52.9504 60.945 52.9504 88.058 47.9834 88.058L50.7434 90.835C52.1124 89.905 53.4484 88.088 54.2914 84.688C54.9554 81.942 55.3234 78.331 55.3234 74.496C55.3234 70.665 54.9554 67.054 54.2914 64.308C53.4474 60.907 52.1114 59.096 50.7384 58.167Z" fill="#B6E9FF"/>
<path d="M7.33977 123.916C5.51977 123.916 4.09277 118.181 4.09277 110.859C4.09277 103.537 5.51977 97.803 7.33977 97.803H41.5528L54.6158 110.855L41.5528 123.917L7.33977 123.916Z" fill="#C5FDFB"/>
<path d="M41.346 98.303L53.909 110.855L41.346 123.416H7.34C6.193 123.416 4.594 118.64 4.594 110.86C4.594 103.08 6.194 98.302 7.341 98.302H41.346V98.303ZM41.76 97.303C22.795 97.303 7.341 97.303 7.341 97.303H7.34C2.345 97.303 2.345 124.416 7.34 124.416C15.097 124.416 27.939 124.416 41.76 124.416L55.323 110.854L41.76 97.303Z" fill="#B6E9FF"/>
<path d="M41.7596 97.303L38.1576 93.678H7.34064C6.47764 93.678 5.51864 93.904 4.55664 94.524L7.34064 97.302C7.34064 97.303 22.7946 97.303 41.7596 97.303Z" fill="#C5ECFD"/>
<path d="M7.34 97.3029L4.557 94.5249C3.19 95.4549 1.878 97.2649 1.032 100.668C0.368 103.413 0 107.025 0 110.854C0 114.689 0.368 118.301 1.032 121.047C1.877 124.449 3.19 126.259 4.557 127.19L7.34 124.416C2.345 124.416 2.345 97.3029 7.34 97.3029Z" fill="#B6E9FF"/>
<path d="M7.33964 124.416L4.55664 127.19C5.51764 127.81 6.47664 128.036 7.33964 128.036H38.1566L41.7596 124.416C27.9376 124.416 15.0966 124.416 7.33964 124.416Z" fill="#C5ECFD"/>
</g>
<defs>
<clipPath id="clip0_603_1466">
<rect width="70.659" height="128.036" fill="white"/>
</clipPath>
</defs>
</svg>
