<svg width="68" height="34" viewBox="0 0 68 34" fill="none" xmlns="http://www.w3.org/2000/svg">
<g clip-path="url(#clip0_603_1717)">
<path d="M66.9091 16.603C66.9091 25.506 59.6801 32.706 50.8071 32.706C41.9061 32.706 34.7051 25.506 34.7051 16.603C34.7051 7.707 41.9051 0.5 50.8071 0.5C59.6811 0.5 66.9091 7.707 66.9091 16.603Z" fill="#F5F5F5" stroke="white" stroke-miterlimit="10"/>
<path d="M57.9733 11.978H43.6123V13.53H57.9733V11.978Z" fill="#929493"/>
<path d="M57.9733 15.896H43.6123V17.448H57.9733V15.896Z" fill="#929493"/>
<path d="M57.9733 19.7061H43.6123V21.2381H57.9733V19.7061Z" fill="#929493"/>
<path d="M32.706 16.603C32.706 25.506 25.505 32.706 16.603 32.706C7.731 32.706 0.5 25.506 0.5 16.603C0.5 7.707 7.731 0.5 16.603 0.5C25.505 0.5 32.706 7.707 32.706 16.603Z" fill="#F5F5F5" stroke="white" stroke-miterlimit="10"/>
<path d="M14.0865 16.502H11.0555V12.718H16.5275V14.039H18.3275V10.979H9.43652V18.369H14.0865V16.502Z" fill="#929493"/>
<path d="M14.8369 14.6631V22.2471H23.7969V14.6631H14.8369ZM21.9979 20.4471H16.5279V16.5021H21.9979V20.4471Z" fill="#929493"/>
</g>
<defs>
<clipPath id="clip0_603_1717">
<rect width="67.409" height="33.206" fill="white"/>
</clipPath>
</defs>
</svg>
