<svg width="89" height="122" viewBox="0 0 89 122" fill="none" xmlns="http://www.w3.org/2000/svg">
<path d="M74.7529 56.076V55.408C74.7679 55.821 74.7529 56.076 74.7529 56.076Z" fill="#CDCCCD"/>
<path d="M49.715 5.46589C50.116 5.14689 50.52 4.84789 50.926 4.56689L53.248 114.562L0 121.795C12.067 4.97389 42.959 10.7619 49.715 5.46589Z" fill="#CDCCCD"/>
<path d="M76.7413 0.142095C87.5743 0.545095 88.8103 11.5811 88.9343 15.3321V16.5591C88.9343 16.5591 86.0333 57.2751 88.9343 109.653C79.0083 111.942 50.3953 114.951 50.3953 114.951C50.3953 114.951 50.3443 94.0371 49.7153 64.3551C48.9043 26.8541 50.9263 4.56709 50.9263 4.56709C57.3433 0.091095 64.4923 -0.306905 76.7413 0.142095Z" fill="#EAE9EA"/>
</svg>
